<svg width="4232" height="1520" xmlns="http://www.w3.org/2000/svg" xmlns:xlink="http://www.w3.org/1999/xlink" xml:space="preserve" overflow="hidden"><defs><filter id="fx0" x="-10%" y="-10%" width="120%" height="120%" filterUnits="userSpaceOnUse" primitiveUnits="userSpaceOnUse"><feComponentTransfer color-interpolation-filters="sRGB"><feFuncR type="discrete" tableValues="0 0"/><feFuncG type="discrete" tableValues="0 0"/><feFuncB type="discrete" tableValues="0 0"/><feFuncA type="linear" slope="0.4" intercept="0"/></feComponentTransfer><feGaussianBlur stdDeviation="6.11111 6.11111"/></filter><filter id="fx1" x="-10%" y="-10%" width="120%" height="120%" filterUnits="userSpaceOnUse" primitiveUnits="userSpaceOnUse"><feComponentTransfer color-interpolation-filters="sRGB"><feFuncR type="discrete" tableValues="0 0"/><feFuncG type="discrete" tableValues="0 0"/><feFuncB type="discrete" tableValues="0 0"/><feFuncA type="linear" slope="0.4" intercept="0"/></feComponentTransfer><feGaussianBlur stdDeviation="6.11111 6.11111"/></filter><filter id="fx2" x="-10%" y="-10%" width="120%" height="120%" filterUnits="userSpaceOnUse" primitiveUnits="userSpaceOnUse"><feComponentTransfer color-interpolation-filters="sRGB"><feFuncR type="discrete" tableValues="0 0"/><feFuncG type="discrete" tableValues="0 0"/><feFuncB type="discrete" tableValues="0 0"/><feFuncA type="linear" slope="0.4" intercept="0"/></feComponentTransfer><feGaussianBlur stdDeviation="6.11111 6.11111"/></filter><filter id="fx3" x="-10%" y="-10%" width="120%" height="120%" filterUnits="userSpaceOnUse" primitiveUnits="userSpaceOnUse"><feComponentTransfer color-interpolation-filters="sRGB"><feFuncR type="discrete" tableValues="0 0"/><feFuncG type="discrete" tableValues="0 0"/><feFuncB type="discrete" tableValues="0 0"/><feFuncA type="linear" slope="0.4" intercept="0"/></feComponentTransfer><feGaussianBlur stdDeviation="6.11111 6.11111"/></filter><filter id="fx4" x="-10%" y="-10%" width="120%" height="120%" filterUnits="userSpaceOnUse" primitiveUnits="userSpaceOnUse"><feComponentTransfer color-interpolation-filters="sRGB"><feFuncR type="discrete" tableValues="0 0"/><feFuncG type="discrete" tableValues="0 0"/><feFuncB type="discrete" tableValues="0 0"/><feFuncA type="linear" slope="0.4" intercept="0"/></feComponentTransfer><feGaussianBlur stdDeviation="6.11111 6.11111"/></filter><filter id="fx5" x="-10%" y="-10%" width="120%" height="120%" filterUnits="userSpaceOnUse" primitiveUnits="userSpaceOnUse"><feComponentTransfer color-interpolation-filters="sRGB"><feFuncR type="discrete" tableValues="0 0"/><feFuncG type="discrete" tableValues="0 0"/><feFuncB type="discrete" tableValues="0 0"/><feFuncA type="linear" slope="0.4" intercept="0"/></feComponentTransfer><feGaussianBlur stdDeviation="6.11111 6.11111"/></filter><filter id="fx6" x="-10%" y="-10%" width="120%" height="120%" filterUnits="userSpaceOnUse" primitiveUnits="userSpaceOnUse"><feComponentTransfer color-interpolation-filters="sRGB"><feFuncR type="discrete" tableValues="0 0"/><feFuncG type="discrete" tableValues="0 0"/><feFuncB type="discrete" tableValues="0 0"/><feFuncA type="linear" slope="0.4" intercept="0"/></feComponentTransfer><feGaussianBlur stdDeviation="6.11111 6.11111"/></filter><filter id="fx7" x="-10%" y="-10%" width="120%" height="120%" filterUnits="userSpaceOnUse" primitiveUnits="userSpaceOnUse"><feComponentTransfer color-interpolation-filters="sRGB"><feFuncR type="discrete" tableValues="0 0"/><feFuncG type="discrete" tableValues="0 0"/><feFuncB type="discrete" tableValues="0 0"/><feFuncA type="linear" slope="0.4" intercept="0"/></feComponentTransfer><feGaussianBlur stdDeviation="6.11111 6.11111"/></filter><filter id="fx8" x="-10%" y="-10%" width="120%" height="120%" filterUnits="userSpaceOnUse" primitiveUnits="userSpaceOnUse"><feComponentTransfer color-interpolation-filters="sRGB"><feFuncR type="discrete" tableValues="0 0"/><feFuncG type="discrete" tableValues="0 0"/><feFuncB type="discrete" tableValues="0 0"/><feFuncA type="linear" slope="0.4" intercept="0"/></feComponentTransfer><feGaussianBlur stdDeviation="6.11111 6.11111"/></filter><filter id="fx9" x="-10%" y="-10%" width="120%" height="120%" filterUnits="userSpaceOnUse" primitiveUnits="userSpaceOnUse"><feComponentTransfer color-interpolation-filters="sRGB"><feFuncR type="discrete" tableValues="0 0"/><feFuncG type="discrete" tableValues="0 0"/><feFuncB type="discrete" tableValues="0 0"/><feFuncA type="linear" slope="0.4" intercept="0"/></feComponentTransfer><feGaussianBlur stdDeviation="6.11111 6.11111"/></filter><filter id="fx10" x="-10%" y="-10%" width="120%" height="120%" filterUnits="userSpaceOnUse" primitiveUnits="userSpaceOnUse"><feComponentTransfer color-interpolation-filters="sRGB"><feFuncR type="discrete" tableValues="0 0"/><feFuncG type="discrete" tableValues="0 0"/><feFuncB type="discrete" tableValues="0 0"/><feFuncA type="linear" slope="0.4" intercept="0"/></feComponentTransfer><feGaussianBlur stdDeviation="6.11111 6.11111"/></filter><filter id="fx11" x="-10%" y="-10%" width="120%" height="120%" filterUnits="userSpaceOnUse" primitiveUnits="userSpaceOnUse"><feComponentTransfer color-interpolation-filters="sRGB"><feFuncR type="discrete" tableValues="0 0"/><feFuncG type="discrete" tableValues="0 0"/><feFuncB type="discrete" tableValues="0 0"/><feFuncA type="linear" slope="0.4" intercept="0"/></feComponentTransfer><feGaussianBlur stdDeviation="6.11111 6.11111"/></filter><filter id="fx12" x="-10%" y="-10%" width="120%" height="120%" filterUnits="userSpaceOnUse" primitiveUnits="userSpaceOnUse"><feComponentTransfer color-interpolation-filters="sRGB"><feFuncR type="discrete" tableValues="0 0"/><feFuncG type="discrete" tableValues="0 0"/><feFuncB type="discrete" tableValues="0 0"/><feFuncA type="linear" slope="0.4" intercept="0"/></feComponentTransfer><feGaussianBlur stdDeviation="6.11111 6.11111"/></filter><filter id="fx13" x="-10%" y="-10%" width="120%" height="120%" filterUnits="userSpaceOnUse" primitiveUnits="userSpaceOnUse"><feComponentTransfer color-interpolation-filters="sRGB"><feFuncR type="discrete" tableValues="0 0"/><feFuncG type="discrete" tableValues="0 0"/><feFuncB type="discrete" tableValues="0 0"/><feFuncA type="linear" slope="0.4" intercept="0"/></feComponentTransfer><feGaussianBlur stdDeviation="6.11111 6.11111"/></filter><filter id="fx14" x="-10%" y="-10%" width="120%" height="120%" filterUnits="userSpaceOnUse" primitiveUnits="userSpaceOnUse"><feComponentTransfer color-interpolation-filters="sRGB"><feFuncR type="discrete" tableValues="0 0"/><feFuncG type="discrete" tableValues="0 0"/><feFuncB type="discrete" tableValues="0 0"/><feFuncA type="linear" slope="0.4" intercept="0"/></feComponentTransfer><feGaussianBlur stdDeviation="6.11111 6.11111"/></filter><filter id="fx15" x="-10%" y="-10%" width="120%" height="120%" filterUnits="userSpaceOnUse" primitiveUnits="userSpaceOnUse"><feComponentTransfer color-interpolation-filters="sRGB"><feFuncR type="discrete" tableValues="0 0"/><feFuncG type="discrete" tableValues="0 0"/><feFuncB type="discrete" tableValues="0 0"/><feFuncA type="linear" slope="0.4" intercept="0"/></feComponentTransfer><feGaussianBlur stdDeviation="6.11111 6.11111"/></filter><clipPath id="clip16"><rect x="163" y="644" width="4232" height="1520"/></clipPath><clipPath id="clip17"><rect x="-3" y="94" width="310" height="303"/></clipPath><clipPath id="clip18"><rect x="-3" y="94" width="310" height="303"/></clipPath><clipPath id="clip19"><rect x="-3" y="94" width="310" height="303"/></clipPath><clipPath id="clip20"><rect x="-3" y="94" width="310" height="303"/></clipPath><clipPath id="clip21"><rect x="-3" y="94" width="310" height="303"/></clipPath><clipPath id="clip22"><rect x="-3" y="94" width="310" height="303"/></clipPath><clipPath id="clip23"><rect x="-3" y="8" width="69" height="1441"/></clipPath><clipPath id="clip24"><rect x="-3" y="94" width="1662" height="1290"/></clipPath><clipPath id="clip25"><path d="M873.025 1201.5 193.5 1879.26 875.5 1880.5C874.675 1655.82 873.85 1431.13 873.025 1201.5ZM163 644 4395 644 4395 2164 163 2164Z" fill-rule="evenodd" clip-rule="evenodd"/></clipPath><clipPath id="clip26"><path d="M192.428 1200.5 191.5 1877.5 872.5 1201.43ZM163 644 4395 644 4395 2164 163 2164Z" fill-rule="evenodd" clip-rule="evenodd"/></clipPath><clipPath id="clip27"><path d="M1097.65 974.5 877.5 1877.5 1099.5 1651.05ZM163 644 4395 644 4395 2164 163 2164Z" fill-rule="evenodd" clip-rule="evenodd"/></clipPath><clipPath id="clip28"><rect x="-3" y="15" width="276" height="960"/></clipPath><clipPath id="clip29"><path d="M1098.5 972.5 873.5 1199.04 876.289 1880.5ZM163 644 4395 644 4395 2164 163 2164Z" fill-rule="evenodd" clip-rule="evenodd"/></clipPath><clipPath id="clip30"><path d="M1098.5 971.5 191.5 1199.57 873.141 1200.5ZM163 644 4395 644 4395 2164 163 2164Z" fill-rule="evenodd" clip-rule="evenodd"/></clipPath><clipPath id="clip31"><rect x="15" y="-3" width="963" height="283"/></clipPath><clipPath id="clip32"><path d="M1100.5 969.5 417.768 973.206 190.5 1196.5ZM163 644 4395 644 4395 2164 163 2164Z" fill-rule="evenodd" clip-rule="evenodd"/></clipPath><clipPath id="clip33"><rect x="-3" y="121" width="344" height="499"/></clipPath><clipPath id="clip34"><rect x="-3" y="8" width="69" height="1441"/></clipPath></defs><g clip-path="url(#clip16)" transform="translate(-163 -644)"><g clip-path="url(#clip17)" filter="url(#fx0)" transform="translate(1407 642)"><g><path d="M47.7229 322.723 166.223 117.723 284.723 322.723Z" fill="#76B900" fill-rule="evenodd"/><path d="M13.7151-15.2364 172.771 127.938 145.341 158.411-13.7151 15.2364ZM184.965 83.7505 235.238 211.75 102.674 175.169Z" fill="#000000" fill-opacity="0.501961" transform="matrix(1 0 0 -1 34.2225 355.973)"/></g></g><path d="M1445 955 1563.5 750 1682 955Z" fill="#76B900" fill-rule="evenodd"/><path d="M13.7987-15.3293 172.39 127.427 144.793 158.086-13.7987 15.3293ZM184.658 82.97 235.238 211.75 101.866 174.946Z" fill="#000000" fill-opacity="0.501961" transform="matrix(1 0 0 -1 1431.5 988.25)"/><g clip-path="url(#clip18)" filter="url(#fx1)" transform="translate(1560 868)"><g><path d="M47.7228 322.723 166.223 117.723 284.723 322.723Z" fill="#008564" fill-rule="evenodd"/><path d="M13.7151-15.2364 172.771 127.938 145.341 158.411-13.7151 15.2364ZM184.965 83.7505 235.238 211.75 102.674 175.169Z" fill="#000000" fill-opacity="0.501961" transform="matrix(1 0 0 -1 34.2225 355.973)"/></g></g><path d="M1598 1181 1716.5 976 1835 1181Z" fill="#008564" fill-rule="evenodd"/><path d="M13.7987-15.3293 172.39 127.427 144.793 158.086-13.7987 15.3293ZM184.658 82.97 235.238 211.75 101.866 174.946Z" fill="#000000" fill-opacity="0.501961" transform="matrix(1 0 0 -1 1584.5 1214.25)"/><g clip-path="url(#clip19)" filter="url(#fx2)" transform="translate(1714 1094)"><g><path d="M47.7228 322.723 166.223 117.723 284.723 322.723Z" fill="#5D1682" fill-rule="evenodd"/><path d="M13.7151-15.2364 172.771 127.938 145.341 158.411-13.7151 15.2364ZM184.965 83.7505 235.238 211.75 102.674 175.169Z" fill="#000000" fill-opacity="0.501961" transform="matrix(1 0 0 -1 34.2225 355.973)"/></g></g><path d="M1752 1407 1870.5 1202 1989 1407Z" fill="#5D1682" fill-rule="evenodd"/><path d="M13.7987-15.3293 172.39 127.427 144.793 158.086-13.7987 15.3293ZM184.658 82.97 235.238 211.75 101.866 174.946Z" fill="#000000" fill-opacity="0.501961" transform="matrix(1 0 0 -1 1738.5 1440.25)"/><g clip-path="url(#clip20)" filter="url(#fx3)" transform="translate(1867 1320)"><g><path d="M47.7228 321.723 166.223 117.723 284.723 321.723Z" fill="#0071C5" fill-rule="evenodd"/><path d="M13.7151-15.2364 172.771 127.938 145.341 158.411-13.7151 15.2364ZM184.965 83.7505 235.238 211.75 102.674 175.169Z" fill="#000000" fill-opacity="0.501961" transform="matrix(1 0 0 -1 34.2229 355.973)"/></g></g><path d="M1905 1632 2023.5 1428 2142 1632Z" fill="#0071C5" fill-rule="evenodd"/><path d="M13.7987-15.3293 172.39 127.427 144.793 158.086-13.7987 15.3293ZM184.658 82.97 235.238 211.75 101.866 174.946Z" fill="#000000" fill-opacity="0.501961" transform="matrix(1 0 0 -1 1891.5 1666.25)"/><g clip-path="url(#clip21)" filter="url(#fx4)" transform="translate(2021 1545)"><g><path d="M46.7227 322.723 165.223 118.723 283.722 322.723Z" fill="#890C58" fill-rule="evenodd"/><path d="M13.7151-15.2364 172.771 127.938 145.341 158.411-13.7151 15.2364ZM184.965 83.7505 235.238 211.75 102.674 175.169Z" fill="#000000" fill-opacity="0.501961" transform="matrix(1 0 0 -1 34.2229 355.973)"/></g></g><path d="M2058 1858 2176.5 1654 2295 1858Z" fill="#890C58" fill-rule="evenodd"/><path d="M13.7987-15.3293 172.39 127.427 144.793 158.086-13.7987 15.3293ZM184.658 82.97 235.238 211.75 101.866 174.946Z" fill="#000000" fill-opacity="0.501961" transform="matrix(1 0 0 -1 2045.5 1891.25)"/><g clip-path="url(#clip22)" filter="url(#fx5)" transform="translate(2173 1771)"><g><path d="M46.7227 322.723 165.223 118.723 283.723 322.723Z" fill="#FAC200" fill-rule="evenodd"/><path d="M13.7151-15.2364 172.771 127.938 145.341 158.411-13.7151 15.2364ZM184.965 83.7505 235.238 211.75 102.674 175.169Z" transform="matrix(1 0 0 -1 34.2229 355.973)"/></g></g><path d="M2210 2084 2328.5 1880 2447 2084Z" fill="#FAC200" fill-rule="evenodd"/><path d="M13.7987-15.3293 172.39 127.427 144.793 158.086-13.7987 15.3293ZM184.658 82.97 235.238 211.75 101.866 174.946Z" transform="matrix(1 0 0 -1 2197.5 2117.25)"/><g clip-path="url(#clip23)" filter="url(#fx6)" transform="translate(2503 703)"><g><path d="M0 0 0.000360892 1392.93" stroke="#000000" stroke-width="23" stroke-miterlimit="8" fill="none" fill-rule="evenodd" transform="matrix(1 0 0 -1 31.2227 1424.16)"/></g></g><path d="M0 0 0.000360892 1392.93" stroke="#000000" stroke-width="22.9167" stroke-miterlimit="8" fill="none" fill-rule="evenodd" transform="matrix(1 0 0 -1 2524.5 2117.43)"/><g clip-path="url(#clip24)" filter="url(#fx7)" transform="translate(2646 711)"><g><path d="M325.723 1319.72 424.723 1149.72 523.723 1319.72Z" fill="#008564" fill-rule="evenodd" fill-opacity="0.501961"/><path d="M596.723 1319.72 695.723 1149.72 794.723 1319.72Z" fill="#5D1682" fill-rule="evenodd" fill-opacity="0.501961"/><path d="M867.723 1319.72 966.723 1149.72 1065.72 1319.72Z" fill="#0071C5" fill-rule="evenodd" fill-opacity="0.501961"/><path d="M1138.72 1319.72 1237.72 1149.72 1336.72 1319.72Z" fill="#890C58" fill-rule="evenodd" fill-opacity="0.501961"/><path d="M1409.72 1319.72 1508.72 1149.72 1607.72 1319.72Z" fill="#FAC200" fill-rule="evenodd"/><path d="M54.7227 1319.72 153.723 1149.72 252.723 1319.72Z" fill="#76B900" fill-rule="evenodd" fill-opacity="0.501961"/><path d="M13.7151-15.2364 133.7 92.7682 106.269 123.241-13.7151 15.2364ZM145.893 48.5804 196.166 176.58 63.6029 139.999Z" transform="matrix(1 0 0 -1 1410.22 1320.8)"/><path d="M13.7151-15.2364 133.7 92.7682 106.269 123.241-13.7151 15.2364ZM145.893 48.5804 196.166 176.58 63.6029 139.999Z" transform="matrix(1 0 0 -1 711.223 320.803)"/><path d="M13.7151-15.2364 133.7 92.7682 106.269 123.241-13.7151 15.2364ZM145.893 48.5804 196.166 176.58 63.6029 139.999Z" transform="matrix(1 0 0 -1 998.223 641.802)"/><path d="M13.7151-15.2364 133.7 92.7682 106.269 123.241-13.7151 15.2364ZM145.893 48.5804 196.166 176.58 63.6029 139.999Z" transform="matrix(1 0 0 -1 1271.22 990.803)"/><rect x="40.7229" y="1121.72" width="226" height="226" stroke="#172C51" stroke-width="27" stroke-miterlimit="8" stroke-opacity="0.501961" fill="none"/><rect x="311.723" y="1121.72" width="226" height="226" stroke="#172C51" stroke-width="27" stroke-miterlimit="8" stroke-opacity="0.501961" fill="none"/><rect x="582.723" y="1121.72" width="226" height="226" stroke="#172C51" stroke-width="27" stroke-miterlimit="8" stroke-opacity="0.501961" fill="none"/><rect x="853.723" y="1121.72" width="226" height="226" stroke="#172C51" stroke-width="27" stroke-miterlimit="8" stroke-opacity="0.501961" fill="none"/><rect x="1125.72" y="1121.72" width="225" height="226" stroke="#172C51" stroke-width="27" stroke-miterlimit="8" stroke-opacity="0.501961" fill="none"/><rect x="1396.72" y="1121.72" width="225" height="226" stroke="#172C51" stroke-width="27" stroke-miterlimit="8" fill="none"/><rect x="36.7227" y="790.723" width="501" height="226" stroke="#172C51" stroke-width="27" stroke-miterlimit="8" stroke-opacity="0.501961" fill="none"/><rect x="579.723" y="790.723" width="500" height="226" stroke="#172C51" stroke-width="27" stroke-miterlimit="8" stroke-opacity="0.501961" fill="none"/><rect x="1121.72" y="792.723" width="500" height="225" stroke="#172C51" stroke-width="27" stroke-miterlimit="8" fill="none"/><rect x="592.723" y="451.723" width="1029" height="225" stroke="#172C51" stroke-width="27" stroke-miterlimit="8" fill="none"/><rect x="36.7227" y="451.723" width="501" height="225" stroke="#172C51" stroke-width="27" stroke-miterlimit="8" stroke-opacity="0.501961" fill="none"/><rect x="33.7227" y="128.723" width="1588" height="226" stroke="#172C51" stroke-width="27" stroke-miterlimit="8" fill="none"/></g></g><path d="M2962 2021 3061 1851 3160 2021Z" fill="#008564" fill-rule="evenodd" fill-opacity="0.501961"/><path d="M3233 2021 3332 1851 3431 2021Z" fill="#5D1682" fill-rule="evenodd" fill-opacity="0.501961"/><path d="M3504 2021 3603 1851 3702 2021Z" fill="#0071C5" fill-rule="evenodd" fill-opacity="0.501961"/><path d="M3775 2021 3874 1851 3973 2021Z" fill="#890C58" fill-rule="evenodd" fill-opacity="0.501961"/><path d="M4046 2021 4145 1851 4244 2021Z" fill="#FAC200" fill-rule="evenodd"/><path d="M2691 2021 2790 1851 2889 2021Z" fill="#76B900" fill-rule="evenodd" fill-opacity="0.501961"/><path d="M13.7987-15.3293 133.319 92.2572 105.721 122.916-13.7987 15.3293ZM145.587 47.7999 196.166 176.58 62.7946 139.776Z" transform="matrix(1 0 0 -1 4046.5 2022.08)"/><path d="M13.7987-15.3293 133.319 92.2572 105.721 122.916-13.7987 15.3293ZM145.587 47.7999 196.166 176.58 62.7946 139.776Z" transform="matrix(1 0 0 -1 3347.5 1022.08)"/><path d="M13.7987-15.3293 133.319 92.2572 105.721 122.916-13.7987 15.3293ZM145.587 47.7999 196.166 176.58 62.7946 139.776Z" transform="matrix(1 0 0 -1 3634.5 1343.08)"/><path d="M13.7987-15.3293 133.319 92.2572 105.721 122.916-13.7987 15.3293ZM145.587 47.7999 196.166 176.58 62.7946 139.776Z" transform="matrix(1 0 0 -1 3907.5 1692.08)"/><rect x="2677" y="1823" width="226" height="226" stroke="#172C51" stroke-width="27.5" stroke-miterlimit="8" stroke-opacity="0.501961" fill="none"/><rect x="2948" y="1823" width="226" height="226" stroke="#172C51" stroke-width="27.5" stroke-miterlimit="8" stroke-opacity="0.501961" fill="none"/><rect x="3219" y="1823" width="226" height="226" stroke="#172C51" stroke-width="27.5" stroke-miterlimit="8" stroke-opacity="0.501961" fill="none"/><rect x="3490" y="1823" width="226" height="226" stroke="#172C51" stroke-width="27.5" stroke-miterlimit="8" stroke-opacity="0.501961" fill="none"/><rect x="3762" y="1823" width="225" height="226" stroke="#172C51" stroke-width="27.5" stroke-miterlimit="8" stroke-opacity="0.501961" fill="none"/><rect x="4033" y="1823" width="225" height="226" stroke="#172C51" stroke-width="27.5" stroke-miterlimit="8" fill="none"/><rect x="2673" y="1492" width="501" height="226" stroke="#172C51" stroke-width="27.5" stroke-miterlimit="8" stroke-opacity="0.501961" fill="none"/><rect x="3216" y="1492" width="500" height="226" stroke="#172C51" stroke-width="27.5" stroke-miterlimit="8" stroke-opacity="0.501961" fill="none"/><rect x="3758" y="1494" width="500" height="225" stroke="#172C51" stroke-width="27.5" stroke-miterlimit="8" fill="none"/><rect x="3229" y="1153" width="1029" height="225" stroke="#172C51" stroke-width="27.5" stroke-miterlimit="8" fill="none"/><rect x="2673" y="1153" width="501" height="225" stroke="#172C51" stroke-width="27.5" stroke-miterlimit="8" stroke-opacity="0.501961" fill="none"/><rect x="2670" y="830" width="1588" height="226" stroke="#172C51" stroke-width="27.5" stroke-miterlimit="8" fill="none"/><g clip-path="url(#clip25)"><g filter="url(#fx8)" transform="translate(178 1186)"><g><path d="M704.747 25.2227 25.2227 702.986 707.223 704.223C706.398 479.539 705.572 254.854 704.747 25.2227Z" stroke="#FAC200" stroke-width="5" stroke-miterlimit="8" fill="#FAC200" fill-rule="evenodd"/></g></g></g><path d="M873.025 1201.5 193.5 1879.26 875.5 1880.5C874.675 1655.82 873.849 1431.13 873.025 1201.5Z" stroke="#FAC200" stroke-width="4.58333" stroke-miterlimit="8" fill="#FAC200" fill-rule="evenodd"/><g clip-path="url(#clip26)"><g filter="url(#fx9)" transform="translate(179 1188)"><g><path d="M22.2227 699.223 703.223 23.1499 23.1505 22.2225 22.2227 699.223Z" stroke="#890C58" stroke-width="5" stroke-miterlimit="8" fill="#890C58" fill-rule="evenodd"/></g></g></g><path d="M191.5 1877.5 872.5 1201.43 192.428 1200.5 191.5 1877.5Z" stroke="#890C58" stroke-width="4.58333" stroke-miterlimit="8" fill="#890C58" fill-rule="evenodd"/><g clip-path="url(#clip27)"><g clip-path="url(#clip28)" filter="url(#fx10)" transform="translate(863 946)"><g><path d="M244.373 38.2228 24.2228 941.223 246.223 714.777 244.373 38.2228Z" stroke="#76B900" stroke-width="5" stroke-miterlimit="8" fill="#76B900" fill-rule="evenodd"/></g></g></g><path d="M1097.65 974.5 877.5 1877.5 1099.5 1651.05 1097.65 974.5Z" stroke="#76B900" stroke-width="4.58333" stroke-miterlimit="8" fill="#76B900" fill-rule="evenodd"/><g clip-path="url(#clip29)"><g filter="url(#fx11)" transform="translate(861 955)"><g><path d="M247.223 27.2227 22.2227 253.758 25.0119 935.223 247.223 27.2227Z" stroke="#008564" stroke-width="5" stroke-miterlimit="8" fill="#008564" fill-rule="evenodd"/></g></g></g><path d="M1098.5 972.5 873.5 1199.04 876.289 1880.5 1098.5 972.5Z" stroke="#008564" stroke-width="4.58333" stroke-miterlimit="8" fill="#008564" fill-rule="evenodd"/><g clip-path="url(#clip30)"><g clip-path="url(#clip31)" filter="url(#fx12)" transform="translate(163 957)"><g><path d="M945.223 24.2227 38.2227 252.295 719.864 253.223 945.223 24.2227Z" stroke="#0071C5" stroke-width="5" stroke-miterlimit="8" fill="#0071C5" fill-rule="evenodd"/></g></g></g><path d="M1098.5 971.5 191.5 1199.57 873.141 1200.5 1098.5 971.5Z" stroke="#0071C5" stroke-width="4.58333" stroke-miterlimit="8" fill="#0071C5" fill-rule="evenodd"/><g clip-path="url(#clip32)"><g filter="url(#fx13)" transform="translate(173 957)"><g><path d="M27.2227 249.223 937.223 22.2226 254.491 25.9287 27.2227 249.223Z" stroke="#5D1682" stroke-width="5" stroke-miterlimit="8" fill="#5D1682" fill-rule="evenodd"/></g></g></g><path d="M190.5 1196.5 1100.5 969.5 417.768 973.206 190.5 1196.5Z" stroke="#5D1682" stroke-width="4.58333" stroke-miterlimit="8" fill="#5D1682" fill-rule="evenodd"/><g clip-path="url(#clip33)" filter="url(#fx14)" transform="translate(395 1503)"><g><path d="M17.2679-11.0486 244.306 343.789 209.77 365.886-17.2679 11.0486ZM267.793 304.424 282.281 441.177 164.186 370.716Z" transform="matrix(1 0 0 -1 37.2227 585.4)"/></g></g><path d="M17.3731-11.116 244.074 343.195 209.328 365.427-17.3731 11.116ZM267.704 303.59 282.281 441.177 163.465 370.286Z" transform="matrix(1 0 0 -1 422.5 2078.68)"/><g clip-path="url(#clip34)" filter="url(#fx15)" transform="translate(1361 721)"><g><path d="M0 0 0.000360892 1392.93" stroke="#000000" stroke-width="23" stroke-miterlimit="8" fill="none" fill-rule="evenodd" transform="matrix(1 0 0 -1 31.2228 1424.16)"/></g></g><path d="M0 0 0.000360892 1392.93" stroke="#000000" stroke-width="22.9167" stroke-miterlimit="8" fill="none" fill-rule="evenodd" transform="matrix(1 0 0 -1 1382.5 2135.43)"/></g></svg>