<svg width="4416" height="1638" xmlns="http://www.w3.org/2000/svg" xmlns:xlink="http://www.w3.org/1999/xlink" xml:space="preserve" overflow="hidden"><defs><filter id="fx0" x="-10%" y="-10%" width="120%" height="120%" filterUnits="userSpaceOnUse" primitiveUnits="userSpaceOnUse"><feComponentTransfer color-interpolation-filters="sRGB"><feFuncR type="discrete" tableValues="0 0"/><feFuncG type="discrete" tableValues="0 0"/><feFuncB type="discrete" tableValues="0 0"/><feFuncA type="linear" slope="0.4" intercept="0"/></feComponentTransfer><feGaussianBlur stdDeviation="6.11111 6.11111"/></filter><filter id="fx1" x="-10%" y="-10%" width="120%" height="120%" filterUnits="userSpaceOnUse" primitiveUnits="userSpaceOnUse"><feComponentTransfer color-interpolation-filters="sRGB"><feFuncR type="discrete" tableValues="0 0"/><feFuncG type="discrete" tableValues="0 0"/><feFuncB type="discrete" tableValues="0 0"/><feFuncA type="linear" slope="0.4" intercept="0"/></feComponentTransfer><feGaussianBlur stdDeviation="6.11111 6.11111"/></filter><filter id="fx2" x="-10%" y="-10%" width="120%" height="120%" filterUnits="userSpaceOnUse" primitiveUnits="userSpaceOnUse"><feComponentTransfer color-interpolation-filters="sRGB"><feFuncR type="discrete" tableValues="0 0"/><feFuncG type="discrete" tableValues="0 0"/><feFuncB type="discrete" tableValues="0 0"/><feFuncA type="linear" slope="0.4" intercept="0"/></feComponentTransfer><feGaussianBlur stdDeviation="6.11111 6.11111"/></filter><filter id="fx3" x="-10%" y="-10%" width="120%" height="120%" filterUnits="userSpaceOnUse" primitiveUnits="userSpaceOnUse"><feComponentTransfer color-interpolation-filters="sRGB"><feFuncR type="discrete" tableValues="0 0"/><feFuncG type="discrete" tableValues="0 0"/><feFuncB type="discrete" tableValues="0 0"/><feFuncA type="linear" slope="0.4" intercept="0"/></feComponentTransfer><feGaussianBlur stdDeviation="6.11111 6.11111"/></filter><filter id="fx4" x="-10%" y="-10%" width="120%" height="120%" filterUnits="userSpaceOnUse" primitiveUnits="userSpaceOnUse"><feComponentTransfer color-interpolation-filters="sRGB"><feFuncR type="discrete" tableValues="0 0"/><feFuncG type="discrete" tableValues="0 0"/><feFuncB type="discrete" tableValues="0 0"/><feFuncA type="linear" slope="0.4" intercept="0"/></feComponentTransfer><feGaussianBlur stdDeviation="6.11111 6.11111"/></filter><filter id="fx5" x="-10%" y="-10%" width="120%" height="120%" filterUnits="userSpaceOnUse" primitiveUnits="userSpaceOnUse"><feComponentTransfer color-interpolation-filters="sRGB"><feFuncR type="discrete" tableValues="0 0"/><feFuncG type="discrete" tableValues="0 0"/><feFuncB type="discrete" tableValues="0 0"/><feFuncA type="linear" slope="0.4" intercept="0"/></feComponentTransfer><feGaussianBlur stdDeviation="6.11111 6.11111"/></filter><filter id="fx6" x="-10%" y="-10%" width="120%" height="120%" filterUnits="userSpaceOnUse" primitiveUnits="userSpaceOnUse"><feComponentTransfer color-interpolation-filters="sRGB"><feFuncR type="discrete" tableValues="0 0"/><feFuncG type="discrete" tableValues="0 0"/><feFuncB type="discrete" tableValues="0 0"/><feFuncA type="linear" slope="0.4" intercept="0"/></feComponentTransfer><feGaussianBlur stdDeviation="6.11111 6.11111"/></filter><filter id="fx7" x="-10%" y="-10%" width="120%" height="120%" filterUnits="userSpaceOnUse" primitiveUnits="userSpaceOnUse"><feComponentTransfer color-interpolation-filters="sRGB"><feFuncR type="discrete" tableValues="0 0"/><feFuncG type="discrete" tableValues="0 0"/><feFuncB type="discrete" tableValues="0 0"/><feFuncA type="linear" slope="0.4" intercept="0"/></feComponentTransfer><feGaussianBlur stdDeviation="6.11111 6.11111"/></filter><filter id="fx8" x="-10%" y="-10%" width="120%" height="120%" filterUnits="userSpaceOnUse" primitiveUnits="userSpaceOnUse"><feComponentTransfer color-interpolation-filters="sRGB"><feFuncR type="discrete" tableValues="0 0"/><feFuncG type="discrete" tableValues="0 0"/><feFuncB type="discrete" tableValues="0 0"/><feFuncA type="linear" slope="0.4" intercept="0"/></feComponentTransfer><feGaussianBlur stdDeviation="6.11111 6.11111"/></filter><filter id="fx9" x="-10%" y="-10%" width="120%" height="120%" filterUnits="userSpaceOnUse" primitiveUnits="userSpaceOnUse"><feComponentTransfer color-interpolation-filters="sRGB"><feFuncR type="discrete" tableValues="0 0"/><feFuncG type="discrete" tableValues="0 0"/><feFuncB type="discrete" tableValues="0 0"/><feFuncA type="linear" slope="0.4" intercept="0"/></feComponentTransfer><feGaussianBlur stdDeviation="6.11111 6.11111"/></filter><filter id="fx10" x="-10%" y="-10%" width="120%" height="120%" filterUnits="userSpaceOnUse" primitiveUnits="userSpaceOnUse"><feComponentTransfer color-interpolation-filters="sRGB"><feFuncR type="discrete" tableValues="0 0"/><feFuncG type="discrete" tableValues="0 0"/><feFuncB type="discrete" tableValues="0 0"/><feFuncA type="linear" slope="0.4" intercept="0"/></feComponentTransfer><feGaussianBlur stdDeviation="6.11111 6.11111"/></filter><filter id="fx11" x="-10%" y="-10%" width="120%" height="120%" filterUnits="userSpaceOnUse" primitiveUnits="userSpaceOnUse"><feComponentTransfer color-interpolation-filters="sRGB"><feFuncR type="discrete" tableValues="0 0"/><feFuncG type="discrete" tableValues="0 0"/><feFuncB type="discrete" tableValues="0 0"/><feFuncA type="linear" slope="0.4" intercept="0"/></feComponentTransfer><feGaussianBlur stdDeviation="6.11111 6.11111"/></filter><filter id="fx12" x="-10%" y="-10%" width="120%" height="120%" filterUnits="userSpaceOnUse" primitiveUnits="userSpaceOnUse"><feComponentTransfer color-interpolation-filters="sRGB"><feFuncR type="discrete" tableValues="0 0"/><feFuncG type="discrete" tableValues="0 0"/><feFuncB type="discrete" tableValues="0 0"/><feFuncA type="linear" slope="0.4" intercept="0"/></feComponentTransfer><feGaussianBlur stdDeviation="6.11111 6.11111"/></filter><filter id="fx13" x="-10%" y="-10%" width="120%" height="120%" filterUnits="userSpaceOnUse" primitiveUnits="userSpaceOnUse"><feComponentTransfer color-interpolation-filters="sRGB"><feFuncR type="discrete" tableValues="0 0"/><feFuncG type="discrete" tableValues="0 0"/><feFuncB type="discrete" tableValues="0 0"/><feFuncA type="linear" slope="0.4" intercept="0"/></feComponentTransfer><feGaussianBlur stdDeviation="6.11111 6.11111"/></filter><filter id="fx14" x="-10%" y="-10%" width="120%" height="120%" filterUnits="userSpaceOnUse" primitiveUnits="userSpaceOnUse"><feComponentTransfer color-interpolation-filters="sRGB"><feFuncR type="discrete" tableValues="0 0"/><feFuncG type="discrete" tableValues="0 0"/><feFuncB type="discrete" tableValues="0 0"/><feFuncA type="linear" slope="0.4" intercept="0"/></feComponentTransfer><feGaussianBlur stdDeviation="6.11111 6.11111"/></filter><filter id="fx15" x="-10%" y="-10%" width="120%" height="120%" filterUnits="userSpaceOnUse" primitiveUnits="userSpaceOnUse"><feComponentTransfer color-interpolation-filters="sRGB"><feFuncR type="discrete" tableValues="0 0"/><feFuncG type="discrete" tableValues="0 0"/><feFuncB type="discrete" tableValues="0 0"/><feFuncA type="linear" slope="0.4" intercept="0"/></feComponentTransfer><feGaussianBlur stdDeviation="6.11111 6.11111"/></filter><filter id="fx16" x="-10%" y="-10%" width="120%" height="120%" filterUnits="userSpaceOnUse" primitiveUnits="userSpaceOnUse"><feComponentTransfer color-interpolation-filters="sRGB"><feFuncR type="discrete" tableValues="0 0"/><feFuncG type="discrete" tableValues="0 0"/><feFuncB type="discrete" tableValues="0 0"/><feFuncA type="linear" slope="0.4" intercept="0"/></feComponentTransfer><feGaussianBlur stdDeviation="6.11111 6.11111"/></filter><clipPath id="clip17"><rect x="-3" y="159" width="984" height="520"/></clipPath><clipPath id="clip18"><path d="M181 1381.5C132.675 1381.5 93.5 1421.35 93.5 1470.5 93.5 1519.65 132.675 1559.5 181 1559.5 229.325 1559.5 268.5 1519.65 268.5 1470.5 268.5 1421.35 229.325 1381.5 181 1381.5ZM6.58035e-05 430 4416 430 4416 2068 6.58035e-05 2068Z" fill-rule="evenodd" clip-rule="evenodd"/></clipPath><clipPath id="clip19"><rect x="11" y="-3" width="750" height="420"/></clipPath><clipPath id="clip20"><rect x="4" y="-3" width="272" height="203"/></clipPath><clipPath id="clip21"><rect x="77" y="73" width="175" height="131"/></clipPath><clipPath id="clip22"><rect x="77" y="73" width="175" height="131"/></clipPath><clipPath id="clip23"><rect x="77" y="73" width="175" height="131"/></clipPath><clipPath id="clip24"><rect x="83" y="73" width="262" height="131"/></clipPath><clipPath id="clip25"><rect x="83" y="73" width="258" height="152"/></clipPath><clipPath id="clip26"><rect x="83" y="66" width="1212" height="159"/></clipPath><clipPath id="clip27"><rect x="28" y="-3" width="1005" height="97"/></clipPath><clipPath id="clip28"><rect x="22" y="-3" width="1190" height="97"/></clipPath><clipPath id="clip29"><rect x="22" y="-3" width="354" height="97"/></clipPath><clipPath id="clip30"><rect x="83" y="73" width="1136" height="152"/></clipPath></defs><g transform="matrix(1 0 0 1 0 -430)"><g clip-path="url(#clip17)" filter="url(#fx0)" transform="translate(797 543)"><g><path d="M11.898-24.7929 61.4838-0.996782 37.6877 48.589-11.898 24.7929ZM111.07 22.7993 160.655 46.5954 136.859 96.1811 87.2734 72.385ZM210.241 70.3915 259.827 94.1876 236.031 143.773 186.445 119.977ZM309.413 117.984 358.998 141.78 335.202 191.366 285.616 167.569ZM408.584 165.576 458.17 189.372 434.374 238.958 384.788 215.162ZM507.756 213.168 557.341 236.964 533.545 286.55 483.96 262.754ZM606.927 260.76 656.513 284.556 632.717 334.142 583.131 310.346ZM706.099 308.352 755.684 332.148 731.888 381.734 682.302 357.938ZM805.27 355.945 812.646 359.484 788.85 409.07 781.474 405.53ZM811.649 298.001 924.712 443.767 740.261 446.758Z" transform="matrix(1 0 0 -1 32.2227 629.99)"/></g></g><path d="M11.898-24.7929 61.4838-0.996782 37.6877 48.589-11.898 24.7929ZM111.07 22.7993 160.655 46.5954 136.859 96.1811 87.2734 72.385ZM210.241 70.3915 259.827 94.1876 236.031 143.773 186.445 119.977ZM309.413 117.984 358.998 141.78 335.202 191.366 285.616 167.569ZM408.584 165.576 458.17 189.372 434.374 238.958 384.788 215.162ZM507.756 213.168 557.341 236.964 533.545 286.55 483.96 262.754ZM606.927 260.76 656.513 284.556 632.717 334.142 583.131 310.346ZM706.099 308.352 755.684 332.148 731.888 381.734 682.302 357.938ZM805.27 355.945 812.646 359.484 788.85 409.07 781.474 405.53ZM811.649 298.001 924.712 443.767 740.261 446.758Z" transform="matrix(1 0 0 -1 819.5 1163.27)"/><g filter="url(#fx1)" transform="translate(562 580)"><g><path d="M659.286 20.4921 20.3464 448.753 623.983 1325.01 659.286 20.4921Z" fill="#7F7F7F" fill-rule="evenodd"/></g></g><path d="M1211.56 590.769 572.624 1019.03 1176.26 1895.29 1211.56 590.769Z" fill="#7F7F7F" fill-rule="evenodd"/><g clip-path="url(#clip18)"><g filter="url(#fx2)" transform="translate(81 1369)"><g><path d="M22.2227 111.223C22.2227 62.0695 61.3978 22.2228 109.723 22.2228 158.048 22.2228 197.223 62.0695 197.223 111.223 197.223 160.376 158.048 200.223 109.723 200.223 61.3978 200.223 22.2227 160.376 22.2227 111.223Z" stroke="#000000" stroke-width="5" stroke-miterlimit="8" fill-rule="evenodd"/></g></g></g><path d="M93.5 1470.5C93.5 1421.35 132.675 1381.5 181 1381.5 229.325 1381.5 268.5 1421.35 268.5 1470.5 268.5 1519.65 229.325 1559.5 181 1559.5 132.675 1559.5 93.5 1519.65 93.5 1470.5Z" stroke="#000000" stroke-width="4.58333" stroke-miterlimit="8" fill-rule="evenodd"/><g clip-path="url(#clip19)" filter="url(#fx3)" transform="translate(103 1136)"><g><path d="M0 0 679.896 323.55" stroke="#000000" stroke-width="55" stroke-miterlimit="8" fill="none" fill-rule="evenodd" transform="matrix(-1 0 0 1 727.118 45.2227)"/></g></g><path d="M0 0 679.896 323.55" stroke="#000000" stroke-width="55" stroke-miterlimit="8" fill="none" fill-rule="evenodd" transform="matrix(-1 0 0 1 820.396 1171.5)"/><g filter="url(#fx4)" transform="translate(791 571)"><g><path d="M0 0 392.677 571.591" stroke="#00B050" stroke-width="37" stroke-miterlimit="8" stroke-dasharray="36.6667 36.6667" fill="none" fill-rule="evenodd" transform="matrix(-1 0 0 1 430.899 30.2228)"/></g></g><path d="M0 0 392.677 571.591" stroke="#00B050" stroke-width="36.6667" stroke-miterlimit="8" stroke-dasharray="36.6667 36.6667" fill="none" fill-rule="evenodd" transform="matrix(-1 0 0 1 1212.18 591.5)"/><g filter="url(#fx5)" transform="translate(797 1144)"><g><path d="M36.2228 28.2228 389.409 761.153" stroke="#002060" stroke-width="37" stroke-miterlimit="8" stroke-dasharray="36.6667 36.6667" fill="none" fill-rule="evenodd"/></g></g><path d="M823.5 1162.5 1176.69 1895.43" stroke="#002060" stroke-width="36.6667" stroke-miterlimit="8" stroke-dasharray="36.6667 36.6667" fill="none" fill-rule="evenodd"/><g clip-path="url(#clip20)" filter="url(#fx6)" transform="translate(545 991)"><g><path d="M242.09 161.168 38.2226 38.2228" stroke="#FF0000" stroke-width="37" stroke-miterlimit="8" stroke-dasharray="36.6667 36.6667" fill="none" fill-rule="evenodd"/></g></g><path d="M777.367 1142.45 573.5 1019.5" stroke="#FF0000" stroke-width="36.6667" stroke-miterlimit="8" stroke-dasharray="36.6667 36.6667" fill="none" fill-rule="evenodd"/><g clip-path="url(#clip21)" filter="url(#fx7)" transform="translate(1157 1759)"><g><path d="M43.4375-1.875C43.2708-1.41667 43.0417-1.04167 42.75-0.75 42.4583-0.458333 42.0521-0.229167 41.5312-0.0625 41.0104 0.104167 40.3437 0.21875 39.5312 0.28125 38.7187 0.34375 37.7083 0.375 36.5 0.375 35.5833 0.375 34.7812 0.364583 34.0937 0.34375 33.4062 0.322917 32.8125 0.270833 32.3125 0.1875 31.8125 0.104167 31.3854 0.0104167 31.0312-0.09375 30.6771-0.197917 30.375-0.333333 30.125-0.5 29.875-0.666667 29.6771-0.864583 29.5312-1.09375 29.3854-1.32292 29.25-1.60417 29.125-1.9375L2.6875-77.0625C2.35417-77.9792 2.17708-78.7187 2.15625-79.2812 2.13542-79.8437 2.3125-80.2708 2.6875-80.5625 3.0625-80.8542 3.66667-81.0417 4.5-81.125 5.33333-81.2083 6.45833-81.25 7.875-81.25 9.04167-81.25 9.96875-81.2187 10.6562-81.1562 11.3437-81.0937 11.875-80.9792 12.25-80.8125 12.625-80.6458 12.9062-80.4271 13.0937-80.1562 13.2812-79.8854 13.4583-79.5417 13.625-79.125L36.8125-11.0625 36.875-11.0625 59.4375-79C59.5625-79.4583 59.7083-79.8333 59.875-80.125 60.0417-80.4167 60.3333-80.6458 60.75-80.8125 61.1667-80.9792 61.75-81.0937 62.5-81.1562 63.25-81.2187 64.25-81.25 65.5-81.25 66.7917-81.25 67.8125-81.1979 68.5625-81.0937 69.3125-80.9896 69.8229-80.7917 70.0937-80.5 70.3646-80.2083 70.4687-79.7812 70.4062-79.2187 70.3437-78.6562 70.1458-77.9167 69.8125-77ZM130.698-4.25C130.698-3.45833 130.635-2.79167 130.51-2.25 130.385-1.70833 130.219-1.27083 130.01-0.9375 129.802-0.604167 129.562-0.364583 129.292-0.21875 129.021-0.0729167 128.74 0 128.448 0L86.1979 0C85.9062 0 85.6354-0.0729167 85.3854-0.21875 85.1354-0.364583 84.8958-0.604167 84.6667-0.9375 84.4375-1.27083 84.2604-1.70833 84.1354-2.25 84.0104-2.79167 83.9479-3.45833 83.9479-4.25 83.9479-5 84.0104-5.64583 84.1354-6.1875 84.2604-6.72917 84.4167-7.17708 84.6042-7.53125 84.7917-7.88542 85.0208-8.15625 85.2917-8.34375 85.5625-8.53125 85.8646-8.625 86.1979-8.625L103.073-8.625 103.073-70.125 87.4479-60.8125C86.6562-60.3958 86.0208-60.1458 85.5417-60.0625 85.0625-59.9792 84.6771-60.0729 84.3854-60.3437 84.0937-60.6146 83.8958-61.0625 83.7917-61.6875 83.6875-62.3125 83.6354-63.1042 83.6354-64.0625 83.6354-64.7708 83.6667-65.375 83.7292-65.875 83.7917-66.375 83.8854-66.7917 84.0104-67.125 84.1354-67.4583 84.3125-67.75 84.5417-68 84.7708-68.25 85.0729-68.5 85.4479-68.75L104.073-80.6875C104.24-80.8125 104.448-80.9167 104.698-81 104.948-81.0833 105.26-81.1667 105.635-81.25 106.01-81.3333 106.448-81.3854 106.948-81.4062 107.448-81.4271 108.073-81.4375 108.823-81.4375 109.823-81.4375 110.656-81.3958 111.323-81.3125 111.99-81.2292 112.51-81.1146 112.885-80.9687 113.26-80.8229 113.51-80.6354 113.635-80.4062 113.76-80.1771 113.823-79.9375 113.823-79.6875L113.823-8.625 128.448-8.625C128.781-8.625 129.094-8.53125 129.385-8.34375 129.677-8.15625 129.917-7.88542 130.104-7.53125 130.292-7.17708 130.437-6.72917 130.542-6.1875 130.646-5.64583 130.698-5 130.698-4.25Z" transform="matrix(1 0 0 1 96.8071 179)"/></g></g><text font-family="Calibri,Calibri_MSFontService,sans-serif" font-weight="400" font-size="128" transform="matrix(1 0 0 1 1244.08 1928)">V1</text><g clip-path="url(#clip22)" filter="url(#fx8)" transform="translate(1220 489)"><g><path d="M43.4375-1.875C43.2708-1.41667 43.0417-1.04167 42.75-0.75 42.4583-0.458333 42.0521-0.229167 41.5312-0.0625 41.0104 0.104167 40.3437 0.21875 39.5312 0.28125 38.7187 0.34375 37.7083 0.375 36.5 0.375 35.5833 0.375 34.7812 0.364583 34.0937 0.34375 33.4062 0.322917 32.8125 0.270833 32.3125 0.1875 31.8125 0.104167 31.3854 0.0104167 31.0312-0.09375 30.6771-0.197917 30.375-0.333333 30.125-0.5 29.875-0.666667 29.6771-0.864583 29.5312-1.09375 29.3854-1.32292 29.25-1.60417 29.125-1.9375L2.6875-77.0625C2.35417-77.9792 2.17708-78.7187 2.15625-79.2812 2.13542-79.8437 2.3125-80.2708 2.6875-80.5625 3.0625-80.8542 3.66667-81.0417 4.5-81.125 5.33333-81.2083 6.45833-81.25 7.875-81.25 9.04167-81.25 9.96875-81.2187 10.6562-81.1562 11.3437-81.0937 11.875-80.9792 12.25-80.8125 12.625-80.6458 12.9062-80.4271 13.0937-80.1562 13.2812-79.8854 13.4583-79.5417 13.625-79.125L36.8125-11.0625 36.875-11.0625 59.4375-79C59.5625-79.4583 59.7083-79.8333 59.875-80.125 60.0417-80.4167 60.3333-80.6458 60.75-80.8125 61.1667-80.9792 61.75-81.0937 62.5-81.1562 63.25-81.2187 64.25-81.25 65.5-81.25 66.7917-81.25 67.8125-81.1979 68.5625-81.0937 69.3125-80.9896 69.8229-80.7917 70.0937-80.5 70.3646-80.2083 70.4687-79.7812 70.4062-79.2187 70.3437-78.6562 70.1458-77.9167 69.8125-77ZM130.51-4.625C130.51-3.875 130.458-3.20833 130.354-2.625 130.25-2.04167 130.104-1.55208 129.917-1.15625 129.729-0.760417 129.479-0.46875 129.167-0.28125 128.854-0.09375 128.51 0 128.135 0L83.4479 0C82.8646 0 82.3542-0.0729167 81.9167-0.21875 81.4792-0.364583 81.1042-0.604167 80.7917-0.9375 80.4792-1.27083 80.25-1.75 80.1042-2.375 79.9583-3 79.8854-3.77083 79.8854-4.6875 79.8854-5.52083 79.9176-6.25 79.9821-6.875 80.0465-7.5 80.186-8.05208 80.4006-8.53125 80.6151-9.01042 80.8835-9.48958 81.2057-9.96875 81.528-10.4479 81.9466-10.9583 82.4616-11.5L98.6266-28.125C102.362-31.9583 105.357-35.3958 107.611-38.4375 109.866-41.4792 111.605-44.25 112.828-46.75 114.052-49.25 114.857-51.5208 115.243-53.5625 115.63-55.6042 115.823-57.5208 115.823-59.3125 115.823-61.1042 115.522-62.8021 114.92-64.4062 114.318-66.0104 113.448-67.4167 112.308-68.625 111.169-69.8333 109.739-70.7917 108.02-71.5 106.3-72.2083 104.322-72.5625 102.087-72.5625 99.4642-72.5625 97.1104-72.2083 95.0251-71.5 92.9398-70.7917 91.1125-70.0208 89.5431-69.1875 87.9738-68.3542 86.6626-67.5833 85.6095-66.875 84.5565-66.1667 83.7718-65.8125 83.2555-65.8125 82.9548-65.8125 82.686-65.8958 82.4494-66.0625 82.2127-66.2292 82.0192-66.5 81.8688-66.875 81.7184-67.25 81.6003-67.75 81.5143-68.375 81.4284-69 81.3854-69.75 81.3854-70.625 81.3854-71.25 81.4062-71.7917 81.4479-72.25 81.4896-72.7083 81.5625-73.1042 81.6667-73.4375 81.7708-73.7708 81.9062-74.0833 82.0729-74.375 82.2396-74.6667 82.5729-75.0312 83.0729-75.4687 83.5729-75.9062 84.4375-76.5 85.6667-77.25 86.8958-78 88.4375-78.7396 90.2917-79.4687 92.1458-80.1979 94.1875-80.8125 96.4167-81.3125 98.6458-81.8125 100.99-82.0625 103.448-82.0625 107.365-82.0625 110.792-81.5104 113.729-80.4062 116.667-79.3021 119.104-77.7917 121.042-75.875 122.979-73.9583 124.427-71.7292 125.385-69.1875 126.344-66.6458 126.823-63.9375 126.823-61.0625 126.823-58.4792 126.594-55.9062 126.135-53.3437 125.677-50.7812 124.708-48.0104 123.229-45.0312 121.75-42.0521 119.615-38.7396 116.823-35.0937 114.031-31.4479 110.323-27.25 105.698-22.5L92.8854-9.125 128.073-9.125C128.406-9.125 128.729-9.03125 129.042-8.84375 129.354-8.65625 129.625-8.375 129.854-8 130.083-7.625 130.25-7.15625 130.354-6.59375 130.458-6.03125 130.51-5.375 130.51-4.625Z" transform="matrix(1 0 0 1 97.3949 179)"/></g></g><text font-family="Calibri,Calibri_MSFontService,sans-serif" font-weight="400" font-size="128" transform="matrix(1 0 0 1 1307.67 658)">V2</text><g clip-path="url(#clip23)" filter="url(#fx9)" transform="translate(286 811)"><g><path d="M43.4375-1.875C43.2708-1.41667 43.0417-1.04167 42.75-0.75 42.4583-0.458333 42.0521-0.229167 41.5312-0.0625 41.0104 0.104167 40.3437 0.21875 39.5312 0.28125 38.7187 0.34375 37.7083 0.375 36.5 0.375 35.5833 0.375 34.7812 0.364583 34.0937 0.34375 33.4062 0.322917 32.8125 0.270833 32.3125 0.1875 31.8125 0.104167 31.3854 0.0104167 31.0312-0.09375 30.6771-0.197917 30.375-0.333333 30.125-0.5 29.875-0.666667 29.6771-0.864583 29.5312-1.09375 29.3854-1.32292 29.25-1.60417 29.125-1.9375L2.6875-77.0625C2.35417-77.9792 2.17708-78.7187 2.15625-79.2812 2.13542-79.8437 2.3125-80.2708 2.6875-80.5625 3.0625-80.8542 3.66667-81.0417 4.5-81.125 5.33333-81.2083 6.45833-81.25 7.875-81.25 9.04167-81.25 9.96875-81.2187 10.6562-81.1562 11.3437-81.0937 11.875-80.9792 12.25-80.8125 12.625-80.6458 12.9062-80.4271 13.0937-80.1562 13.2812-79.8854 13.4583-79.5417 13.625-79.125L36.8125-11.0625 36.875-11.0625 59.4375-79C59.5625-79.4583 59.7083-79.8333 59.875-80.125 60.0417-80.4167 60.3333-80.6458 60.75-80.8125 61.1667-80.9792 61.75-81.0937 62.5-81.1562 63.25-81.2187 64.25-81.25 65.5-81.25 66.7917-81.25 67.8125-81.1979 68.5625-81.0937 69.3125-80.9896 69.8229-80.7917 70.0937-80.5 70.3646-80.2083 70.4687-79.7812 70.4062-79.2187 70.3437-78.6562 70.1458-77.9167 69.8125-77ZM129.885-23.125C129.885-19.4167 129.24-16.0729 127.948-13.0937 126.656-10.1146 124.802-7.5625 122.385-5.4375 119.969-3.3125 116.99-1.67708 113.448-0.53125 109.906 0.614583 105.906 1.1875 101.448 1.1875 98.7396 1.1875 96.2083 0.96875 93.8542 0.53125 91.5 0.09375 89.4062-0.427083 87.5729-1.03125 85.7396-1.63542 84.2188-2.26042 83.0104-2.90625 81.8021-3.55208 81.0417-4.02083 80.7292-4.3125 80.4167-4.60417 80.1771-4.89583 80.0104-5.1875 79.8438-5.47917 79.6979-5.83333 79.5729-6.25 79.4479-6.66667 79.3542-7.17708 79.2917-7.78125 79.2292-8.38542 79.1979-9.125 79.1979-10 79.1979-11.5 79.3475-12.5417 79.6466-13.125 79.9458-13.7083 80.3734-14 80.9294-14 81.3141-14 82.0728-13.6667 83.2052-13 84.3377-12.3333 85.791-11.6146 87.5651-10.8437 89.3392-10.0729 91.4123-9.35417 93.7843-8.6875 96.1564-8.02083 98.7959-7.6875 101.703-7.6875 104.524-7.6875 107.003-8.04167 109.14-8.75 111.277-9.45833 113.072-10.4583 114.526-11.75 115.979-13.0417 117.069-14.5729 117.796-16.3437 118.522-18.1146 118.885-20.0417 118.885-22.125 118.885-24.4167 118.423-26.4792 117.498-28.3125 116.573-30.1458 115.217-31.7292 113.431-33.0625 111.645-34.3958 109.451-35.4167 106.847-36.125 104.244-36.8333 101.285-37.1875 97.9714-37.1875L90.0319-37.1875C89.6875-37.1875 89.354-37.2604 89.0314-37.4062 88.7088-37.5521 88.4292-37.7917 88.1925-38.125 87.9559-38.4583 87.7622-38.8958 87.6115-39.4375 87.4608-39.9792 87.3854-40.6875 87.3854-41.5625 87.3854-42.3542 87.4479-43.0104 87.5729-43.5312 87.6979-44.0521 87.875-44.4687 88.1042-44.7812 88.3333-45.0937 88.5937-45.3229 88.8854-45.4687 89.1771-45.6146 89.5104-45.6875 89.8854-45.6875L96.9479-45.6875C99.6979-45.6875 102.167-46.0417 104.354-46.75 106.542-47.4583 108.396-48.4792 109.917-49.8125 111.437-51.1458 112.604-52.7396 113.417-54.5937 114.229-56.4479 114.635-58.5208 114.635-60.8125 114.635-62.4792 114.365-64.0729 113.823-65.5937 113.281-67.1146 112.469-68.4375 111.385-69.5625 110.302-70.6875 108.917-71.5729 107.229-72.2187 105.542-72.8646 103.594-73.1875 101.385-73.1875 98.9688-73.1875 96.75-72.8229 94.7292-72.0937 92.7083-71.3646 90.9062-70.5833 89.3229-69.75 87.7396-68.9167 86.4271-68.1354 85.3854-67.4062 84.3437-66.6771 83.6146-66.3125 83.1979-66.3125 82.9062-66.3125 82.6458-66.3646 82.4167-66.4687 82.1875-66.5729 82-66.7812 81.8542-67.0937 81.7083-67.4062 81.6042-67.8437 81.5417-68.4062 81.4792-68.9687 81.4479-69.7083 81.4479-70.625 81.4479-71.25 81.4688-71.8021 81.5104-72.2812 81.5521-72.7604 81.6354-73.1771 81.7604-73.5312 81.8854-73.8854 82.0312-74.2083 82.1979-74.5 82.3646-74.7917 82.6458-75.1354 83.0417-75.5312 83.4375-75.9271 84.2396-76.5 85.4479-77.25 86.6562-78 88.1458-78.7396 89.9167-79.4687 91.6875-80.1979 93.7292-80.8125 96.0417-81.3125 98.3542-81.8125 100.844-82.0625 103.51-82.0625 107.26-82.0625 110.552-81.5833 113.385-80.625 116.219-79.6667 118.583-78.3125 120.479-76.5625 122.375-74.8125 123.792-72.7187 124.729-70.2812 125.667-67.8437 126.135-65.1458 126.135-62.1875 126.135-59.6458 125.802-57.2812 125.135-55.0937 124.469-52.9062 123.49-50.9687 122.198-49.2812 120.906-47.5937 119.323-46.1562 117.448-44.9687 115.573-43.7812 113.406-42.9583 110.948-42.5L110.948-42.375C113.74-42.0833 116.292-41.3854 118.604-40.2812 120.917-39.1771 122.906-37.7917 124.573-36.125 126.24-34.4583 127.542-32.5104 128.479-30.2812 129.417-28.0521 129.885-25.6667 129.885-23.125Z" transform="matrix(1 0 0 1 97.4459 178)"/></g></g><text font-family="Calibri,Calibri_MSFontService,sans-serif" font-weight="400" font-size="128" transform="matrix(1 0 0 1 373.723 980)">V3</text><g clip-path="url(#clip24)" filter="url(#fx10)" transform="translate(2112 1178)"><g><path d="M64.0625-23.1875C64.0625-20.6458 63.7396-18.3021 63.0937-16.1562 62.4479-14.0104 61.5417-12.0833 60.375-10.375 59.2083-8.66667 57.8021-7.16667 56.1562-5.875 54.5104-4.58333 52.6562-3.5 50.5937-2.625 48.5312-1.75 46.3229-1.09375 43.9687-0.65625 41.6146-0.21875 38.9167 0 35.875 0L14.75 0C13.7917 0 12.8854-0.322917 12.0312-0.96875 11.1771-1.61458 10.75-2.75 10.75-4.375L10.75-76.5C10.75-78.125 11.1771-79.2604 12.0312-79.9062 12.8854-80.5521 13.7917-80.875 14.75-80.875L33.125-80.875C37.9583-80.875 41.9167-80.4167 45-79.5 48.0833-78.5833 50.6562-77.25 52.7187-75.5 54.7812-73.75 56.3333-71.6042 57.375-69.0625 58.4167-66.5208 58.9375-63.6458 58.9375-60.4375 58.9375-58.5208 58.7083-56.6875 58.25-54.9375 57.7917-53.1875 57.1146-51.5729 56.2187-50.0937 55.3229-48.6146 54.1979-47.2917 52.8437-46.125 51.4896-44.9583 49.9375-44 48.1875-43.25 50.3958-42.8333 52.4583-42.0729 54.375-40.9687 56.2917-39.8646 57.9687-38.4583 59.4062-36.75 60.8437-35.0417 61.9792-33.0417 62.8125-30.75 63.6458-28.4583 64.0625-25.9375 64.0625-23.1875ZM47.875-59.375C47.875-61.3333 47.6048-63.1042 47.0644-64.6875 46.5241-66.2708 45.6719-67.6146 44.5078-68.7187 43.3437-69.8229 41.8265-70.6667 39.9561-71.25 38.0856-71.8333 35.6123-72.125 32.5361-72.125L21.4375-72.125 21.4375-45.9375 33.6582-45.9375C36.4434-45.9375 38.6881-46.3021 40.3926-47.0312 42.097-47.7604 43.5104-48.7396 44.6328-49.9687 45.7552-51.1979 46.5762-52.6354 47.0957-54.2812 47.6152-55.9271 47.875-57.625 47.875-59.375ZM52.75-22.5625C52.75-24.9792 52.3654-27.1042 51.5962-28.9375 50.827-30.7708 49.7043-32.3125 48.228-33.5625 46.7518-34.8125 44.9012-35.7604 42.6763-36.4062 40.4513-37.0521 37.6549-37.375 34.2871-37.375L21.4375-37.375 21.4375-8.875 37.0312-8.875C39.485-8.875 41.6266-9.16667 43.4561-9.75 45.2855-10.3333 46.8968-11.1979 48.29-12.3437 49.6833-13.4896 50.7749-14.9167 51.5649-16.625 52.355-18.3333 52.75-20.3125 52.75-22.5625ZM134.646-11.4375C134.646-10.7708 134.625-10.1875 134.583-9.6875 134.542-9.1875 134.469-8.75 134.365-8.375 134.26-8 134.125-7.66667 133.958-7.375 133.792-7.08333 133.5-6.72917 133.083-6.3125 132.667-5.89583 131.792-5.26042 130.458-4.40625 129.125-3.55208 127.469-2.71875 125.49-1.90625 123.51-1.09375 121.24-0.40625 118.677 0.15625 116.115 0.71875 113.312 1 110.271 1 105.021 1 100.281 0.125 96.0521-1.625 91.8229-3.375 88.2187-5.95833 85.2396-9.375 82.2604-12.7917 79.9687-17.0104 78.3646-22.0312 76.7604-27.0521 75.9583-32.8333 75.9583-39.375 75.9583-46.0833 76.8229-52.0625 78.5521-57.3125 80.2812-62.5625 82.7083-67.0104 85.8333-70.6562 88.9583-74.3021 92.6979-77.0833 97.0521-79 101.406-80.9167 106.229-81.875 111.521-81.875 113.854-81.875 116.125-81.6562 118.333-81.2187 120.542-80.7812 122.583-80.2292 124.458-79.5625 126.333-78.8958 128-78.125 129.458-77.25 130.917-76.375 131.927-75.6562 132.49-75.0937 133.052-74.5312 133.417-74.1042 133.583-73.8125 133.75-73.5208 133.885-73.1771 133.99-72.7812 134.094-72.3854 134.177-71.9167 134.24-71.375 134.302-70.8333 134.333-70.1875 134.333-69.4375 134.333-68.6042 134.291-67.8958 134.208-67.3125 134.124-66.7292 133.999-66.2396 133.831-65.8437 133.663-65.4479 133.464-65.1562 133.234-64.9687 133.003-64.7812 132.72-64.6875 132.385-64.6875 131.799-64.6875 130.982-65.0937 129.935-65.9062 128.887-66.7187 127.536-67.6146 125.882-68.5937 124.227-69.5729 122.216-70.4687 119.85-71.2812 117.483-72.0937 114.645-72.5 111.336-72.5 107.733-72.5 104.455-71.7812 101.502-70.3437 98.5491-68.9062 96.0254-66.7917 93.931-64 91.8366-61.2083 90.2134-57.8021 89.0614-53.7812 87.9093-49.7604 87.3333-45.1667 87.3333-40 87.3333-34.875 87.8883-30.3437 88.9984-26.4062 90.1084-22.4687 91.7002-19.1771 93.7738-16.5312 95.8473-13.8854 98.3921-11.8854 101.408-10.5312 104.424-9.17708 107.838-8.5 111.65-8.5 114.875-8.5 117.692-8.89583 120.1-9.6875 122.509-10.4792 124.561-11.3646 126.258-12.3437 127.954-13.3229 129.347-14.2083 130.436-15 131.525-15.7917 132.384-16.1875 133.012-16.1875 133.306-16.1875 133.557-16.125 133.766-16 133.976-15.875 134.143-15.6354 134.269-15.2812 134.395-14.9271 134.489-14.4375 134.552-13.8125 134.614-13.1875 134.646-12.3958 134.646-11.4375ZM160.948-6.8125C160.948-3.85417 160.458-1.88542 159.479-0.90625 158.5 0.0729166 156.719 0.5625 154.135 0.5625 151.635 0.5625 149.906 0.0833333 148.948-0.875 147.99-1.83333 147.51-3.75 147.51-6.625 147.51-9.58333 148-11.5521 148.979-12.5312 149.958-13.5104 151.74-14 154.323-14 156.823-14 158.552-13.5208 159.51-12.5625 160.469-11.6042 160.948-9.6875 160.948-6.8125ZM222.917-2.75C223.25-2.16667 223.417-1.67708 223.417-1.28125 223.417-0.885417 223.219-0.5625 222.823-0.3125 222.427-0.0625 221.823 0.114583 221.01 0.21875 220.198 0.322917 219.146 0.375 217.854 0.375 216.604 0.375 215.615 0.34375 214.885 0.28125 214.156 0.21875 213.573 0.114583 213.135-0.03125 212.698-0.177083 212.365-0.364583 212.135-0.59375 211.906-0.822917 211.708-1.08333 211.542-1.375L198.042-23.6875 184.604-1.375C184.437-1.08333 184.24-0.822917 184.01-0.59375 183.781-0.364583 183.448-0.177083 183.01-0.03125 182.573 0.114583 182 0.21875 181.292 0.28125 180.583 0.34375 179.646 0.375 178.479 0.375 177.271 0.375 176.281 0.322917 175.51 0.21875 174.74 0.114583 174.177-0.0625 173.823-0.3125 173.469-0.5625 173.302-0.885417 173.323-1.28125 173.344-1.67708 173.542-2.16667 173.917-2.75L191.417-30.1875 174.854-56.625C174.521-57.2083 174.344-57.6979 174.323-58.0937 174.302-58.4896 174.49-58.8229 174.885-59.0937 175.281-59.3646 175.885-59.5417 176.698-59.625 177.51-59.7083 178.583-59.75 179.917-59.75 181.125-59.75 182.094-59.7187 182.823-59.6562 183.552-59.5937 184.125-59.5 184.542-59.375 184.958-59.25 185.271-59.0833 185.479-58.875 185.687-58.6667 185.875-58.4167 186.042-58.125L198.854-37.1875 211.854-58.125C212.021-58.375 212.208-58.6042 212.417-58.8125 212.625-59.0208 212.906-59.1979 213.26-59.3437 213.615-59.4896 214.115-59.5937 214.76-59.6562 215.406-59.7187 216.292-59.75 217.417-59.75 218.625-59.75 219.615-59.7083 220.385-59.625 221.156-59.5417 221.729-59.3854 222.104-59.1562 222.479-58.9271 222.646-58.6042 222.604-58.1875 222.562-57.7708 222.354-57.25 221.979-56.625L205.542-30.5Z" fill="#002060" transform="matrix(1 0 0 1 97.0579 179)"/></g></g><text fill="#002060" font-family="Calibri,Calibri_MSFontService,sans-serif" font-weight="400" font-size="128" transform="matrix(1 0 0 1 2199.34 1347)">BC.x</text><g clip-path="url(#clip25)" filter="url(#fx11)" transform="translate(3194 1160)"><g><path d="M64.0625-23.1875C64.0625-20.6458 63.7396-18.3021 63.0937-16.1562 62.4479-14.0104 61.5417-12.0833 60.375-10.375 59.2083-8.66667 57.8021-7.16667 56.1562-5.875 54.5104-4.58333 52.6562-3.5 50.5937-2.625 48.5312-1.75 46.3229-1.09375 43.9687-0.65625 41.6146-0.21875 38.9167 0 35.875 0L14.75 0C13.7917 0 12.8854-0.322917 12.0312-0.96875 11.1771-1.61458 10.75-2.75 10.75-4.375L10.75-76.5C10.75-78.125 11.1771-79.2604 12.0312-79.9062 12.8854-80.5521 13.7917-80.875 14.75-80.875L33.125-80.875C37.9583-80.875 41.9167-80.4167 45-79.5 48.0833-78.5833 50.6562-77.25 52.7187-75.5 54.7812-73.75 56.3333-71.6042 57.375-69.0625 58.4167-66.5208 58.9375-63.6458 58.9375-60.4375 58.9375-58.5208 58.7083-56.6875 58.25-54.9375 57.7917-53.1875 57.1146-51.5729 56.2187-50.0937 55.3229-48.6146 54.1979-47.2917 52.8437-46.125 51.4896-44.9583 49.9375-44 48.1875-43.25 50.3958-42.8333 52.4583-42.0729 54.375-40.9687 56.2917-39.8646 57.9687-38.4583 59.4062-36.75 60.8437-35.0417 61.9792-33.0417 62.8125-30.75 63.6458-28.4583 64.0625-25.9375 64.0625-23.1875ZM47.875-59.375C47.875-61.3333 47.6048-63.1042 47.0644-64.6875 46.5241-66.2708 45.6719-67.6146 44.5078-68.7187 43.3437-69.8229 41.8265-70.6667 39.9561-71.25 38.0856-71.8333 35.6123-72.125 32.5361-72.125L21.4375-72.125 21.4375-45.9375 33.6582-45.9375C36.4434-45.9375 38.6881-46.3021 40.3926-47.0312 42.097-47.7604 43.5104-48.7396 44.6328-49.9687 45.7552-51.1979 46.5762-52.6354 47.0957-54.2812 47.6152-55.9271 47.875-57.625 47.875-59.375ZM52.75-22.5625C52.75-24.9792 52.3654-27.1042 51.5962-28.9375 50.827-30.7708 49.7043-32.3125 48.228-33.5625 46.7518-34.8125 44.9012-35.7604 42.6763-36.4062 40.4513-37.0521 37.6549-37.375 34.2871-37.375L21.4375-37.375 21.4375-8.875 37.0312-8.875C39.485-8.875 41.6266-9.16667 43.4561-9.75 45.2855-10.3333 46.8968-11.1979 48.29-12.3437 49.6833-13.4896 50.7749-14.9167 51.5649-16.625 52.355-18.3333 52.75-20.3125 52.75-22.5625ZM134.646-11.4375C134.646-10.7708 134.625-10.1875 134.583-9.6875 134.542-9.1875 134.469-8.75 134.365-8.375 134.26-8 134.125-7.66667 133.958-7.375 133.792-7.08333 133.5-6.72917 133.083-6.3125 132.667-5.89583 131.792-5.26042 130.458-4.40625 129.125-3.55208 127.469-2.71875 125.49-1.90625 123.51-1.09375 121.24-0.40625 118.677 0.15625 116.115 0.71875 113.312 1 110.271 1 105.021 1 100.281 0.125 96.0521-1.625 91.8229-3.375 88.2187-5.95833 85.2396-9.375 82.2604-12.7917 79.9687-17.0104 78.3646-22.0312 76.7604-27.0521 75.9583-32.8333 75.9583-39.375 75.9583-46.0833 76.8229-52.0625 78.5521-57.3125 80.2812-62.5625 82.7083-67.0104 85.8333-70.6562 88.9583-74.3021 92.6979-77.0833 97.0521-79 101.406-80.9167 106.229-81.875 111.521-81.875 113.854-81.875 116.125-81.6562 118.333-81.2187 120.542-80.7812 122.583-80.2292 124.458-79.5625 126.333-78.8958 128-78.125 129.458-77.25 130.917-76.375 131.927-75.6562 132.49-75.0937 133.052-74.5312 133.417-74.1042 133.583-73.8125 133.75-73.5208 133.885-73.1771 133.99-72.7812 134.094-72.3854 134.177-71.9167 134.24-71.375 134.302-70.8333 134.333-70.1875 134.333-69.4375 134.333-68.6042 134.291-67.8958 134.208-67.3125 134.124-66.7292 133.999-66.2396 133.831-65.8437 133.663-65.4479 133.464-65.1562 133.234-64.9687 133.003-64.7812 132.72-64.6875 132.385-64.6875 131.799-64.6875 130.982-65.0937 129.935-65.9062 128.887-66.7187 127.536-67.6146 125.882-68.5937 124.227-69.5729 122.216-70.4687 119.85-71.2812 117.483-72.0937 114.645-72.5 111.336-72.5 107.733-72.5 104.455-71.7812 101.502-70.3437 98.5491-68.9062 96.0254-66.7917 93.931-64 91.8366-61.2083 90.2134-57.8021 89.0614-53.7812 87.9093-49.7604 87.3333-45.1667 87.3333-40 87.3333-34.875 87.8883-30.3437 88.9984-26.4062 90.1084-22.4687 91.7002-19.1771 93.7738-16.5312 95.8473-13.8854 98.3921-11.8854 101.408-10.5312 104.424-9.17708 107.838-8.5 111.65-8.5 114.875-8.5 117.692-8.89583 120.1-9.6875 122.509-10.4792 124.561-11.3646 126.258-12.3437 127.954-13.3229 129.347-14.2083 130.436-15 131.525-15.7917 132.384-16.1875 133.012-16.1875 133.306-16.1875 133.557-16.125 133.766-16 133.976-15.875 134.143-15.6354 134.269-15.2812 134.395-14.9271 134.489-14.4375 134.552-13.8125 134.614-13.1875 134.646-12.3958 134.646-11.4375ZM160.948-6.8125C160.948-3.85417 160.458-1.88542 159.479-0.90625 158.5 0.0729166 156.719 0.5625 154.135 0.5625 151.635 0.5625 149.906 0.0833333 148.948-0.875 147.99-1.83333 147.51-3.75 147.51-6.625 147.51-9.58333 148-11.5521 148.979-12.5312 149.958-13.5104 151.74-14 154.323-14 156.823-14 158.552-13.5208 159.51-12.5625 160.469-11.6042 160.948-9.6875 160.948-6.8125ZM201.081 0 193.581 20.6875C193.331 21.3542 192.696 21.8646 191.675 22.2187 190.654 22.5729 189.102 22.75 187.019 22.75 185.935 22.75 185.06 22.6979 184.394 22.5937 183.727 22.4896 183.217 22.3125 182.862 22.0625 182.508 21.8125 182.31 21.4792 182.269 21.0625 182.227 20.6458 182.331 20.1458 182.581 19.5625L190.331 0C189.956-0.166667 189.602-0.4375 189.269-0.8125 188.935-1.1875 188.706-1.58333 188.581-2L168.519-55.75C168.185-56.625 168.019-57.3125 168.019-57.8125 168.019-58.3125 168.185-58.7083 168.519-59 168.852-59.2917 169.394-59.4896 170.144-59.5937 170.894-59.6979 171.894-59.75 173.144-59.75 174.394-59.75 175.373-59.7187 176.081-59.6562 176.79-59.5937 177.352-59.4792 177.769-59.3125 178.185-59.1458 178.487-58.9062 178.675-58.5937 178.862-58.2812 179.06-57.8542 179.269-57.3125L195.331-12.1875 195.519-12.1875 211.019-57.5625C211.269-58.3542 211.571-58.8646 211.925-59.0937 212.279-59.3229 212.81-59.4896 213.519-59.5937 214.227-59.6979 215.248-59.75 216.581-59.75 217.748-59.75 218.706-59.6979 219.456-59.5937 220.206-59.4896 220.758-59.2917 221.112-59 221.467-58.7083 221.644-58.3125 221.644-57.8125 221.644-57.3125 221.519-56.6875 221.269-55.9375Z" fill="#00B050" transform="matrix(1 0 0 1 97.2827 179)"/></g></g><text fill="#00B050" font-family="Calibri,Calibri_MSFontService,sans-serif" font-weight="400" font-size="128" transform="matrix(1 0 0 1 3281.56 1329)">BC.y</text><g clip-path="url(#clip26)" filter="url(#fx12)" transform="translate(3041 773)"><g><path d="M64.0625-23.1875C64.0625-20.6458 63.7396-18.3021 63.0937-16.1562 62.4479-14.0104 61.5417-12.0833 60.375-10.375 59.2083-8.66667 57.8021-7.16667 56.1562-5.875 54.5104-4.58333 52.6562-3.5 50.5937-2.625 48.5312-1.75 46.3229-1.09375 43.9687-0.65625 41.6146-0.21875 38.9167 0 35.875 0L14.75 0C13.7917 0 12.8854-0.322917 12.0312-0.96875 11.1771-1.61458 10.75-2.75 10.75-4.375L10.75-76.5C10.75-78.125 11.1771-79.2604 12.0312-79.9062 12.8854-80.5521 13.7917-80.875 14.75-80.875L33.125-80.875C37.9583-80.875 41.9167-80.4167 45-79.5 48.0833-78.5833 50.6562-77.25 52.7187-75.5 54.7812-73.75 56.3333-71.6042 57.375-69.0625 58.4167-66.5208 58.9375-63.6458 58.9375-60.4375 58.9375-58.5208 58.7083-56.6875 58.25-54.9375 57.7917-53.1875 57.1146-51.5729 56.2187-50.0937 55.3229-48.6146 54.1979-47.2917 52.8437-46.125 51.4896-44.9583 49.9375-44 48.1875-43.25 50.3958-42.8333 52.4583-42.0729 54.375-40.9687 56.2917-39.8646 57.9687-38.4583 59.4062-36.75 60.8437-35.0417 61.9792-33.0417 62.8125-30.75 63.6458-28.4583 64.0625-25.9375 64.0625-23.1875ZM47.875-59.375C47.875-61.3333 47.6048-63.1042 47.0644-64.6875 46.5241-66.2708 45.6719-67.6146 44.5078-68.7187 43.3437-69.8229 41.8265-70.6667 39.9561-71.25 38.0856-71.8333 35.6123-72.125 32.5361-72.125L21.4375-72.125 21.4375-45.9375 33.6582-45.9375C36.4434-45.9375 38.6881-46.3021 40.3926-47.0312 42.097-47.7604 43.5104-48.7396 44.6328-49.9687 45.7552-51.1979 46.5762-52.6354 47.0957-54.2812 47.6152-55.9271 47.875-57.625 47.875-59.375ZM52.75-22.5625C52.75-24.9792 52.3654-27.1042 51.5962-28.9375 50.827-30.7708 49.7043-32.3125 48.228-33.5625 46.7518-34.8125 44.9012-35.7604 42.6763-36.4062 40.4513-37.0521 37.6549-37.375 34.2871-37.375L21.4375-37.375 21.4375-8.875 37.0312-8.875C39.485-8.875 41.6266-9.16667 43.4561-9.75 45.2855-10.3333 46.8968-11.1979 48.29-12.3437 49.6833-13.4896 50.7749-14.9167 51.5649-16.625 52.355-18.3333 52.75-20.3125 52.75-22.5625ZM134.646-11.4375C134.646-10.7708 134.625-10.1875 134.583-9.6875 134.542-9.1875 134.469-8.75 134.365-8.375 134.26-8 134.125-7.66667 133.958-7.375 133.792-7.08333 133.5-6.72917 133.083-6.3125 132.667-5.89583 131.792-5.26042 130.458-4.40625 129.125-3.55208 127.469-2.71875 125.49-1.90625 123.51-1.09375 121.24-0.40625 118.677 0.15625 116.115 0.71875 113.312 1 110.271 1 105.021 1 100.281 0.125 96.0521-1.625 91.8229-3.375 88.2187-5.95833 85.2396-9.375 82.2604-12.7917 79.9687-17.0104 78.3646-22.0312 76.7604-27.0521 75.9583-32.8333 75.9583-39.375 75.9583-46.0833 76.8229-52.0625 78.5521-57.3125 80.2812-62.5625 82.7083-67.0104 85.8333-70.6562 88.9583-74.3021 92.6979-77.0833 97.0521-79 101.406-80.9167 106.229-81.875 111.521-81.875 113.854-81.875 116.125-81.6562 118.333-81.2187 120.542-80.7812 122.583-80.2292 124.458-79.5625 126.333-78.8958 128-78.125 129.458-77.25 130.917-76.375 131.927-75.6562 132.49-75.0937 133.052-74.5312 133.417-74.1042 133.583-73.8125 133.75-73.5208 133.885-73.1771 133.99-72.7812 134.094-72.3854 134.177-71.9167 134.24-71.375 134.302-70.8333 134.333-70.1875 134.333-69.4375 134.333-68.6042 134.291-67.8958 134.208-67.3125 134.124-66.7292 133.999-66.2396 133.831-65.8437 133.663-65.4479 133.464-65.1562 133.234-64.9687 133.003-64.7812 132.72-64.6875 132.385-64.6875 131.799-64.6875 130.982-65.0937 129.935-65.9062 128.887-66.7187 127.536-67.6146 125.882-68.5937 124.227-69.5729 122.216-70.4687 119.85-71.2812 117.483-72.0937 114.645-72.5 111.336-72.5 107.733-72.5 104.455-71.7812 101.502-70.3437 98.5491-68.9062 96.0254-66.7917 93.931-64 91.8366-61.2083 90.2134-57.8021 89.0614-53.7812 87.9093-49.7604 87.3333-45.1667 87.3333-40 87.3333-34.875 87.8883-30.3437 88.9984-26.4062 90.1084-22.4687 91.7002-19.1771 93.7738-16.5312 95.8473-13.8854 98.3921-11.8854 101.408-10.5312 104.424-9.17708 107.838-8.5 111.65-8.5 114.875-8.5 117.692-8.89583 120.1-9.6875 122.509-10.4792 124.561-11.3646 126.258-12.3437 127.954-13.3229 129.347-14.2083 130.436-15 131.525-15.7917 132.384-16.1875 133.012-16.1875 133.306-16.1875 133.557-16.125 133.766-16 133.976-15.875 134.143-15.6354 134.269-15.2812 134.395-14.9271 134.489-14.4375 134.552-13.8125 134.614-13.1875 134.646-12.3958 134.646-11.4375ZM160.948-6.8125C160.948-3.85417 160.458-1.88542 159.479-0.90625 158.5 0.0729166 156.719 0.5625 154.135 0.5625 151.635 0.5625 149.906 0.0833333 148.948-0.875 147.99-1.83333 147.51-3.75 147.51-6.625 147.51-9.58333 148-11.5521 148.979-12.5312 149.958-13.5104 151.74-14 154.323-14 156.823-14 158.552-13.5208 159.51-12.5625 160.469-11.6042 160.948-9.6875 160.948-6.8125ZM216.785-4.375C216.785-3.58333 216.723-2.90625 216.598-2.34375 216.473-1.78125 216.327-1.32292 216.16-0.96875 215.994-0.614583 215.765-0.364583 215.473-0.21875 215.181-0.0729167 214.869 0 214.535 0L179.91 0C179.035 0 178.317-0.291667 177.754-0.875 177.192-1.45833 176.91-2.4375 176.91-3.8125L176.91-5.9375C176.91-6.52083 176.952-7.04167 177.035-7.5 177.119-7.95833 177.244-8.41667 177.41-8.875 177.577-9.33333 177.806-9.82292 178.098-10.3437 178.39-10.8646 178.744-11.4583 179.16-12.125L203.973-50.75 179.91-50.75C179.244-50.75 178.712-51.0937 178.317-51.7812 177.921-52.4687 177.723-53.5833 177.723-55.125 177.723-55.875 177.765-56.5312 177.848-57.0937 177.931-57.6562 178.067-58.1146 178.254-58.4687 178.442-58.8229 178.671-59.0729 178.942-59.2187 179.212-59.3646 179.535-59.4375 179.91-59.4375L212.16-59.4375C212.619-59.4375 213.025-59.375 213.379-59.25 213.733-59.125 214.035-58.9167 214.285-58.625 214.535-58.3333 214.733-57.9583 214.879-57.5 215.025-57.0417 215.098-56.4583 215.098-55.75L215.098-53.75C215.098-53.1667 215.056-52.625 214.973-52.125 214.89-51.625 214.765-51.1354 214.598-50.6562 214.431-50.1771 214.202-49.6667 213.91-49.125 213.619-48.5833 213.265-47.9792 212.848-47.3125L188.16-8.6875 214.535-8.6875C214.869-8.6875 215.171-8.61458 215.442-8.46875 215.712-8.32292 215.942-8.08333 216.129-7.75 216.317-7.41667 216.473-6.96875 216.598-6.40625 216.723-5.84375 216.785-5.16667 216.785-4.375Z" fill="#FF0000" transform="matrix(1 0 0 1 96.7725 178)"/><path d="M57.8125-48.1875C57.8125-46.5208 57.5729-45.3646 57.0937-44.7187 56.6146-44.0729 56.0625-43.75 55.4375-43.75L8.1875-43.75C7.5625-43.75 7.02083-44.0729 6.5625-44.7187 6.10417-45.3646 5.875-46.5208 5.875-48.1875 5.875-49.6875 6.08333-50.7917 6.5-51.5 6.91667-52.2083 7.47917-52.5625 8.1875-52.5625L55.4375-52.5625C56.1875-52.5625 56.7708-52.2083 57.1875-51.5 57.6042-50.7917 57.8125-49.6875 57.8125-48.1875ZM57.8125-23.875C57.8125-22.2083 57.5729-21.0625 57.0937-20.4375 56.6146-19.8125 56.0625-19.5 55.4375-19.5L8.1875-19.5C7.5625-19.5 7.02083-19.8125 6.5625-20.4375 6.10417-21.0625 5.875-22.2083 5.875-23.875 5.875-25.4167 6.08333-26.5417 6.5-27.25 6.91667-27.9583 7.47917-28.3125 8.1875-28.3125L55.4375-28.3125C56.1875-28.3125 56.7708-27.9583 57.1875-27.25 57.6042-26.5417 57.8125-25.4167 57.8125-23.875ZM151.323-4.25C151.323-3.45833 151.26-2.79167 151.135-2.25 151.01-1.70833 150.844-1.27083 150.635-0.9375 150.427-0.604167 150.187-0.364583 149.917-0.21875 149.646-0.0729167 149.365 0 149.073 0L106.823 0C106.531 0 106.26-0.0729167 106.01-0.21875 105.76-0.364583 105.521-0.604167 105.292-0.9375 105.062-1.27083 104.885-1.70833 104.76-2.25 104.635-2.79167 104.573-3.45833 104.573-4.25 104.573-5 104.635-5.64583 104.76-6.1875 104.885-6.72917 105.042-7.17708 105.229-7.53125 105.417-7.88542 105.646-8.15625 105.917-8.34375 106.187-8.53125 106.49-8.625 106.823-8.625L123.698-8.625 123.698-70.125 108.073-60.8125C107.281-60.3958 106.646-60.1458 106.167-60.0625 105.688-59.9792 105.302-60.0729 105.01-60.3437 104.719-60.6146 104.521-61.0625 104.417-61.6875 104.312-62.3125 104.26-63.1042 104.26-64.0625 104.26-64.7708 104.292-65.375 104.354-65.875 104.417-66.375 104.51-66.7917 104.635-67.125 104.76-67.4583 104.937-67.75 105.167-68 105.396-68.25 105.698-68.5 106.073-68.75L124.698-80.6875C124.865-80.8125 125.073-80.9167 125.323-81 125.573-81.0833 125.885-81.1667 126.26-81.25 126.635-81.3333 127.073-81.3854 127.573-81.4062 128.073-81.4271 128.698-81.4375 129.448-81.4375 130.448-81.4375 131.281-81.3958 131.948-81.3125 132.615-81.2292 133.135-81.1146 133.51-80.9687 133.885-80.8229 134.135-80.6354 134.26-80.4062 134.385-80.1771 134.448-79.9375 134.448-79.6875L134.448-8.625 149.073-8.625C149.406-8.625 149.719-8.53125 150.01-8.34375 150.302-8.15625 150.542-7.88542 150.729-7.53125 150.917-7.17708 151.062-6.72917 151.167-6.1875 151.271-5.64583 151.323-5 151.323-4.25Z" transform="matrix(1 0 0 1 347.756 178)"/><path d="M64.125-35.375C64.125-33.7917 63.9271-32.6354 63.5312-31.9062 63.1354-31.1771 62.5417-30.8125 61.75-30.8125L1.6875-30.8125C0.895833-30.8125 0.3125-31.1771-0.0625-31.9062-0.4375-32.6354-0.625-33.7917-0.625-35.375-0.625-36.9167-0.4375-38.0521-0.0625-38.7812 0.3125-39.5104 0.895833-39.875 1.6875-39.875L61.75-39.875C62.125-39.875 62.4687-39.7812 62.7812-39.5937 63.0937-39.4062 63.3437-39.1354 63.5312-38.7812 63.7187-38.4271 63.8646-37.9687 63.9687-37.4062 64.0729-36.8437 64.125-36.1667 64.125-35.375Z" transform="matrix(1 0 0 1 535.672 178)"/><path d="M30.9375-86.125C26.9792-77.75 24.0312-69.1562 22.0937-60.3437 20.1562-51.5312 19.1875-42.6667 19.1875-33.75 19.1875-24.7917 20.1771-15.9167 22.1562-7.125 24.1354 1.66667 27.0208 10.2917 30.8125 18.75 31.0208 19.25 31.1354 19.6771 31.1562 20.0312 31.1771 20.3854 31.0417 20.6771 30.75 20.9062 30.4583 21.1354 30.0104 21.3021 29.4062 21.4062 28.8021 21.5104 27.9792 21.5625 26.9375 21.5625 26.1875 21.5625 25.5417 21.5417 25 21.5 24.4583 21.4583 23.9896 21.375 23.5937 21.25 23.1979 21.125 22.875 20.9792 22.625 20.8125 22.375 20.6458 22.1875 20.4583 22.0625 20.25 19.8125 16 17.8333 11.6979 16.125 7.34375 14.4167 2.98958 12.9792-1.4375 11.8125-5.9375 10.6458-10.4375 9.77083-14.9896 9.1875-19.5937 8.60417-24.1979 8.3125-28.8542 8.3125-33.5625 8.3125-38.2708 8.63542-42.9167 9.28125-47.5 9.92708-52.0833 10.8437-56.6354 12.0312-61.1562 13.2187-65.6771 14.6667-70.125 16.375-74.5 18.0833-78.875 20-83.2083 22.125-87.5 22.1667-87.6667 22.2812-87.8125 22.4687-87.9375 22.6562-88.0625 22.9167-88.1875 23.25-88.3125 23.5833-88.4375 24.0417-88.5312 24.625-88.5937 25.2083-88.6562 25.9583-88.6875 26.875-88.6875 27.8333-88.6875 28.6042-88.625 29.1875-88.5 29.7708-88.375 30.2292-88.2083 30.5625-88 30.8958-87.7917 31.0833-87.5208 31.125-87.1875 31.1667-86.8542 31.1042-86.5 30.9375-86.125Z" transform="matrix(1 0 0 1 629.058 178)"/><path d="M64.0625-23.1875C64.0625-20.6458 63.7396-18.3021 63.0937-16.1562 62.4479-14.0104 61.5417-12.0833 60.375-10.375 59.2083-8.66667 57.8021-7.16667 56.1562-5.875 54.5104-4.58333 52.6562-3.5 50.5937-2.625 48.5312-1.75 46.3229-1.09375 43.9687-0.65625 41.6146-0.21875 38.9167 0 35.875 0L14.75 0C13.7917 0 12.8854-0.322917 12.0312-0.96875 11.1771-1.61458 10.75-2.75 10.75-4.375L10.75-76.5C10.75-78.125 11.1771-79.2604 12.0312-79.9062 12.8854-80.5521 13.7917-80.875 14.75-80.875L33.125-80.875C37.9583-80.875 41.9167-80.4167 45-79.5 48.0833-78.5833 50.6562-77.25 52.7187-75.5 54.7812-73.75 56.3333-71.6042 57.375-69.0625 58.4167-66.5208 58.9375-63.6458 58.9375-60.4375 58.9375-58.5208 58.7083-56.6875 58.25-54.9375 57.7917-53.1875 57.1146-51.5729 56.2187-50.0937 55.3229-48.6146 54.1979-47.2917 52.8437-46.125 51.4896-44.9583 49.9375-44 48.1875-43.25 50.3958-42.8333 52.4583-42.0729 54.375-40.9687 56.2917-39.8646 57.9687-38.4583 59.4062-36.75 60.8437-35.0417 61.9792-33.0417 62.8125-30.75 63.6458-28.4583 64.0625-25.9375 64.0625-23.1875ZM47.875-59.375C47.875-61.3333 47.6048-63.1042 47.0644-64.6875 46.5241-66.2708 45.6719-67.6146 44.5078-68.7187 43.3437-69.8229 41.8265-70.6667 39.9561-71.25 38.0856-71.8333 35.6123-72.125 32.5361-72.125L21.4375-72.125 21.4375-45.9375 33.6582-45.9375C36.4434-45.9375 38.6881-46.3021 40.3926-47.0312 42.097-47.7604 43.5104-48.7396 44.6328-49.9687 45.7552-51.1979 46.5762-52.6354 47.0957-54.2812 47.6152-55.9271 47.875-57.625 47.875-59.375ZM52.75-22.5625C52.75-24.9792 52.3654-27.1042 51.5962-28.9375 50.827-30.7708 49.7043-32.3125 48.228-33.5625 46.7518-34.8125 44.9012-35.7604 42.6763-36.4062 40.4513-37.0521 37.6549-37.375 34.2871-37.375L21.4375-37.375 21.4375-8.875 37.0312-8.875C39.485-8.875 41.6266-9.16667 43.4561-9.75 45.2855-10.3333 46.8968-11.1979 48.29-12.3437 49.6833-13.4896 50.7749-14.9167 51.5649-16.625 52.355-18.3333 52.75-20.3125 52.75-22.5625ZM134.646-11.4375C134.646-10.7708 134.625-10.1875 134.583-9.6875 134.542-9.1875 134.469-8.75 134.365-8.375 134.26-8 134.125-7.66667 133.958-7.375 133.792-7.08333 133.5-6.72917 133.083-6.3125 132.667-5.89583 131.792-5.26042 130.458-4.40625 129.125-3.55208 127.469-2.71875 125.49-1.90625 123.51-1.09375 121.24-0.40625 118.677 0.15625 116.115 0.71875 113.312 1 110.271 1 105.021 1 100.281 0.125 96.0521-1.625 91.8229-3.375 88.2187-5.95833 85.2396-9.375 82.2604-12.7917 79.9687-17.0104 78.3646-22.0312 76.7604-27.0521 75.9583-32.8333 75.9583-39.375 75.9583-46.0833 76.8229-52.0625 78.5521-57.3125 80.2812-62.5625 82.7083-67.0104 85.8333-70.6562 88.9583-74.3021 92.6979-77.0833 97.0521-79 101.406-80.9167 106.229-81.875 111.521-81.875 113.854-81.875 116.125-81.6562 118.333-81.2187 120.542-80.7812 122.583-80.2292 124.458-79.5625 126.333-78.8958 128-78.125 129.458-77.25 130.917-76.375 131.927-75.6562 132.49-75.0937 133.052-74.5312 133.417-74.1042 133.583-73.8125 133.75-73.5208 133.885-73.1771 133.99-72.7812 134.094-72.3854 134.177-71.9167 134.24-71.375 134.302-70.8333 134.333-70.1875 134.333-69.4375 134.333-68.6042 134.291-67.8958 134.208-67.3125 134.124-66.7292 133.999-66.2396 133.831-65.8437 133.663-65.4479 133.464-65.1562 133.234-64.9687 133.003-64.7812 132.72-64.6875 132.385-64.6875 131.799-64.6875 130.982-65.0937 129.935-65.9062 128.887-66.7187 127.536-67.6146 125.882-68.5937 124.227-69.5729 122.216-70.4687 119.85-71.2812 117.483-72.0937 114.645-72.5 111.336-72.5 107.733-72.5 104.455-71.7812 101.502-70.3437 98.5491-68.9062 96.0254-66.7917 93.931-64 91.8366-61.2083 90.2134-57.8021 89.0614-53.7812 87.9093-49.7604 87.3333-45.1667 87.3333-40 87.3333-34.875 87.8883-30.3437 88.9984-26.4062 90.1084-22.4687 91.7002-19.1771 93.7738-16.5312 95.8473-13.8854 98.3921-11.8854 101.408-10.5312 104.424-9.17708 107.838-8.5 111.65-8.5 114.875-8.5 117.692-8.89583 120.1-9.6875 122.509-10.4792 124.561-11.3646 126.258-12.3437 127.954-13.3229 129.347-14.2083 130.436-15 131.525-15.7917 132.384-16.1875 133.012-16.1875 133.306-16.1875 133.557-16.125 133.766-16 133.976-15.875 134.143-15.6354 134.269-15.2812 134.395-14.9271 134.489-14.4375 134.552-13.8125 134.614-13.1875 134.646-12.3958 134.646-11.4375ZM160.948-6.8125C160.948-3.85417 160.458-1.88542 159.479-0.90625 158.5 0.0729166 156.719 0.5625 154.135 0.5625 151.635 0.5625 149.906 0.0833333 148.948-0.875 147.99-1.83333 147.51-3.75 147.51-6.625 147.51-9.58333 148-11.5521 148.979-12.5312 149.958-13.5104 151.74-14 154.323-14 156.823-14 158.552-13.5208 159.51-12.5625 160.469-11.6042 160.948-9.6875 160.948-6.8125ZM222.917-2.75C223.25-2.16667 223.417-1.67708 223.417-1.28125 223.417-0.885417 223.219-0.5625 222.823-0.3125 222.427-0.0625 221.823 0.114583 221.01 0.21875 220.198 0.322917 219.146 0.375 217.854 0.375 216.604 0.375 215.615 0.34375 214.885 0.28125 214.156 0.21875 213.573 0.114583 213.135-0.03125 212.698-0.177083 212.365-0.364583 212.135-0.59375 211.906-0.822917 211.708-1.08333 211.542-1.375L198.042-23.6875 184.604-1.375C184.437-1.08333 184.24-0.822917 184.01-0.59375 183.781-0.364583 183.448-0.177083 183.01-0.03125 182.573 0.114583 182 0.21875 181.292 0.28125 180.583 0.34375 179.646 0.375 178.479 0.375 177.271 0.375 176.281 0.322917 175.51 0.21875 174.74 0.114583 174.177-0.0625 173.823-0.3125 173.469-0.5625 173.302-0.885417 173.323-1.28125 173.344-1.67708 173.542-2.16667 173.917-2.75L191.417-30.1875 174.854-56.625C174.521-57.2083 174.344-57.6979 174.323-58.0937 174.302-58.4896 174.49-58.8229 174.885-59.0937 175.281-59.3646 175.885-59.5417 176.698-59.625 177.51-59.7083 178.583-59.75 179.917-59.75 181.125-59.75 182.094-59.7187 182.823-59.6562 183.552-59.5937 184.125-59.5 184.542-59.375 184.958-59.25 185.271-59.0833 185.479-58.875 185.687-58.6667 185.875-58.4167 186.042-58.125L198.854-37.1875 211.854-58.125C212.021-58.375 212.208-58.6042 212.417-58.8125 212.625-59.0208 212.906-59.1979 213.26-59.3437 213.615-59.4896 214.115-59.5937 214.76-59.6562 215.406-59.7187 216.292-59.75 217.417-59.75 218.625-59.75 219.615-59.7083 220.385-59.625 221.156-59.5417 221.729-59.3854 222.104-59.1562 222.479-58.9271 222.646-58.6042 222.604-58.1875 222.562-57.7708 222.354-57.25 221.979-56.625L205.542-30.5Z" fill="#002060" transform="matrix(1 0 0 1 668.016 178)"/><path d="M59.375-36C59.375-35.2083 59.3125-34.5312 59.1875-33.9687 59.0625-33.4062 58.8958-32.9375 58.6875-32.5625 58.4792-32.1875 58.2292-31.9167 57.9375-31.75 57.6458-31.5833 57.3333-31.5 57-31.5L36.5-31.5 36.5-8.75C36.5-8.41667 36.4167-8.13542 36.25-7.90625 36.0833-7.67708 35.8229-7.47917 35.4687-7.3125 35.1146-7.14583 34.6458-7.01042 34.0625-6.90625 33.4792-6.80208 32.75-6.75 31.875-6.75 31.0417-6.75 30.3229-6.80208 29.7187-6.90625 29.1146-7.01042 28.6354-7.14583 28.2812-7.3125 27.9271-7.47917 27.6667-7.67708 27.5-7.90625 27.3333-8.13542 27.25-8.41667 27.25-8.75L27.25-31.5 6.75-31.5C6.375-31.5 6.05208-31.5833 5.78125-31.75 5.51042-31.9167 5.27083-32.1875 5.0625-32.5625 4.85417-32.9375 4.6875-33.4062 4.5625-33.9687 4.4375-34.5312 4.375-35.2083 4.375-36 4.375-36.75 4.4375-37.4062 4.5625-37.9687 4.6875-38.5312 4.85417-39 5.0625-39.375 5.27083-39.75 5.51042-40.0208 5.78125-40.1875 6.05208-40.3542 6.35417-40.4375 6.6875-40.4375L27.25-40.4375 27.25-63.1875C27.25-63.5208 27.3333-63.8229 27.5-64.0937 27.6667-64.3646 27.9271-64.5937 28.2812-64.7812 28.6354-64.9687 29.1146-65.1146 29.7187-65.2187 30.3229-65.3229 31.0417-65.375 31.875-65.375 32.75-65.375 33.4792-65.3229 34.0625-65.2187 34.6458-65.1146 35.1146-64.9687 35.4687-64.7812 35.8229-64.5937 36.0833-64.3646 36.25-64.0937 36.4167-63.8229 36.5-63.5208 36.5-63.1875L36.5-40.4375 57.0625-40.4375C57.3958-40.4375 57.6979-40.3542 57.9687-40.1875 58.2396-40.0208 58.4896-39.75 58.7187-39.375 58.9479-39 59.1146-38.5312 59.2187-37.9687 59.3229-37.4062 59.375-36.75 59.375-36Z" transform="matrix(1 0 0 1 923.537 178)"/><path d="M64.0625-23.1875C64.0625-20.6458 63.7396-18.3021 63.0937-16.1562 62.4479-14.0104 61.5417-12.0833 60.375-10.375 59.2083-8.66667 57.8021-7.16667 56.1562-5.875 54.5104-4.58333 52.6562-3.5 50.5937-2.625 48.5312-1.75 46.3229-1.09375 43.9687-0.65625 41.6146-0.21875 38.9167 0 35.875 0L14.75 0C13.7917 0 12.8854-0.322917 12.0312-0.96875 11.1771-1.61458 10.75-2.75 10.75-4.375L10.75-76.5C10.75-78.125 11.1771-79.2604 12.0312-79.9062 12.8854-80.5521 13.7917-80.875 14.75-80.875L33.125-80.875C37.9583-80.875 41.9167-80.4167 45-79.5 48.0833-78.5833 50.6562-77.25 52.7187-75.5 54.7812-73.75 56.3333-71.6042 57.375-69.0625 58.4167-66.5208 58.9375-63.6458 58.9375-60.4375 58.9375-58.5208 58.7083-56.6875 58.25-54.9375 57.7917-53.1875 57.1146-51.5729 56.2187-50.0937 55.3229-48.6146 54.1979-47.2917 52.8437-46.125 51.4896-44.9583 49.9375-44 48.1875-43.25 50.3958-42.8333 52.4583-42.0729 54.375-40.9687 56.2917-39.8646 57.9687-38.4583 59.4062-36.75 60.8437-35.0417 61.9792-33.0417 62.8125-30.75 63.6458-28.4583 64.0625-25.9375 64.0625-23.1875ZM47.875-59.375C47.875-61.3333 47.6048-63.1042 47.0644-64.6875 46.5241-66.2708 45.6719-67.6146 44.5078-68.7187 43.3437-69.8229 41.8265-70.6667 39.9561-71.25 38.0856-71.8333 35.6123-72.125 32.5361-72.125L21.4375-72.125 21.4375-45.9375 33.6582-45.9375C36.4434-45.9375 38.6881-46.3021 40.3926-47.0312 42.097-47.7604 43.5104-48.7396 44.6328-49.9687 45.7552-51.1979 46.5762-52.6354 47.0957-54.2812 47.6152-55.9271 47.875-57.625 47.875-59.375ZM52.75-22.5625C52.75-24.9792 52.3654-27.1042 51.5962-28.9375 50.827-30.7708 49.7043-32.3125 48.228-33.5625 46.7518-34.8125 44.9012-35.7604 42.6763-36.4062 40.4513-37.0521 37.6549-37.375 34.2871-37.375L21.4375-37.375 21.4375-8.875 37.0312-8.875C39.485-8.875 41.6266-9.16667 43.4561-9.75 45.2855-10.3333 46.8968-11.1979 48.29-12.3437 49.6833-13.4896 50.7749-14.9167 51.5649-16.625 52.355-18.3333 52.75-20.3125 52.75-22.5625ZM134.646-11.4375C134.646-10.7708 134.625-10.1875 134.583-9.6875 134.542-9.1875 134.469-8.75 134.365-8.375 134.26-8 134.125-7.66667 133.958-7.375 133.792-7.08333 133.5-6.72917 133.083-6.3125 132.667-5.89583 131.792-5.26042 130.458-4.40625 129.125-3.55208 127.469-2.71875 125.49-1.90625 123.51-1.09375 121.24-0.40625 118.677 0.15625 116.115 0.71875 113.312 1 110.271 1 105.021 1 100.281 0.125 96.0521-1.625 91.8229-3.375 88.2187-5.95833 85.2396-9.375 82.2604-12.7917 79.9687-17.0104 78.3646-22.0312 76.7604-27.0521 75.9583-32.8333 75.9583-39.375 75.9583-46.0833 76.8229-52.0625 78.5521-57.3125 80.2812-62.5625 82.7083-67.0104 85.8333-70.6562 88.9583-74.3021 92.6979-77.0833 97.0521-79 101.406-80.9167 106.229-81.875 111.521-81.875 113.854-81.875 116.125-81.6562 118.333-81.2187 120.542-80.7812 122.583-80.2292 124.458-79.5625 126.333-78.8958 128-78.125 129.458-77.25 130.917-76.375 131.927-75.6562 132.49-75.0937 133.052-74.5312 133.417-74.1042 133.583-73.8125 133.75-73.5208 133.885-73.1771 133.99-72.7812 134.094-72.3854 134.177-71.9167 134.24-71.375 134.302-70.8333 134.333-70.1875 134.333-69.4375 134.333-68.6042 134.291-67.8958 134.208-67.3125 134.124-66.7292 133.999-66.2396 133.831-65.8437 133.663-65.4479 133.464-65.1562 133.234-64.9687 133.003-64.7812 132.72-64.6875 132.385-64.6875 131.799-64.6875 130.982-65.0937 129.935-65.9062 128.887-66.7187 127.536-67.6146 125.882-68.5937 124.227-69.5729 122.216-70.4687 119.85-71.2812 117.483-72.0937 114.645-72.5 111.336-72.5 107.733-72.5 104.455-71.7812 101.502-70.3437 98.5491-68.9062 96.0254-66.7917 93.931-64 91.8366-61.2083 90.2134-57.8021 89.0614-53.7812 87.9093-49.7604 87.3333-45.1667 87.3333-40 87.3333-34.875 87.8883-30.3437 88.9984-26.4062 90.1084-22.4687 91.7002-19.1771 93.7738-16.5312 95.8473-13.8854 98.3921-11.8854 101.408-10.5312 104.424-9.17708 107.838-8.5 111.65-8.5 114.875-8.5 117.692-8.89583 120.1-9.6875 122.509-10.4792 124.561-11.3646 126.258-12.3437 127.954-13.3229 129.347-14.2083 130.436-15 131.525-15.7917 132.384-16.1875 133.012-16.1875 133.306-16.1875 133.557-16.125 133.766-16 133.976-15.875 134.143-15.6354 134.269-15.2812 134.395-14.9271 134.489-14.4375 134.552-13.8125 134.614-13.1875 134.646-12.3958 134.646-11.4375ZM160.948-6.8125C160.948-3.85417 160.458-1.88542 159.479-0.90625 158.5 0.0729166 156.719 0.5625 154.135 0.5625 151.635 0.5625 149.906 0.0833333 148.948-0.875 147.99-1.83333 147.51-3.75 147.51-6.625 147.51-9.58333 148-11.5521 148.979-12.5312 149.958-13.5104 151.74-14 154.323-14 156.823-14 158.552-13.5208 159.51-12.5625 160.469-11.6042 160.948-9.6875 160.948-6.8125ZM201.081 0 193.581 20.6875C193.331 21.3542 192.696 21.8646 191.675 22.2187 190.654 22.5729 189.102 22.75 187.019 22.75 185.935 22.75 185.06 22.6979 184.394 22.5937 183.727 22.4896 183.217 22.3125 182.862 22.0625 182.508 21.8125 182.31 21.4792 182.269 21.0625 182.227 20.6458 182.331 20.1458 182.581 19.5625L190.331 0C189.956-0.166667 189.602-0.4375 189.269-0.8125 188.935-1.1875 188.706-1.58333 188.581-2L168.519-55.75C168.185-56.625 168.019-57.3125 168.019-57.8125 168.019-58.3125 168.185-58.7083 168.519-59 168.852-59.2917 169.394-59.4896 170.144-59.5937 170.894-59.6979 171.894-59.75 173.144-59.75 174.394-59.75 175.373-59.7187 176.081-59.6562 176.79-59.5937 177.352-59.4792 177.769-59.3125 178.185-59.1458 178.487-58.9062 178.675-58.5937 178.862-58.2812 179.06-57.8542 179.269-57.3125L195.331-12.1875 195.519-12.1875 211.019-57.5625C211.269-58.3542 211.571-58.8646 211.925-59.0937 212.279-59.3229 212.81-59.4896 213.519-59.5937 214.227-59.6979 215.248-59.75 216.581-59.75 217.748-59.75 218.706-59.6979 219.456-59.5937 220.206-59.4896 220.758-59.2917 221.112-59 221.467-58.7083 221.644-58.3125 221.644-57.8125 221.644-57.3125 221.519-56.6875 221.269-55.9375Z" fill="#00B050" transform="matrix(1 0 0 1 1016.92 178)"/><path d="M30.4375-33.5625C30.4375-28.8542 30.1458-24.1979 29.5625-19.5937 28.9792-14.9896 28.1042-10.4375 26.9375-5.9375 25.7708-1.4375 24.3437 2.98958 22.6562 7.34375 20.9687 11.6979 19 16 16.75 20.25 16.625 20.4583 16.4375 20.6458 16.1875 20.8125 15.9375 20.9792 15.6146 21.125 15.2187 21.25 14.8229 21.375 14.3542 21.4583 13.8125 21.5 13.2708 21.5417 12.625 21.5625 11.875 21.5625 10.7917 21.5625 9.94792 21.5104 9.34375 21.4062 8.73958 21.3021 8.30208 21.1354 8.03125 20.9062 7.76042 20.6771 7.63542 20.3854 7.65625 20.0312 7.67708 19.6771 7.79167 19.25 8 18.75 11.8333 10.3333 14.7292 1.71875 16.6875-7.09375 18.6458-15.9062 19.625-24.7917 19.625-33.75 19.625-42.6667 18.6458-51.5312 16.6875-60.3437 14.7292-69.1562 11.7917-77.75 7.875-86.125 7.70833-86.5 7.64583-86.8542 7.6875-87.1875 7.72917-87.5208 7.91667-87.7917 8.25-88 8.58333-88.2083 9.04167-88.375 9.625-88.5 10.2083-88.625 10.9792-88.6875 11.9375-88.6875 12.8125-88.6875 13.5417-88.6562 14.125-88.5937 14.7083-88.5312 15.1771-88.4375 15.5312-88.3125 15.8854-88.1875 16.1458-88.0625 16.3125-87.9375 16.4792-87.8125 16.6042-87.6667 16.6875-87.5 20.9792-78.9583 24.3437-70.1771 26.7812-61.1562 29.2187-52.1354 30.4375-42.9375 30.4375-33.5625Z" transform="matrix(1 0 0 1 1240.68 178)"/></g></g><text fill="#FF0000" font-family="Calibri,Calibri_MSFontService,sans-serif" font-weight="400" font-size="128" transform="matrix(1 0 0 1 3128.05 941)">BC.z</text><text font-family="Calibri,Calibri_MSFontService,sans-serif" font-weight="400" font-size="128" transform="matrix(1 0 0 1 3379.03 941)">= 1 </text><text font-family="Calibri,Calibri_MSFontService,sans-serif" font-weight="400" font-size="128" transform="matrix(1 0 0 1 3566.95 941)"></text><text font-family="Calibri,Calibri_MSFontService,sans-serif" font-weight="400" font-size="128" transform="matrix(1 0 0 1 3660.34 941)">(</text><text fill="#002060" font-family="Calibri,Calibri_MSFontService,sans-serif" font-weight="400" font-size="128" transform="matrix(1 0 0 1 3699.29 941)">BC.x</text><text font-family="Calibri,Calibri_MSFontService,sans-serif" font-weight="400" font-size="128" transform="matrix(1 0 0 1 3954.81 941)">+ </text><text fill="#00B050" font-family="Calibri,Calibri_MSFontService,sans-serif" font-weight="400" font-size="128" transform="matrix(1 0 0 1 4048.2 941)">BC.y</text><text font-family="Calibri,Calibri_MSFontService,sans-serif" font-weight="400" font-size="128" transform="matrix(1 0 0 1 4271.96 941)">)</text><g clip-path="url(#clip27)" filter="url(#fx13)" transform="translate(2852 1111)"><g><path d="M1009.91 44.723 44.7228 44.7234" stroke="#00B050" stroke-width="50" stroke-miterlimit="8" stroke-dasharray="50.4167 50.4167" fill="none" fill-rule="evenodd"/></g></g><path d="M3852.19 1146 2887 1146" stroke="#00B050" stroke-width="50.4167" stroke-miterlimit="8" stroke-dasharray="50.4167 50.4167" fill="none" fill-rule="evenodd"/><g clip-path="url(#clip28)" filter="url(#fx14)" transform="translate(1682 1111)"><g><path d="M1187.88 44.723 44.7225 44.7234" stroke="#002060" stroke-width="50" stroke-miterlimit="8" stroke-dasharray="50.4167 50.4167" fill="none" fill-rule="evenodd"/></g></g><path d="M2860.16 1146 1717 1146" stroke="#002060" stroke-width="50.4167" stroke-miterlimit="8" stroke-dasharray="50.4167 50.4167" fill="none" fill-rule="evenodd"/><g clip-path="url(#clip29)" filter="url(#fx15)" transform="translate(3902 1111)"><g><path d="M352.002 44.723 44.7224 44.7234" stroke="#FF0000" stroke-width="50" stroke-miterlimit="8" stroke-dasharray="50.4167 50.4167" fill="none" fill-rule="evenodd"/></g></g><path d="M4244.28 1146 3937 1146" stroke="#FF0000" stroke-width="50.4167" stroke-miterlimit="8" stroke-dasharray="50.4167 50.4167" fill="none" fill-rule="evenodd"/><path d="M1717 1529 4315.2 1529" stroke="#000000" stroke-width="45.8333" stroke-miterlimit="8" fill="none" fill-rule="evenodd"/><g clip-path="url(#clip30)" filter="url(#fx16)" transform="translate(2397 1551)"><g><path d="M64.0625-23.1875C64.0625-20.6458 63.7396-18.3021 63.0937-16.1562 62.4479-14.0104 61.5417-12.0833 60.375-10.375 59.2083-8.66667 57.8021-7.16667 56.1562-5.875 54.5104-4.58333 52.6562-3.5 50.5937-2.625 48.5312-1.75 46.3229-1.09375 43.9687-0.65625 41.6146-0.21875 38.9167 0 35.875 0L14.75 0C13.7917 0 12.8854-0.322917 12.0312-0.96875 11.1771-1.61458 10.75-2.75 10.75-4.375L10.75-76.5C10.75-78.125 11.1771-79.2604 12.0312-79.9062 12.8854-80.5521 13.7917-80.875 14.75-80.875L33.125-80.875C37.9583-80.875 41.9167-80.4167 45-79.5 48.0833-78.5833 50.6562-77.25 52.7187-75.5 54.7812-73.75 56.3333-71.6042 57.375-69.0625 58.4167-66.5208 58.9375-63.6458 58.9375-60.4375 58.9375-58.5208 58.7083-56.6875 58.25-54.9375 57.7917-53.1875 57.1146-51.5729 56.2187-50.0937 55.3229-48.6146 54.1979-47.2917 52.8437-46.125 51.4896-44.9583 49.9375-44 48.1875-43.25 50.3958-42.8333 52.4583-42.0729 54.375-40.9687 56.2917-39.8646 57.9687-38.4583 59.4062-36.75 60.8437-35.0417 61.9792-33.0417 62.8125-30.75 63.6458-28.4583 64.0625-25.9375 64.0625-23.1875ZM47.875-59.375C47.875-61.3333 47.6048-63.1042 47.0644-64.6875 46.5241-66.2708 45.6719-67.6146 44.5078-68.7187 43.3437-69.8229 41.8265-70.6667 39.9561-71.25 38.0856-71.8333 35.6123-72.125 32.5361-72.125L21.4375-72.125 21.4375-45.9375 33.6582-45.9375C36.4434-45.9375 38.6881-46.3021 40.3926-47.0312 42.097-47.7604 43.5104-48.7396 44.6328-49.9687 45.7552-51.1979 46.5762-52.6354 47.0957-54.2812 47.6152-55.9271 47.875-57.625 47.875-59.375ZM52.75-22.5625C52.75-24.9792 52.3654-27.1042 51.5962-28.9375 50.827-30.7708 49.7043-32.3125 48.228-33.5625 46.7518-34.8125 44.9012-35.7604 42.6763-36.4062 40.4513-37.0521 37.6549-37.375 34.2871-37.375L21.4375-37.375 21.4375-8.875 37.0312-8.875C39.485-8.875 41.6266-9.16667 43.4561-9.75 45.2855-10.3333 46.8968-11.1979 48.29-12.3437 49.6833-13.4896 50.7749-14.9167 51.5649-16.625 52.355-18.3333 52.75-20.3125 52.75-22.5625ZM134.646-11.4375C134.646-10.7708 134.625-10.1875 134.583-9.6875 134.542-9.1875 134.469-8.75 134.365-8.375 134.26-8 134.125-7.66667 133.958-7.375 133.792-7.08333 133.5-6.72917 133.083-6.3125 132.667-5.89583 131.792-5.26042 130.458-4.40625 129.125-3.55208 127.469-2.71875 125.49-1.90625 123.51-1.09375 121.24-0.40625 118.677 0.15625 116.115 0.71875 113.312 1 110.271 1 105.021 1 100.281 0.125 96.0521-1.625 91.8229-3.375 88.2187-5.95833 85.2396-9.375 82.2604-12.7917 79.9687-17.0104 78.3646-22.0312 76.7604-27.0521 75.9583-32.8333 75.9583-39.375 75.9583-46.0833 76.8229-52.0625 78.5521-57.3125 80.2812-62.5625 82.7083-67.0104 85.8333-70.6562 88.9583-74.3021 92.6979-77.0833 97.0521-79 101.406-80.9167 106.229-81.875 111.521-81.875 113.854-81.875 116.125-81.6562 118.333-81.2187 120.542-80.7812 122.583-80.2292 124.458-79.5625 126.333-78.8958 128-78.125 129.458-77.25 130.917-76.375 131.927-75.6562 132.49-75.0937 133.052-74.5312 133.417-74.1042 133.583-73.8125 133.75-73.5208 133.885-73.1771 133.99-72.7812 134.094-72.3854 134.177-71.9167 134.24-71.375 134.302-70.8333 134.333-70.1875 134.333-69.4375 134.333-68.6042 134.291-67.8958 134.208-67.3125 134.124-66.7292 133.999-66.2396 133.831-65.8437 133.663-65.4479 133.464-65.1562 133.234-64.9687 133.003-64.7812 132.72-64.6875 132.385-64.6875 131.799-64.6875 130.982-65.0937 129.935-65.9062 128.887-66.7187 127.536-67.6146 125.882-68.5937 124.227-69.5729 122.216-70.4687 119.85-71.2812 117.483-72.0937 114.645-72.5 111.336-72.5 107.733-72.5 104.455-71.7812 101.502-70.3437 98.5491-68.9062 96.0254-66.7917 93.931-64 91.8366-61.2083 90.2134-57.8021 89.0614-53.7812 87.9093-49.7604 87.3333-45.1667 87.3333-40 87.3333-34.875 87.8883-30.3437 88.9984-26.4062 90.1084-22.4687 91.7002-19.1771 93.7738-16.5312 95.8473-13.8854 98.3921-11.8854 101.408-10.5312 104.424-9.17708 107.838-8.5 111.65-8.5 114.875-8.5 117.692-8.89583 120.1-9.6875 122.509-10.4792 124.561-11.3646 126.258-12.3437 127.954-13.3229 129.347-14.2083 130.436-15 131.525-15.7917 132.384-16.1875 133.012-16.1875 133.306-16.1875 133.557-16.125 133.766-16 133.976-15.875 134.143-15.6354 134.269-15.2812 134.395-14.9271 134.489-14.4375 134.552-13.8125 134.614-13.1875 134.646-12.3958 134.646-11.4375ZM160.948-6.8125C160.948-3.85417 160.458-1.88542 159.479-0.90625 158.5 0.0729166 156.719 0.5625 154.135 0.5625 151.635 0.5625 149.906 0.0833333 148.948-0.875 147.99-1.83333 147.51-3.75 147.51-6.625 147.51-9.58333 148-11.5521 148.979-12.5312 149.958-13.5104 151.74-14 154.323-14 156.823-14 158.552-13.5208 159.51-12.5625 160.469-11.6042 160.948-9.6875 160.948-6.8125ZM222.917-2.75C223.25-2.16667 223.417-1.67708 223.417-1.28125 223.417-0.885417 223.219-0.5625 222.823-0.3125 222.427-0.0625 221.823 0.114583 221.01 0.21875 220.198 0.322917 219.146 0.375 217.854 0.375 216.604 0.375 215.615 0.34375 214.885 0.28125 214.156 0.21875 213.573 0.114583 213.135-0.03125 212.698-0.177083 212.365-0.364583 212.135-0.59375 211.906-0.822917 211.708-1.08333 211.542-1.375L198.042-23.6875 184.604-1.375C184.437-1.08333 184.24-0.822917 184.01-0.59375 183.781-0.364583 183.448-0.177083 183.01-0.03125 182.573 0.114583 182 0.21875 181.292 0.28125 180.583 0.34375 179.646 0.375 178.479 0.375 177.271 0.375 176.281 0.322917 175.51 0.21875 174.74 0.114583 174.177-0.0625 173.823-0.3125 173.469-0.5625 173.302-0.885417 173.323-1.28125 173.344-1.67708 173.542-2.16667 173.917-2.75L191.417-30.1875 174.854-56.625C174.521-57.2083 174.344-57.6979 174.323-58.0937 174.302-58.4896 174.49-58.8229 174.885-59.0937 175.281-59.3646 175.885-59.5417 176.698-59.625 177.51-59.7083 178.583-59.75 179.917-59.75 181.125-59.75 182.094-59.7187 182.823-59.6562 183.552-59.5937 184.125-59.5 184.542-59.375 184.958-59.25 185.271-59.0833 185.479-58.875 185.687-58.6667 185.875-58.4167 186.042-58.125L198.854-37.1875 211.854-58.125C212.021-58.375 212.208-58.6042 212.417-58.8125 212.625-59.0208 212.906-59.1979 213.26-59.3437 213.615-59.4896 214.115-59.5937 214.76-59.6562 215.406-59.7187 216.292-59.75 217.417-59.75 218.625-59.75 219.615-59.7083 220.385-59.625 221.156-59.5417 221.729-59.3854 222.104-59.1562 222.479-58.9271 222.646-58.6042 222.604-58.1875 222.562-57.7708 222.354-57.25 221.979-56.625L205.542-30.5Z" fill="#002060" transform="matrix(1 0 0 1 97.1306 178)"/><path d="M59.375-36C59.375-35.2083 59.3125-34.5312 59.1875-33.9687 59.0625-33.4062 58.8958-32.9375 58.6875-32.5625 58.4792-32.1875 58.2292-31.9167 57.9375-31.75 57.6458-31.5833 57.3333-31.5 57-31.5L36.5-31.5 36.5-8.75C36.5-8.41667 36.4167-8.13542 36.25-7.90625 36.0833-7.67708 35.8229-7.47917 35.4687-7.3125 35.1146-7.14583 34.6458-7.01042 34.0625-6.90625 33.4792-6.80208 32.75-6.75 31.875-6.75 31.0417-6.75 30.3229-6.80208 29.7187-6.90625 29.1146-7.01042 28.6354-7.14583 28.2812-7.3125 27.9271-7.47917 27.6667-7.67708 27.5-7.90625 27.3333-8.13542 27.25-8.41667 27.25-8.75L27.25-31.5 6.75-31.5C6.375-31.5 6.05208-31.5833 5.78125-31.75 5.51042-31.9167 5.27083-32.1875 5.0625-32.5625 4.85417-32.9375 4.6875-33.4062 4.5625-33.9687 4.4375-34.5312 4.375-35.2083 4.375-36 4.375-36.75 4.4375-37.4062 4.5625-37.9687 4.6875-38.5312 4.85417-39 5.0625-39.375 5.27083-39.75 5.51042-40.0208 5.78125-40.1875 6.05208-40.3542 6.35417-40.4375 6.6875-40.4375L27.25-40.4375 27.25-63.1875C27.25-63.5208 27.3333-63.8229 27.5-64.0937 27.6667-64.3646 27.9271-64.5937 28.2812-64.7812 28.6354-64.9687 29.1146-65.1146 29.7187-65.2187 30.3229-65.3229 31.0417-65.375 31.875-65.375 32.75-65.375 33.4792-65.3229 34.0625-65.2187 34.6458-65.1146 35.1146-64.9687 35.4687-64.7812 35.8229-64.5937 36.0833-64.3646 36.25-64.0937 36.4167-63.8229 36.5-63.5208 36.5-63.1875L36.5-40.4375 57.0625-40.4375C57.3958-40.4375 57.6979-40.3542 57.9687-40.1875 58.2396-40.0208 58.4896-39.75 58.7187-39.375 58.9479-39 59.1146-38.5312 59.2187-37.9687 59.3229-37.4062 59.375-36.75 59.375-36Z" transform="matrix(1 0 0 1 352.652 178)"/><path d="M64.0625-23.1875C64.0625-20.6458 63.7396-18.3021 63.0937-16.1562 62.4479-14.0104 61.5417-12.0833 60.375-10.375 59.2083-8.66667 57.8021-7.16667 56.1562-5.875 54.5104-4.58333 52.6562-3.5 50.5937-2.625 48.5312-1.75 46.3229-1.09375 43.9687-0.65625 41.6146-0.21875 38.9167 0 35.875 0L14.75 0C13.7917 0 12.8854-0.322917 12.0312-0.96875 11.1771-1.61458 10.75-2.75 10.75-4.375L10.75-76.5C10.75-78.125 11.1771-79.2604 12.0312-79.9062 12.8854-80.5521 13.7917-80.875 14.75-80.875L33.125-80.875C37.9583-80.875 41.9167-80.4167 45-79.5 48.0833-78.5833 50.6562-77.25 52.7187-75.5 54.7812-73.75 56.3333-71.6042 57.375-69.0625 58.4167-66.5208 58.9375-63.6458 58.9375-60.4375 58.9375-58.5208 58.7083-56.6875 58.25-54.9375 57.7917-53.1875 57.1146-51.5729 56.2187-50.0937 55.3229-48.6146 54.1979-47.2917 52.8437-46.125 51.4896-44.9583 49.9375-44 48.1875-43.25 50.3958-42.8333 52.4583-42.0729 54.375-40.9687 56.2917-39.8646 57.9687-38.4583 59.4062-36.75 60.8437-35.0417 61.9792-33.0417 62.8125-30.75 63.6458-28.4583 64.0625-25.9375 64.0625-23.1875ZM47.875-59.375C47.875-61.3333 47.6048-63.1042 47.0644-64.6875 46.5241-66.2708 45.6719-67.6146 44.5078-68.7187 43.3437-69.8229 41.8265-70.6667 39.9561-71.25 38.0856-71.8333 35.6123-72.125 32.5361-72.125L21.4375-72.125 21.4375-45.9375 33.6582-45.9375C36.4434-45.9375 38.6881-46.3021 40.3926-47.0312 42.097-47.7604 43.5104-48.7396 44.6328-49.9687 45.7552-51.1979 46.5762-52.6354 47.0957-54.2812 47.6152-55.9271 47.875-57.625 47.875-59.375ZM52.75-22.5625C52.75-24.9792 52.3654-27.1042 51.5962-28.9375 50.827-30.7708 49.7043-32.3125 48.228-33.5625 46.7518-34.8125 44.9012-35.7604 42.6763-36.4062 40.4513-37.0521 37.6549-37.375 34.2871-37.375L21.4375-37.375 21.4375-8.875 37.0312-8.875C39.485-8.875 41.6266-9.16667 43.4561-9.75 45.2855-10.3333 46.8968-11.1979 48.29-12.3437 49.6833-13.4896 50.7749-14.9167 51.5649-16.625 52.355-18.3333 52.75-20.3125 52.75-22.5625ZM134.646-11.4375C134.646-10.7708 134.625-10.1875 134.583-9.6875 134.542-9.1875 134.469-8.75 134.365-8.375 134.26-8 134.125-7.66667 133.958-7.375 133.792-7.08333 133.5-6.72917 133.083-6.3125 132.667-5.89583 131.792-5.26042 130.458-4.40625 129.125-3.55208 127.469-2.71875 125.49-1.90625 123.51-1.09375 121.24-0.40625 118.677 0.15625 116.115 0.71875 113.312 1 110.271 1 105.021 1 100.281 0.125 96.0521-1.625 91.8229-3.375 88.2187-5.95833 85.2396-9.375 82.2604-12.7917 79.9687-17.0104 78.3646-22.0312 76.7604-27.0521 75.9583-32.8333 75.9583-39.375 75.9583-46.0833 76.8229-52.0625 78.5521-57.3125 80.2812-62.5625 82.7083-67.0104 85.8333-70.6562 88.9583-74.3021 92.6979-77.0833 97.0521-79 101.406-80.9167 106.229-81.875 111.521-81.875 113.854-81.875 116.125-81.6562 118.333-81.2187 120.542-80.7812 122.583-80.2292 124.458-79.5625 126.333-78.8958 128-78.125 129.458-77.25 130.917-76.375 131.927-75.6562 132.49-75.0937 133.052-74.5312 133.417-74.1042 133.583-73.8125 133.75-73.5208 133.885-73.1771 133.99-72.7812 134.094-72.3854 134.177-71.9167 134.24-71.375 134.302-70.8333 134.333-70.1875 134.333-69.4375 134.333-68.6042 134.291-67.8958 134.208-67.3125 134.124-66.7292 133.999-66.2396 133.831-65.8437 133.663-65.4479 133.464-65.1562 133.234-64.9687 133.003-64.7812 132.72-64.6875 132.385-64.6875 131.799-64.6875 130.982-65.0937 129.935-65.9062 128.887-66.7187 127.536-67.6146 125.882-68.5937 124.227-69.5729 122.216-70.4687 119.85-71.2812 117.483-72.0937 114.645-72.5 111.336-72.5 107.733-72.5 104.455-71.7812 101.502-70.3437 98.5491-68.9062 96.0254-66.7917 93.931-64 91.8366-61.2083 90.2134-57.8021 89.0614-53.7812 87.9093-49.7604 87.3333-45.1667 87.3333-40 87.3333-34.875 87.8883-30.3437 88.9984-26.4062 90.1084-22.4687 91.7002-19.1771 93.7738-16.5312 95.8473-13.8854 98.3921-11.8854 101.408-10.5312 104.424-9.17708 107.838-8.5 111.65-8.5 114.875-8.5 117.692-8.89583 120.1-9.6875 122.509-10.4792 124.561-11.3646 126.258-12.3437 127.954-13.3229 129.347-14.2083 130.436-15 131.525-15.7917 132.384-16.1875 133.012-16.1875 133.306-16.1875 133.557-16.125 133.766-16 133.976-15.875 134.143-15.6354 134.269-15.2812 134.395-14.9271 134.489-14.4375 134.552-13.8125 134.614-13.1875 134.646-12.3958 134.646-11.4375ZM160.948-6.8125C160.948-3.85417 160.458-1.88542 159.479-0.90625 158.5 0.0729166 156.719 0.5625 154.135 0.5625 151.635 0.5625 149.906 0.0833333 148.948-0.875 147.99-1.83333 147.51-3.75 147.51-6.625 147.51-9.58333 148-11.5521 148.979-12.5312 149.958-13.5104 151.74-14 154.323-14 156.823-14 158.552-13.5208 159.51-12.5625 160.469-11.6042 160.948-9.6875 160.948-6.8125ZM201.081 0 193.581 20.6875C193.331 21.3542 192.696 21.8646 191.675 22.2187 190.654 22.5729 189.102 22.75 187.019 22.75 185.935 22.75 185.06 22.6979 184.394 22.5937 183.727 22.4896 183.217 22.3125 182.862 22.0625 182.508 21.8125 182.31 21.4792 182.269 21.0625 182.227 20.6458 182.331 20.1458 182.581 19.5625L190.331 0C189.956-0.166667 189.602-0.4375 189.269-0.8125 188.935-1.1875 188.706-1.58333 188.581-2L168.519-55.75C168.185-56.625 168.019-57.3125 168.019-57.8125 168.019-58.3125 168.185-58.7083 168.519-59 168.852-59.2917 169.394-59.4896 170.144-59.5937 170.894-59.6979 171.894-59.75 173.144-59.75 174.394-59.75 175.373-59.7187 176.081-59.6562 176.79-59.5937 177.352-59.4792 177.769-59.3125 178.185-59.1458 178.487-58.9062 178.675-58.5937 178.862-58.2812 179.06-57.8542 179.269-57.3125L195.331-12.1875 195.519-12.1875 211.019-57.5625C211.269-58.3542 211.571-58.8646 211.925-59.0937 212.279-59.3229 212.81-59.4896 213.519-59.5937 214.227-59.6979 215.248-59.75 216.581-59.75 217.748-59.75 218.706-59.6979 219.456-59.5937 220.206-59.4896 220.758-59.2917 221.112-59 221.467-58.7083 221.644-58.3125 221.644-57.8125 221.644-57.3125 221.519-56.6875 221.269-55.9375Z" fill="#00B050" transform="matrix(1 0 0 1 446.037 178)"/><path d="M59.375-36C59.375-35.2083 59.3125-34.5312 59.1875-33.9687 59.0625-33.4062 58.8958-32.9375 58.6875-32.5625 58.4792-32.1875 58.2292-31.9167 57.9375-31.75 57.6458-31.5833 57.3333-31.5 57-31.5L36.5-31.5 36.5-8.75C36.5-8.41667 36.4167-8.13542 36.25-7.90625 36.0833-7.67708 35.8229-7.47917 35.4687-7.3125 35.1146-7.14583 34.6458-7.01042 34.0625-6.90625 33.4792-6.80208 32.75-6.75 31.875-6.75 31.0417-6.75 30.3229-6.80208 29.7187-6.90625 29.1146-7.01042 28.6354-7.14583 28.2812-7.3125 27.9271-7.47917 27.6667-7.67708 27.5-7.90625 27.3333-8.13542 27.25-8.41667 27.25-8.75L27.25-31.5 6.75-31.5C6.375-31.5 6.05208-31.5833 5.78125-31.75 5.51042-31.9167 5.27083-32.1875 5.0625-32.5625 4.85417-32.9375 4.6875-33.4062 4.5625-33.9687 4.4375-34.5312 4.375-35.2083 4.375-36 4.375-36.75 4.4375-37.4062 4.5625-37.9687 4.6875-38.5312 4.85417-39 5.0625-39.375 5.27083-39.75 5.51042-40.0208 5.78125-40.1875 6.05208-40.3542 6.35417-40.4375 6.6875-40.4375L27.25-40.4375 27.25-63.1875C27.25-63.5208 27.3333-63.8229 27.5-64.0937 27.6667-64.3646 27.9271-64.5937 28.2812-64.7812 28.6354-64.9687 29.1146-65.1146 29.7187-65.2187 30.3229-65.3229 31.0417-65.375 31.875-65.375 32.75-65.375 33.4792-65.3229 34.0625-65.2187 34.6458-65.1146 35.1146-64.9687 35.4687-64.7812 35.8229-64.5937 36.0833-64.3646 36.25-64.0937 36.4167-63.8229 36.5-63.5208 36.5-63.1875L36.5-40.4375 57.0625-40.4375C57.3958-40.4375 57.6979-40.3542 57.9687-40.1875 58.2396-40.0208 58.4896-39.75 58.7187-39.375 58.9479-39 59.1146-38.5312 59.2187-37.9687 59.3229-37.4062 59.375-36.75 59.375-36Z" transform="matrix(1 0 0 1 699.014 178)"/><path d="M64.0625-23.1875C64.0625-20.6458 63.7396-18.3021 63.0937-16.1562 62.4479-14.0104 61.5417-12.0833 60.375-10.375 59.2083-8.66667 57.8021-7.16667 56.1562-5.875 54.5104-4.58333 52.6562-3.5 50.5937-2.625 48.5312-1.75 46.3229-1.09375 43.9687-0.65625 41.6146-0.21875 38.9167 0 35.875 0L14.75 0C13.7917 0 12.8854-0.322917 12.0312-0.96875 11.1771-1.61458 10.75-2.75 10.75-4.375L10.75-76.5C10.75-78.125 11.1771-79.2604 12.0312-79.9062 12.8854-80.5521 13.7917-80.875 14.75-80.875L33.125-80.875C37.9583-80.875 41.9167-80.4167 45-79.5 48.0833-78.5833 50.6562-77.25 52.7187-75.5 54.7812-73.75 56.3333-71.6042 57.375-69.0625 58.4167-66.5208 58.9375-63.6458 58.9375-60.4375 58.9375-58.5208 58.7083-56.6875 58.25-54.9375 57.7917-53.1875 57.1146-51.5729 56.2187-50.0937 55.3229-48.6146 54.1979-47.2917 52.8437-46.125 51.4896-44.9583 49.9375-44 48.1875-43.25 50.3958-42.8333 52.4583-42.0729 54.375-40.9687 56.2917-39.8646 57.9687-38.4583 59.4062-36.75 60.8437-35.0417 61.9792-33.0417 62.8125-30.75 63.6458-28.4583 64.0625-25.9375 64.0625-23.1875ZM47.875-59.375C47.875-61.3333 47.6048-63.1042 47.0644-64.6875 46.5241-66.2708 45.6719-67.6146 44.5078-68.7187 43.3437-69.8229 41.8265-70.6667 39.9561-71.25 38.0856-71.8333 35.6123-72.125 32.5361-72.125L21.4375-72.125 21.4375-45.9375 33.6582-45.9375C36.4434-45.9375 38.6881-46.3021 40.3926-47.0312 42.097-47.7604 43.5104-48.7396 44.6328-49.9687 45.7552-51.1979 46.5762-52.6354 47.0957-54.2812 47.6152-55.9271 47.875-57.625 47.875-59.375ZM52.75-22.5625C52.75-24.9792 52.3654-27.1042 51.5962-28.9375 50.827-30.7708 49.7043-32.3125 48.228-33.5625 46.7518-34.8125 44.9012-35.7604 42.6763-36.4062 40.4513-37.0521 37.6549-37.375 34.2871-37.375L21.4375-37.375 21.4375-8.875 37.0312-8.875C39.485-8.875 41.6266-9.16667 43.4561-9.75 45.2855-10.3333 46.8968-11.1979 48.29-12.3437 49.6833-13.4896 50.7749-14.9167 51.5649-16.625 52.355-18.3333 52.75-20.3125 52.75-22.5625ZM134.646-11.4375C134.646-10.7708 134.625-10.1875 134.583-9.6875 134.542-9.1875 134.469-8.75 134.365-8.375 134.26-8 134.125-7.66667 133.958-7.375 133.792-7.08333 133.5-6.72917 133.083-6.3125 132.667-5.89583 131.792-5.26042 130.458-4.40625 129.125-3.55208 127.469-2.71875 125.49-1.90625 123.51-1.09375 121.24-0.40625 118.677 0.15625 116.115 0.71875 113.312 1 110.271 1 105.021 1 100.281 0.125 96.0521-1.625 91.8229-3.375 88.2187-5.95833 85.2396-9.375 82.2604-12.7917 79.9687-17.0104 78.3646-22.0312 76.7604-27.0521 75.9583-32.8333 75.9583-39.375 75.9583-46.0833 76.8229-52.0625 78.5521-57.3125 80.2812-62.5625 82.7083-67.0104 85.8333-70.6562 88.9583-74.3021 92.6979-77.0833 97.0521-79 101.406-80.9167 106.229-81.875 111.521-81.875 113.854-81.875 116.125-81.6562 118.333-81.2187 120.542-80.7812 122.583-80.2292 124.458-79.5625 126.333-78.8958 128-78.125 129.458-77.25 130.917-76.375 131.927-75.6562 132.49-75.0937 133.052-74.5312 133.417-74.1042 133.583-73.8125 133.75-73.5208 133.885-73.1771 133.99-72.7812 134.094-72.3854 134.177-71.9167 134.24-71.375 134.302-70.8333 134.333-70.1875 134.333-69.4375 134.333-68.6042 134.291-67.8958 134.208-67.3125 134.124-66.7292 133.999-66.2396 133.831-65.8437 133.663-65.4479 133.464-65.1562 133.234-64.9687 133.003-64.7812 132.72-64.6875 132.385-64.6875 131.799-64.6875 130.982-65.0937 129.935-65.9062 128.887-66.7187 127.536-67.6146 125.882-68.5937 124.227-69.5729 122.216-70.4687 119.85-71.2812 117.483-72.0937 114.645-72.5 111.336-72.5 107.733-72.5 104.455-71.7812 101.502-70.3437 98.5491-68.9062 96.0254-66.7917 93.931-64 91.8366-61.2083 90.2134-57.8021 89.0614-53.7812 87.9093-49.7604 87.3333-45.1667 87.3333-40 87.3333-34.875 87.8883-30.3437 88.9984-26.4062 90.1084-22.4687 91.7002-19.1771 93.7738-16.5312 95.8473-13.8854 98.3921-11.8854 101.408-10.5312 104.424-9.17708 107.838-8.5 111.65-8.5 114.875-8.5 117.692-8.89583 120.1-9.6875 122.509-10.4792 124.561-11.3646 126.258-12.3437 127.954-13.3229 129.347-14.2083 130.436-15 131.525-15.7917 132.384-16.1875 133.012-16.1875 133.306-16.1875 133.557-16.125 133.766-16 133.976-15.875 134.143-15.6354 134.269-15.2812 134.395-14.9271 134.489-14.4375 134.552-13.8125 134.614-13.1875 134.646-12.3958 134.646-11.4375ZM160.948-6.8125C160.948-3.85417 160.458-1.88542 159.479-0.90625 158.5 0.0729166 156.719 0.5625 154.135 0.5625 151.635 0.5625 149.906 0.0833333 148.948-0.875 147.99-1.83333 147.51-3.75 147.51-6.625 147.51-9.58333 148-11.5521 148.979-12.5312 149.958-13.5104 151.74-14 154.323-14 156.823-14 158.552-13.5208 159.51-12.5625 160.469-11.6042 160.948-9.6875 160.948-6.8125ZM216.785-4.375C216.785-3.58333 216.723-2.90625 216.598-2.34375 216.473-1.78125 216.327-1.32292 216.16-0.96875 215.994-0.614583 215.765-0.364583 215.473-0.21875 215.181-0.0729167 214.869 0 214.535 0L179.91 0C179.035 0 178.317-0.291667 177.754-0.875 177.192-1.45833 176.91-2.4375 176.91-3.8125L176.91-5.9375C176.91-6.52083 176.952-7.04167 177.035-7.5 177.119-7.95833 177.244-8.41667 177.41-8.875 177.577-9.33333 177.806-9.82292 178.098-10.3437 178.39-10.8646 178.744-11.4583 179.16-12.125L203.973-50.75 179.91-50.75C179.244-50.75 178.712-51.0937 178.317-51.7812 177.921-52.4687 177.723-53.5833 177.723-55.125 177.723-55.875 177.765-56.5312 177.848-57.0937 177.931-57.6562 178.067-58.1146 178.254-58.4687 178.442-58.8229 178.671-59.0729 178.942-59.2187 179.212-59.3646 179.535-59.4375 179.91-59.4375L212.16-59.4375C212.619-59.4375 213.025-59.375 213.379-59.25 213.733-59.125 214.035-58.9167 214.285-58.625 214.535-58.3333 214.733-57.9583 214.879-57.5 215.025-57.0417 215.098-56.4583 215.098-55.75L215.098-53.75C215.098-53.1667 215.056-52.625 214.973-52.125 214.89-51.625 214.765-51.1354 214.598-50.6562 214.431-50.1771 214.202-49.6667 213.91-49.125 213.619-48.5833 213.265-47.9792 212.848-47.3125L188.16-8.6875 214.535-8.6875C214.869-8.6875 215.171-8.61458 215.442-8.46875 215.712-8.32292 215.942-8.08333 216.129-7.75 216.317-7.41667 216.473-6.96875 216.598-6.40625 216.723-5.84375 216.785-5.16667 216.785-4.375Z" fill="#FF0000" transform="matrix(1 0 0 1 792.399 178)"/><path d="M57.8125-48.1875C57.8125-46.5208 57.5729-45.3646 57.0937-44.7187 56.6146-44.0729 56.0625-43.75 55.4375-43.75L8.1875-43.75C7.5625-43.75 7.02083-44.0729 6.5625-44.7187 6.10417-45.3646 5.875-46.5208 5.875-48.1875 5.875-49.6875 6.08333-50.7917 6.5-51.5 6.91667-52.2083 7.47917-52.5625 8.1875-52.5625L55.4375-52.5625C56.1875-52.5625 56.7708-52.2083 57.1875-51.5 57.6042-50.7917 57.8125-49.6875 57.8125-48.1875ZM57.8125-23.875C57.8125-22.2083 57.5729-21.0625 57.0937-20.4375 56.6146-19.8125 56.0625-19.5 55.4375-19.5L8.1875-19.5C7.5625-19.5 7.02083-19.8125 6.5625-20.4375 6.10417-21.0625 5.875-22.2083 5.875-23.875 5.875-25.4167 6.08333-26.5417 6.5-27.25 6.91667-27.9583 7.47917-28.3125 8.1875-28.3125L55.4375-28.3125C56.1875-28.3125 56.7708-27.9583 57.1875-27.25 57.6042-26.5417 57.8125-25.4167 57.8125-23.875ZM151.323-4.25C151.323-3.45833 151.26-2.79167 151.135-2.25 151.01-1.70833 150.844-1.27083 150.635-0.9375 150.427-0.604167 150.187-0.364583 149.917-0.21875 149.646-0.0729167 149.365 0 149.073 0L106.823 0C106.531 0 106.26-0.0729167 106.01-0.21875 105.76-0.364583 105.521-0.604167 105.292-0.9375 105.062-1.27083 104.885-1.70833 104.76-2.25 104.635-2.79167 104.573-3.45833 104.573-4.25 104.573-5 104.635-5.64583 104.76-6.1875 104.885-6.72917 105.042-7.17708 105.229-7.53125 105.417-7.88542 105.646-8.15625 105.917-8.34375 106.187-8.53125 106.49-8.625 106.823-8.625L123.698-8.625 123.698-70.125 108.073-60.8125C107.281-60.3958 106.646-60.1458 106.167-60.0625 105.688-59.9792 105.302-60.0729 105.01-60.3437 104.719-60.6146 104.521-61.0625 104.417-61.6875 104.312-62.3125 104.26-63.1042 104.26-64.0625 104.26-64.7708 104.292-65.375 104.354-65.875 104.417-66.375 104.51-66.7917 104.635-67.125 104.76-67.4583 104.937-67.75 105.167-68 105.396-68.25 105.698-68.5 106.073-68.75L124.698-80.6875C124.865-80.8125 125.073-80.9167 125.323-81 125.573-81.0833 125.885-81.1667 126.26-81.25 126.635-81.3333 127.073-81.3854 127.573-81.4062 128.073-81.4271 128.698-81.4375 129.448-81.4375 130.448-81.4375 131.281-81.3958 131.948-81.3125 132.615-81.2292 133.135-81.1146 133.51-80.9687 133.885-80.8229 134.135-80.6354 134.26-80.4062 134.385-80.1771 134.448-79.9375 134.448-79.6875L134.448-8.625 149.073-8.625C149.406-8.625 149.719-8.53125 150.01-8.34375 150.302-8.15625 150.542-7.88542 150.729-7.53125 150.917-7.17708 151.062-6.72917 151.167-6.1875 151.271-5.64583 151.323-5 151.323-4.25Z" transform="matrix(1 0 0 1 1043.38 178)"/></g></g><text fill="#002060" font-family="Calibri,Calibri_MSFontService,sans-serif" font-weight="400" font-size="128" transform="matrix(1 0 0 1 2484.41 1720)">BC.x</text><text font-family="Calibri,Calibri_MSFontService,sans-serif" font-weight="400" font-size="128" transform="matrix(1 0 0 1 2739.93 1720)">+ </text><text fill="#00B050" font-family="Calibri,Calibri_MSFontService,sans-serif" font-weight="400" font-size="128" transform="matrix(1 0 0 1 2833.31 1720)">BC.y</text><text font-family="Calibri,Calibri_MSFontService,sans-serif" font-weight="400" font-size="128" transform="matrix(1 0 0 1 3086.29 1720)">+ </text><text fill="#FF0000" font-family="Calibri,Calibri_MSFontService,sans-serif" font-weight="400" font-size="128" transform="matrix(1 0 0 1 3179.68 1720)">BC.z</text><text font-family="Calibri,Calibri_MSFontService,sans-serif" font-weight="400" font-size="128" transform="matrix(1 0 0 1 3430.66 1720)">= 1</text></g></svg>