<svg width="4494" height="1629" xmlns="http://www.w3.org/2000/svg" xmlns:xlink="http://www.w3.org/1999/xlink" xml:space="preserve" overflow="hidden"><defs><filter id="fx0" x="-10%" y="-10%" width="120%" height="120%" filterUnits="userSpaceOnUse" primitiveUnits="userSpaceOnUse"><feComponentTransfer color-interpolation-filters="sRGB"><feFuncR type="discrete" tableValues="0 0"/><feFuncG type="discrete" tableValues="0 0"/><feFuncB type="discrete" tableValues="0 0"/><feFuncA type="linear" slope="0.4" intercept="0"/></feComponentTransfer><feGaussianBlur stdDeviation="6.11111 6.11111"/></filter><filter id="fx1" x="-10%" y="-10%" width="120%" height="120%" filterUnits="userSpaceOnUse" primitiveUnits="userSpaceOnUse"><feComponentTransfer color-interpolation-filters="sRGB"><feFuncR type="discrete" tableValues="0 0"/><feFuncG type="discrete" tableValues="0 0"/><feFuncB type="discrete" tableValues="0 0"/><feFuncA type="linear" slope="0.4" intercept="0"/></feComponentTransfer><feGaussianBlur stdDeviation="6.11111 6.11111"/></filter><filter id="fx2" x="-10%" y="-10%" width="120%" height="120%" filterUnits="userSpaceOnUse" primitiveUnits="userSpaceOnUse"><feComponentTransfer color-interpolation-filters="sRGB"><feFuncR type="discrete" tableValues="0 0"/><feFuncG type="discrete" tableValues="0 0"/><feFuncB type="discrete" tableValues="0 0"/><feFuncA type="linear" slope="0.4" intercept="0"/></feComponentTransfer><feGaussianBlur stdDeviation="6.11111 6.11111"/></filter><filter id="fx3" x="-10%" y="-10%" width="120%" height="120%" filterUnits="userSpaceOnUse" primitiveUnits="userSpaceOnUse"><feComponentTransfer color-interpolation-filters="sRGB"><feFuncR type="discrete" tableValues="0 0"/><feFuncG type="discrete" tableValues="0 0"/><feFuncB type="discrete" tableValues="0 0"/><feFuncA type="linear" slope="0.4" intercept="0"/></feComponentTransfer><feGaussianBlur stdDeviation="6.11111 6.11111"/></filter><filter id="fx4" x="-10%" y="-10%" width="120%" height="120%" filterUnits="userSpaceOnUse" primitiveUnits="userSpaceOnUse"><feComponentTransfer color-interpolation-filters="sRGB"><feFuncR type="discrete" tableValues="0 0"/><feFuncG type="discrete" tableValues="0 0"/><feFuncB type="discrete" tableValues="0 0"/><feFuncA type="linear" slope="0.4" intercept="0"/></feComponentTransfer><feGaussianBlur stdDeviation="6.11111 6.11111"/></filter><filter id="fx5" x="-10%" y="-10%" width="120%" height="120%" filterUnits="userSpaceOnUse" primitiveUnits="userSpaceOnUse"><feComponentTransfer color-interpolation-filters="sRGB"><feFuncR type="discrete" tableValues="0 0"/><feFuncG type="discrete" tableValues="0 0"/><feFuncB type="discrete" tableValues="0 0"/><feFuncA type="linear" slope="0.4" intercept="0"/></feComponentTransfer><feGaussianBlur stdDeviation="6.11111 6.11111"/></filter><filter id="fx6" x="-10%" y="-10%" width="120%" height="120%" filterUnits="userSpaceOnUse" primitiveUnits="userSpaceOnUse"><feComponentTransfer color-interpolation-filters="sRGB"><feFuncR type="discrete" tableValues="0 0"/><feFuncG type="discrete" tableValues="0 0"/><feFuncB type="discrete" tableValues="0 0"/><feFuncA type="linear" slope="0.4" intercept="0"/></feComponentTransfer><feGaussianBlur stdDeviation="6.11111 6.11111"/></filter><filter id="fx7" x="-10%" y="-10%" width="120%" height="120%" filterUnits="userSpaceOnUse" primitiveUnits="userSpaceOnUse"><feComponentTransfer color-interpolation-filters="sRGB"><feFuncR type="discrete" tableValues="0 0"/><feFuncG type="discrete" tableValues="0 0"/><feFuncB type="discrete" tableValues="0 0"/><feFuncA type="linear" slope="0.4" intercept="0"/></feComponentTransfer><feGaussianBlur stdDeviation="6.11111 6.11111"/></filter><filter id="fx8" x="-10%" y="-10%" width="120%" height="120%" filterUnits="userSpaceOnUse" primitiveUnits="userSpaceOnUse"><feComponentTransfer color-interpolation-filters="sRGB"><feFuncR type="discrete" tableValues="0 0"/><feFuncG type="discrete" tableValues="0 0"/><feFuncB type="discrete" tableValues="0 0"/><feFuncA type="linear" slope="0.4" intercept="0"/></feComponentTransfer><feGaussianBlur stdDeviation="6.11111 6.11111"/></filter><filter id="fx9" x="-10%" y="-10%" width="120%" height="120%" filterUnits="userSpaceOnUse" primitiveUnits="userSpaceOnUse"><feComponentTransfer color-interpolation-filters="sRGB"><feFuncR type="discrete" tableValues="0 0"/><feFuncG type="discrete" tableValues="0 0"/><feFuncB type="discrete" tableValues="0 0"/><feFuncA type="linear" slope="0.4" intercept="0"/></feComponentTransfer><feGaussianBlur stdDeviation="6.11111 6.11111"/></filter><filter id="fx10" x="-10%" y="-10%" width="120%" height="120%" filterUnits="userSpaceOnUse" primitiveUnits="userSpaceOnUse"><feComponentTransfer color-interpolation-filters="sRGB"><feFuncR type="discrete" tableValues="0 0"/><feFuncG type="discrete" tableValues="0 0"/><feFuncB type="discrete" tableValues="0 0"/><feFuncA type="linear" slope="0.4" intercept="0"/></feComponentTransfer><feGaussianBlur stdDeviation="6.11111 6.11111"/></filter><filter id="fx11" x="-10%" y="-10%" width="120%" height="120%" filterUnits="userSpaceOnUse" primitiveUnits="userSpaceOnUse"><feComponentTransfer color-interpolation-filters="sRGB"><feFuncR type="discrete" tableValues="0 0"/><feFuncG type="discrete" tableValues="0 0"/><feFuncB type="discrete" tableValues="0 0"/><feFuncA type="linear" slope="0.4" intercept="0"/></feComponentTransfer><feGaussianBlur stdDeviation="6.11111 6.11111"/></filter><filter id="fx12" x="-10%" y="-10%" width="120%" height="120%" filterUnits="userSpaceOnUse" primitiveUnits="userSpaceOnUse"><feComponentTransfer color-interpolation-filters="sRGB"><feFuncR type="discrete" tableValues="0 0"/><feFuncG type="discrete" tableValues="0 0"/><feFuncB type="discrete" tableValues="0 0"/><feFuncA type="linear" slope="0.4" intercept="0"/></feComponentTransfer><feGaussianBlur stdDeviation="6.11111 6.11111"/></filter><filter id="fx13" x="-10%" y="-10%" width="120%" height="120%" filterUnits="userSpaceOnUse" primitiveUnits="userSpaceOnUse"><feComponentTransfer color-interpolation-filters="sRGB"><feFuncR type="discrete" tableValues="0 0"/><feFuncG type="discrete" tableValues="0 0"/><feFuncB type="discrete" tableValues="0 0"/><feFuncA type="linear" slope="0.4" intercept="0"/></feComponentTransfer><feGaussianBlur stdDeviation="6.11111 6.11111"/></filter><filter id="fx14" x="-10%" y="-10%" width="120%" height="120%" filterUnits="userSpaceOnUse" primitiveUnits="userSpaceOnUse"><feComponentTransfer color-interpolation-filters="sRGB"><feFuncR type="discrete" tableValues="0 0"/><feFuncG type="discrete" tableValues="0 0"/><feFuncB type="discrete" tableValues="0 0"/><feFuncA type="linear" slope="0.4" intercept="0"/></feComponentTransfer><feGaussianBlur stdDeviation="6.11111 6.11111"/></filter><filter id="fx15" x="-10%" y="-10%" width="120%" height="120%" filterUnits="userSpaceOnUse" primitiveUnits="userSpaceOnUse"><feComponentTransfer color-interpolation-filters="sRGB"><feFuncR type="discrete" tableValues="0 0"/><feFuncG type="discrete" tableValues="0 0"/><feFuncB type="discrete" tableValues="0 0"/><feFuncA type="linear" slope="0.4" intercept="0"/></feComponentTransfer><feGaussianBlur stdDeviation="6.11111 6.11111"/></filter><filter id="fx16" x="-10%" y="-10%" width="120%" height="120%" filterUnits="userSpaceOnUse" primitiveUnits="userSpaceOnUse"><feComponentTransfer color-interpolation-filters="sRGB"><feFuncR type="discrete" tableValues="0 0"/><feFuncG type="discrete" tableValues="0 0"/><feFuncB type="discrete" tableValues="0 0"/><feFuncA type="linear" slope="0.4" intercept="0"/></feComponentTransfer><feGaussianBlur stdDeviation="6.11111 6.11111"/></filter><clipPath id="clip17"><rect x="0" y="358" width="4494" height="1629"/></clipPath><clipPath id="clip18"><rect x="-3" y="163" width="754" height="419"/></clipPath><clipPath id="clip19"><path d="M2001 1560.5C1952.68 1560.5 1913.5 1600.35 1913.5 1649.5 1913.5 1698.65 1952.68 1738.5 2001 1738.5 2049.32 1738.5 2088.5 1698.65 2088.5 1649.5 2088.5 1600.35 2049.32 1560.5 2001 1560.5ZM6.69658e-05 358 4494 358 4494 1987 6.69658e-05 1987Z" fill-rule="evenodd" clip-rule="evenodd"/></clipPath><clipPath id="clip20"><rect x="80" y="73" width="348" height="152"/></clipPath><clipPath id="clip21"><rect x="77" y="73" width="302" height="127"/></clipPath><clipPath id="clip22"><rect x="77" y="73" width="330" height="131"/></clipPath><clipPath id="clip23"><rect x="-3" y="163" width="382" height="395"/></clipPath><clipPath id="clip24"><path d="M963 488.5C914.675 488.5 875.5 528.347 875.5 577.5 875.5 626.653 914.675 666.5 963 666.5 1011.32 666.5 1050.5 626.653 1050.5 577.5 1050.5 528.347 1011.32 488.5 963 488.5ZM6.69658e-05 358 4494 358 4494 1987 6.69658e-05 1987Z" fill-rule="evenodd" clip-rule="evenodd"/></clipPath><clipPath id="clip25"><rect x="83" y="73" width="506" height="131"/></clipPath><clipPath id="clip26"><rect x="11" y="-3" width="509" height="307"/></clipPath><clipPath id="clip27"><rect x="11" y="-3" width="1198" height="640"/></clipPath></defs><g clip-path="url(#clip17)" transform="matrix(1 0 0 1 0 -358)"><g clip-path="url(#clip18)" filter="url(#fx0)" transform="translate(3580 357)"><g><path d="M12.2522-24.6198 61.4918-0.115376 36.9874 49.1242-12.2522 24.6198ZM110.731 24.389 159.971 48.8934 135.466 98.133 86.2269 73.6286ZM209.21 73.3978 258.45 97.9022 233.946 147.142 184.706 122.637ZM307.69 122.407 356.929 146.911 332.425 196.151 283.185 171.646ZM406.169 171.415 455.408 195.92 430.904 245.159 381.664 220.655ZM504.648 220.424 553.887 244.929 529.383 294.168 480.143 269.664ZM585.742 199.347 696.704 346.719 512.229 347.066Z" transform="matrix(1 0 0 -1 32.2227 532.942)"/></g></g><path d="M12.2522-24.6198 61.4918-0.115376 36.9874 49.1242-12.2522 24.6198ZM110.731 24.389 159.971 48.8934 135.466 98.133 86.2269 73.6286ZM209.21 73.3978 258.45 97.9022 233.946 147.142 184.706 122.637ZM307.69 122.407 356.929 146.911 332.425 196.151 283.185 171.646ZM406.169 171.415 455.408 195.92 430.904 245.159 381.664 220.655ZM504.648 220.424 553.887 244.929 529.383 294.168 480.143 269.664ZM585.742 199.347 696.704 346.719 512.229 347.066Z" transform="matrix(1 0 0 -1 3602.5 880.219)"/><g clip-path="url(#clip19)"><g filter="url(#fx1)" transform="translate(1901 1548)"><g><path d="M22.2229 111.223C22.2229 62.0695 61.398 22.2229 109.723 22.2229 158.048 22.2229 197.223 62.0695 197.223 111.223 197.223 160.376 158.048 200.223 109.723 200.223 61.398 200.223 22.2229 160.376 22.2229 111.223Z" stroke="#000000" stroke-width="5" stroke-miterlimit="8" fill-rule="evenodd"/></g></g></g><path d="M1913.5 1649.5C1913.5 1600.35 1952.68 1560.5 2001 1560.5 2049.32 1560.5 2088.5 1600.35 2088.5 1649.5 2088.5 1698.65 2049.32 1738.5 2001 1738.5 1952.68 1738.5 1913.5 1698.65 1913.5 1649.5Z" stroke="#000000" stroke-width="4.58333" stroke-miterlimit="8" fill-rule="evenodd"/><g filter="url(#fx2)" transform="translate(2321 1238)"><g><path d="M45.2227 32.2228 213.259 378.174" stroke="#000000" stroke-width="55" stroke-miterlimit="8" fill="none" fill-rule="evenodd"/></g></g><path d="M2356.5 1260.5 2524.54 1606.45" stroke="#000000" stroke-width="55" stroke-miterlimit="8" fill="none" fill-rule="evenodd"/><g filter="url(#fx3)" transform="translate(3361 725)"><g><path d="M44.2229 32.2229 223.794 398.656" stroke="#000000" stroke-width="55" stroke-miterlimit="8" fill="none" fill-rule="evenodd"/></g></g><path d="M3395.5 747.5 3575.07 1113.93" stroke="#000000" stroke-width="55" stroke-miterlimit="8" fill="none" fill-rule="evenodd"/><g clip-path="url(#clip20)" filter="url(#fx4)" transform="translate(117 445)"><g><path d="M78.5-41.375C78.5-34.8333 77.7292-28.9375 76.1875-23.6875 74.6458-18.4375 72.3437-13.9687 69.2812-10.2812 66.2187-6.59375 62.375-3.76042 57.75-1.78125 53.125 0.197917 47.7292 1.1875 41.5625 1.1875 35.4792 1.1875 30.2187 0.28125 25.7812-1.53125 21.3437-3.34375 17.6771-5.97917 14.7812-9.4375 11.8854-12.8958 9.72917-17.1875 8.3125-22.3125 6.89583-27.4375 6.1875-33.3333 6.1875-40 6.1875-46.375 6.95833-52.1667 8.5-57.375 10.0417-62.5833 12.3542-67.0104 15.4375-70.6562 18.5208-74.3021 22.375-77.1146 27-79.0937 31.625-81.0729 37.0208-82.0625 43.1875-82.0625 49.1458-82.0625 54.3333-81.1667 58.75-79.375 63.1667-77.5833 66.8437-74.9687 69.7812-71.5312 72.7187-68.0937 74.9062-63.8437 76.3437-58.7812 77.7812-53.7187 78.5-47.9167 78.5-41.375ZM67.125-40.625C67.125-45.2083 66.7192-49.4687 65.9077-53.4062 65.0962-57.3437 63.7436-60.7604 61.8501-63.6562 59.9565-66.5521 57.4285-68.8125 54.2661-70.4375 51.1037-72.0625 47.1921-72.875 42.5312-72.875 37.8704-72.875 33.9587-72 30.7959-70.25 27.6331-68.5 25.0635-66.1667 23.0869-63.25 21.1103-60.3333 19.6955-56.9271 18.8423-53.0312 17.9891-49.1354 17.5625-45.0417 17.5625-40.75 17.5625-36 17.9578-31.625 18.7485-27.625 19.5392-23.625 20.8709-20.1771 22.7437-17.2812 24.6164-14.3854 27.1237-12.1354 30.2656-10.5312 33.4075-8.92708 37.3503-8.125 42.0937-8.125 46.7962-8.125 50.7497-9 53.9541-10.75 57.1585-12.5 59.7386-14.8646 61.6943-17.8437 63.6501-20.8229 65.0441-24.2708 65.8765-28.1875 66.7088-32.1042 67.125-36.25 67.125-40.625ZM127.229-54.125C127.229-53.2083 127.208-52.4375 127.167-51.8125 127.125-51.1875 127.042-50.6979 126.917-50.3437 126.792-49.9896 126.635-49.7187 126.448-49.5312 126.26-49.3437 126-49.25 125.667-49.25 125.333-49.25 124.927-49.3437 124.448-49.5312 123.969-49.7187 123.427-49.9062 122.823-50.0937 122.219-50.2812 121.542-50.4583 120.792-50.625 120.042-50.7917 119.229-50.875 118.354-50.875 117.312-50.875 116.292-50.6667 115.292-50.25 114.292-49.8333 113.24-49.1458 112.135-48.1875 111.031-47.2292 109.875-45.9583 108.667-44.375 107.458-42.7917 106.125-40.8542 104.667-38.5625L104.667-1.5625C104.667-1.22917 104.583-0.947917 104.417-0.71875 104.25-0.489583 103.979-0.291667 103.604-0.125 103.229 0.0416667 102.708 0.166667 102.042 0.25 101.375 0.333333 100.521 0.375 99.4792 0.375 98.4792 0.375 97.6458 0.333333 96.9792 0.25 96.3125 0.166667 95.7812 0.0416667 95.3854-0.125 94.9896-0.291667 94.7187-0.489583 94.5729-0.71875 94.4271-0.947917 94.3542-1.22917 94.3542-1.5625L94.3542-57.8125C94.3542-58.1458 94.4167-58.4271 94.5417-58.6562 94.6667-58.8854 94.9167-59.0937 95.2917-59.2812 95.6667-59.4687 96.1458-59.5937 96.7292-59.6562 97.3125-59.7187 98.0833-59.75 99.0417-59.75 99.9583-59.75 100.719-59.7187 101.323-59.6562 101.927-59.5937 102.396-59.4687 102.729-59.2812 103.062-59.0937 103.302-58.8854 103.448-58.6562 103.594-58.4271 103.667-58.1458 103.667-57.8125L103.667-49.625C105.208-51.875 106.656-53.7083 108.01-55.125 109.365-56.5417 110.646-57.6562 111.854-58.4687 113.062-59.2812 114.26-59.8437 115.448-60.1562 116.635-60.4687 117.833-60.625 119.042-60.625 119.583-60.625 120.198-60.5937 120.885-60.5312 121.573-60.4687 122.292-60.3542 123.042-60.1875 123.792-60.0208 124.469-59.8333 125.073-59.625 125.677-59.4167 126.104-59.2083 126.354-59 126.604-58.7917 126.771-58.5937 126.854-58.4062 126.937-58.2187 127.01-57.9792 127.073-57.6875 127.135-57.3958 127.177-56.9687 127.198-56.4062 127.219-55.8437 127.229-55.0833 127.229-54.125ZM149.354-1.5625C149.354-1.22917 149.271-0.947917 149.104-0.71875 148.937-0.489583 148.667-0.291667 148.292-0.125 147.917 0.0416667 147.396 0.166667 146.729 0.25 146.062 0.333333 145.208 0.375 144.167 0.375 143.167 0.375 142.333 0.333333 141.667 0.25 141 0.166667 140.469 0.0416667 140.073-0.125 139.677-0.291667 139.406-0.489583 139.26-0.71875 139.115-0.947917 139.042-1.22917 139.042-1.5625L139.042-57.8125C139.042-58.1042 139.115-58.375 139.26-58.625 139.406-58.875 139.677-59.0833 140.073-59.25 140.469-59.4167 141-59.5417 141.667-59.625 142.333-59.7083 143.167-59.75 144.167-59.75 145.208-59.75 146.062-59.7083 146.729-59.625 147.396-59.5417 147.917-59.4167 148.292-59.25 148.667-59.0833 148.937-58.875 149.104-58.625 149.271-58.375 149.354-58.1042 149.354-57.8125ZM150.542-76.8125C150.542-74.3958 150.083-72.75 149.167-71.875 148.25-71 146.562-70.5625 144.104-70.5625 141.687-70.5625 140.031-70.9896 139.135-71.8437 138.24-72.6979 137.792-74.3125 137.792-76.6875 137.792-79.1042 138.25-80.75 139.167-81.625 140.083-82.5 141.771-82.9375 144.229-82.9375 146.646-82.9375 148.302-82.5104 149.198-81.6562 150.094-80.8021 150.542-79.1875 150.542-76.8125ZM215.26-55.25C215.26-53.7917 215.062-52.7396 214.667-52.0937 214.271-51.4479 213.76-51.125 213.135-51.125L205.073-51.125C206.531-49.625 207.552-47.9687 208.135-46.1562 208.719-44.3437 209.01-42.4583 209.01-40.5 209.01-37.25 208.49-34.375 207.448-31.875 206.406-29.375 204.917-27.2604 202.979-25.5312 201.042-23.8021 198.74-22.4792 196.073-21.5625 193.406-20.6458 190.448-20.1875 187.198-20.1875 184.906-20.1875 182.729-20.4896 180.667-21.0937 178.604-21.6979 177.01-22.4583 175.885-23.375 175.135-22.625 174.521-21.7708 174.042-20.8125 173.562-19.8542 173.323-18.75 173.323-17.5 173.323-16.0417 174-14.8333 175.354-13.875 176.708-12.9167 178.51-12.3958 180.76-12.3125L195.448-11.6875C198.24-11.6042 200.802-11.2187 203.135-10.5312 205.469-9.84375 207.49-8.86458 209.198-7.59375 210.906-6.32292 212.24-4.76042 213.198-2.90625 214.156-1.05208 214.635 1.10417 214.635 3.5625 214.635 6.14583 214.094 8.60417 213.01 10.9375 211.927 13.2708 210.271 15.3229 208.042 17.0937 205.812 18.8646 202.969 20.2604 199.51 21.2812 196.052 22.3021 191.969 22.8125 187.26 22.8125 182.719 22.8125 178.854 22.4271 175.667 21.6562 172.479 20.8854 169.865 19.8333 167.823 18.5 165.781 17.1667 164.302 15.5729 163.385 13.7187 162.469 11.8646 162.01 9.85417 162.01 7.6875 162.01 6.3125 162.177 4.97917 162.51 3.6875 162.844 2.39583 163.354 1.16667 164.042 0 164.729-1.16667 165.583-2.28125 166.604-3.34375 167.625-4.40625 168.802-5.45833 170.135-6.5 168.094-7.54167 166.583-8.85417 165.604-10.4375 164.625-12.0208 164.135-13.7292 164.135-15.5625 164.135-18.1042 164.656-20.375 165.698-22.375 166.74-24.375 168.031-26.1667 169.573-27.75 168.281-29.2917 167.26-31.0312 166.51-32.9687 165.76-34.9062 165.385-37.25 165.385-40 165.385-43.2083 165.927-46.0833 167.01-48.625 168.094-51.1667 169.594-53.3125 171.51-55.0625 173.427-56.8125 175.729-58.1562 178.417-59.0937 181.104-60.0312 184.031-60.5 187.198-60.5 188.906-60.5 190.5-60.4062 191.979-60.2187 193.458-60.0312 194.844-59.7708 196.135-59.4375L213.135-59.4375C213.844-59.4375 214.375-59.0937 214.729-58.4062 215.083-57.7187 215.26-56.6667 215.26-55.25ZM199.135-40.4375C199.135-44.2708 198.083-47.2604 195.979-49.4062 193.875-51.5521 190.885-52.625 187.01-52.625 185.01-52.625 183.271-52.2917 181.792-51.625 180.312-50.9583 179.083-50.0417 178.104-48.875 177.125-47.7083 176.396-46.3646 175.917-44.8437 175.437-43.3229 175.198-41.7292 175.198-40.0625 175.198-36.3542 176.25-33.4375 178.354-31.3125 180.458-29.1875 183.406-28.125 187.198-28.125 189.24-28.125 191.01-28.4479 192.51-29.0937 194.01-29.7396 195.25-30.6354 196.229-31.7812 197.208-32.9271 197.937-34.25 198.417-35.75 198.896-37.25 199.135-38.8125 199.135-40.4375ZM204.323 4.125C204.323 1.70833 203.333-0.15625 201.354-1.46875 199.375-2.78125 196.698-3.47917 193.323-3.5625L178.76-4.0625C177.427-3.02083 176.333-2.03125 175.479-1.09375 174.625-0.15625 173.948 0.739583 173.448 1.59375 172.948 2.44792 172.604 3.29167 172.417 4.125 172.229 4.95833 172.135 5.8125 172.135 6.6875 172.135 9.39583 173.51 11.4479 176.26 12.8437 179.01 14.2396 182.844 14.9375 187.76 14.9375 190.885 14.9375 193.5 14.6354 195.604 14.0312 197.708 13.4271 199.406 12.625 200.698 11.625 201.99 10.625 202.917 9.47917 203.479 8.1875 204.042 6.89583 204.323 5.54167 204.323 4.125ZM238.729-1.5625C238.729-1.22917 238.646-0.947917 238.479-0.71875 238.312-0.489583 238.042-0.291667 237.667-0.125 237.292 0.0416667 236.771 0.166667 236.104 0.25 235.437 0.333333 234.583 0.375 233.542 0.375 232.542 0.375 231.708 0.333333 231.042 0.25 230.375 0.166667 229.844 0.0416667 229.448-0.125 229.052-0.291667 228.781-0.489583 228.635-0.71875 228.49-0.947917 228.417-1.22917 228.417-1.5625L228.417-57.8125C228.417-58.1042 228.49-58.375 228.635-58.625 228.781-58.875 229.052-59.0833 229.448-59.25 229.844-59.4167 230.375-59.5417 231.042-59.625 231.708-59.7083 232.542-59.75 233.542-59.75 234.583-59.75 235.437-59.7083 236.104-59.625 236.771-59.5417 237.292-59.4167 237.667-59.25 238.042-59.0833 238.312-58.875 238.479-58.625 238.646-58.375 238.729-58.1042 238.729-57.8125ZM239.917-76.8125C239.917-74.3958 239.458-72.75 238.542-71.875 237.625-71 235.937-70.5625 233.479-70.5625 231.062-70.5625 229.406-70.9896 228.51-71.8437 227.615-72.6979 227.167-74.3125 227.167-76.6875 227.167-79.1042 227.625-80.75 228.542-81.625 229.458-82.5 231.146-82.9375 233.604-82.9375 236.021-82.9375 237.677-82.5104 238.573-81.6562 239.469-80.8021 239.917-79.1875 239.917-76.8125ZM306.073-1.5625C306.073-1.22917 305.99-0.947917 305.823-0.71875 305.656-0.489583 305.385-0.291667 305.01-0.125 304.635 0.0416667 304.115 0.166667 303.448 0.25 302.781 0.333333 301.948 0.375 300.948 0.375 299.906 0.375 299.052 0.333333 298.385 0.25 297.719 0.166667 297.198 0.0416667 296.823-0.125 296.448-0.291667 296.177-0.489583 296.01-0.71875 295.844-0.947917 295.76-1.22917 295.76-1.5625L295.76-34.5C295.76-37.7083 295.51-40.2917 295.01-42.25 294.51-44.2083 293.781-45.8958 292.823-47.3125 291.865-48.7292 290.625-49.8125 289.104-50.5625 287.583-51.3125 285.823-51.6875 283.823-51.6875 281.24-51.6875 278.656-50.7708 276.073-48.9375 273.49-47.1042 270.781-44.4167 267.948-40.875L267.948-1.5625C267.948-1.22917 267.865-0.947917 267.698-0.71875 267.531-0.489583 267.26-0.291667 266.885-0.125 266.51 0.0416667 265.99 0.166667 265.323 0.25 264.656 0.333333 263.802 0.375 262.76 0.375 261.76 0.375 260.927 0.333333 260.26 0.25 259.594 0.166667 259.062 0.0416667 258.667-0.125 258.271-0.291667 258-0.489583 257.854-0.71875 257.708-0.947917 257.635-1.22917 257.635-1.5625L257.635-57.8125C257.635-58.1458 257.698-58.4271 257.823-58.6562 257.948-58.8854 258.198-59.0937 258.573-59.2812 258.948-59.4687 259.427-59.5937 260.01-59.6562 260.594-59.7187 261.365-59.75 262.323-59.75 263.24-59.75 264-59.7187 264.604-59.6562 265.208-59.5937 265.677-59.4687 266.01-59.2812 266.344-59.0937 266.583-58.8854 266.729-58.6562 266.875-58.4271 266.948-58.1458 266.948-57.8125L266.948-50.375C270.115-53.9167 273.271-56.5104 276.417-58.1562 279.562-59.8021 282.74-60.625 285.948-60.625 289.698-60.625 292.854-59.9896 295.417-58.7187 297.979-57.4479 300.052-55.75 301.635-53.625 303.219-51.5 304.354-49.0104 305.042-46.1562 305.729-43.3021 306.073-39.875 306.073-35.875Z" transform="matrix(1 0 0 1 97.4793 179)"/></g></g><text font-family="Calibri,Calibri_MSFontService,sans-serif" font-weight="400" font-size="128" transform="matrix(1 0 0 1 204.757 614)">Origin</text><g clip-path="url(#clip21)" filter="url(#fx5)" transform="translate(117 1222)"><g><path d="M61.4375-76.25C61.4375-75.4583 61.3958-74.7708 61.3125-74.1875 61.2292-73.6042 61.0937-73.1354 60.9062-72.7812 60.7187-72.4271 60.4896-72.1667 60.2187-72 59.9479-71.8333 59.6458-71.75 59.3125-71.75L36.5625-71.75 36.5625-1.625C36.5625-1.29167 36.4792-1 36.3125-0.75 36.1458-0.5 35.8542-0.302083 35.4375-0.15625 35.0208-0.0104167 34.4687 0.114583 33.7812 0.21875 33.0937 0.322917 32.2292 0.375 31.1875 0.375 30.1875 0.375 29.3333 0.322917 28.625 0.21875 27.9167 0.114583 27.3542-0.0104167 26.9375-0.15625 26.5208-0.302083 26.2292-0.5 26.0625-0.75 25.8958-1 25.8125-1.29167 25.8125-1.625L25.8125-71.75 3.0625-71.75C2.72917-71.75 2.42708-71.8333 2.15625-72 1.88542-72.1667 1.66667-72.4271 1.5-72.7812 1.33333-73.1354 1.19792-73.6042 1.09375-74.1875 0.989583-74.7708 0.9375-75.4583 0.9375-76.25 0.9375-77.0417 0.989583-77.7396 1.09375-78.3437 1.19792-78.9479 1.33333-79.4375 1.5-79.8125 1.66667-80.1875 1.88542-80.4583 2.15625-80.625 2.42708-80.7917 2.72917-80.875 3.0625-80.875L59.3125-80.875C59.6458-80.875 59.9479-80.7917 60.2187-80.625 60.4896-80.4583 60.7187-80.1875 60.9062-79.8125 61.0937-79.4375 61.2292-78.9479 61.3125-78.3437 61.3958-77.7396 61.4375-77.0417 61.4375-76.25ZM161.135-1.625C161.135-1.29167 161.05-1 160.878-0.75 160.707-0.5 160.406-0.302083 159.977-0.15625 159.547-0.0104167 159 0.114583 158.335 0.21875 157.67 0.322917 156.801 0.375 155.728 0.375 154.741 0.375 153.894 0.322917 153.186 0.21875 152.478 0.114583 151.92-0.0104167 151.512-0.15625 151.104-0.302083 150.814-0.5 150.643-0.75 150.471-1 150.385-1.29167 150.385-1.625L150.385-72.0625 150.26-72.0625 121.76-1.3125C121.635-1.02083 121.458-0.770833 121.229-0.5625 121-0.354167 120.667-0.177083 120.229-0.03125 119.792 0.114583 119.271 0.21875 118.667 0.28125 118.062 0.34375 117.344 0.375 116.51 0.375 115.635 0.375 114.885 0.333333 114.26 0.25 113.635 0.166667 113.115 0.0520833 112.698-0.09375 112.281-0.239583 111.958-0.416667 111.729-0.625 111.5-0.833333 111.344-1.0625 111.26-1.3125L84.0104-72.0625 83.9479-72.0625 83.9479-1.625C83.9479-1.29167 83.8621-1 83.6906-0.75 83.519-0.5 83.2186-0.302083 82.7892-0.15625 82.3599-0.0104167 81.8019 0.114583 81.1154 0.21875 80.4289 0.322917 79.5491 0.375 78.4762 0.375 77.4463 0.375 76.5881 0.322917 75.9015 0.21875 75.215 0.114583 74.6678-0.0104167 74.2599-0.15625 73.852-0.302083 73.5731-0.5 73.423-0.75 73.2729-1 73.1979-1.29167 73.1979-1.625L73.1979-76C73.1979-77.75 73.6632-79 74.5939-79.75 75.5246-80.5 76.5612-80.875 77.7038-80.875L84.3044-80.875C85.6579-80.875 86.8424-80.75 87.8581-80.5 88.8737-80.25 89.7622-79.8542 90.5236-79.3125 91.285-78.7708 91.9196-78.0833 92.4274-77.25 92.9352-76.4167 93.3795-75.4375 93.7604-74.3125L116.885-15.75 117.198-15.75 141.26-74.125C141.726-75.375 142.234-76.4375 142.784-77.3125 143.335-78.1875 143.938-78.8854 144.594-79.4062 145.251-79.9271 145.981-80.3021 146.785-80.5312 147.589-80.7604 148.52-80.875 149.579-80.875L156.5-80.875C157.135-80.875 157.738-80.7812 158.31-80.5937 158.881-80.4062 159.368-80.1146 159.77-79.7187 160.173-79.3229 160.501-78.8229 160.755-78.2187 161.008-77.6146 161.135-76.875 161.135-76ZM192.323-1.5625C192.323-1.22917 192.24-0.947917 192.073-0.71875 191.906-0.489583 191.635-0.291667 191.26-0.125 190.885 0.0416667 190.365 0.166667 189.698 0.25 189.031 0.333333 188.177 0.375 187.135 0.375 186.135 0.375 185.302 0.333333 184.635 0.25 183.969 0.166667 183.437 0.0416667 183.042-0.125 182.646-0.291667 182.375-0.489583 182.229-0.71875 182.083-0.947917 182.01-1.22917 182.01-1.5625L182.01-57.8125C182.01-58.1042 182.083-58.375 182.229-58.625 182.375-58.875 182.646-59.0833 183.042-59.25 183.437-59.4167 183.969-59.5417 184.635-59.625 185.302-59.7083 186.135-59.75 187.135-59.75 188.177-59.75 189.031-59.7083 189.698-59.625 190.365-59.5417 190.885-59.4167 191.26-59.25 191.635-59.0833 191.906-58.875 192.073-58.625 192.24-58.375 192.323-58.1042 192.323-57.8125ZM193.51-76.8125C193.51-74.3958 193.052-72.75 192.135-71.875 191.219-71 189.531-70.5625 187.073-70.5625 184.656-70.5625 183-70.9896 182.104-71.8437 181.208-72.6979 180.76-74.3125 180.76-76.6875 180.76-79.1042 181.219-80.75 182.135-81.625 183.052-82.5 184.74-82.9375 187.198-82.9375 189.615-82.9375 191.271-82.5104 192.167-81.6562 193.062-80.8021 193.51-79.1875 193.51-76.8125ZM259.667-1.5625C259.667-1.22917 259.583-0.947917 259.417-0.71875 259.25-0.489583 258.979-0.291667 258.604-0.125 258.229 0.0416667 257.708 0.166667 257.042 0.25 256.375 0.333333 255.542 0.375 254.542 0.375 253.5 0.375 252.646 0.333333 251.979 0.25 251.312 0.166667 250.792 0.0416667 250.417-0.125 250.042-0.291667 249.771-0.489583 249.604-0.71875 249.437-0.947917 249.354-1.22917 249.354-1.5625L249.354-34.5C249.354-37.7083 249.104-40.2917 248.604-42.25 248.104-44.2083 247.375-45.8958 246.417-47.3125 245.458-48.7292 244.219-49.8125 242.698-50.5625 241.177-51.3125 239.417-51.6875 237.417-51.6875 234.833-51.6875 232.25-50.7708 229.667-48.9375 227.083-47.1042 224.375-44.4167 221.542-40.875L221.542-1.5625C221.542-1.22917 221.458-0.947917 221.292-0.71875 221.125-0.489583 220.854-0.291667 220.479-0.125 220.104 0.0416667 219.583 0.166667 218.917 0.25 218.25 0.333333 217.396 0.375 216.354 0.375 215.354 0.375 214.521 0.333333 213.854 0.25 213.187 0.166667 212.656 0.0416667 212.26-0.125 211.865-0.291667 211.594-0.489583 211.448-0.71875 211.302-0.947917 211.229-1.22917 211.229-1.5625L211.229-57.8125C211.229-58.1458 211.292-58.4271 211.417-58.6562 211.542-58.8854 211.792-59.0937 212.167-59.2812 212.542-59.4687 213.021-59.5937 213.604-59.6562 214.187-59.7187 214.958-59.75 215.917-59.75 216.833-59.75 217.594-59.7187 218.198-59.6562 218.802-59.5937 219.271-59.4687 219.604-59.2812 219.937-59.0937 220.177-58.8854 220.323-58.6562 220.469-58.4271 220.542-58.1458 220.542-57.8125L220.542-50.375C223.708-53.9167 226.865-56.5104 230.01-58.1562 233.156-59.8021 236.333-60.625 239.542-60.625 243.292-60.625 246.448-59.9896 249.01-58.7187 251.573-57.4479 253.646-55.75 255.229-53.625 256.812-51.5 257.948-49.0104 258.635-46.1562 259.323-43.3021 259.667-39.875 259.667-35.875Z" transform="matrix(1 0 0 1 97.4793 178)"/></g></g><text font-family="Calibri,Calibri_MSFontService,sans-serif" font-weight="400" font-size="128" transform="matrix(1 0 0 1 204.757 1391)">TMin</text><g clip-path="url(#clip22)" filter="url(#fx6)" transform="translate(117 1628)"><g><path d="M61.4375-76.25C61.4375-75.4583 61.3958-74.7708 61.3125-74.1875 61.2292-73.6042 61.0937-73.1354 60.9062-72.7812 60.7187-72.4271 60.4896-72.1667 60.2187-72 59.9479-71.8333 59.6458-71.75 59.3125-71.75L36.5625-71.75 36.5625-1.625C36.5625-1.29167 36.4792-1 36.3125-0.75 36.1458-0.5 35.8542-0.302083 35.4375-0.15625 35.0208-0.0104167 34.4687 0.114583 33.7812 0.21875 33.0937 0.322917 32.2292 0.375 31.1875 0.375 30.1875 0.375 29.3333 0.322917 28.625 0.21875 27.9167 0.114583 27.3542-0.0104167 26.9375-0.15625 26.5208-0.302083 26.2292-0.5 26.0625-0.75 25.8958-1 25.8125-1.29167 25.8125-1.625L25.8125-71.75 3.0625-71.75C2.72917-71.75 2.42708-71.8333 2.15625-72 1.88542-72.1667 1.66667-72.4271 1.5-72.7812 1.33333-73.1354 1.19792-73.6042 1.09375-74.1875 0.989583-74.7708 0.9375-75.4583 0.9375-76.25 0.9375-77.0417 0.989583-77.7396 1.09375-78.3437 1.19792-78.9479 1.33333-79.4375 1.5-79.8125 1.66667-80.1875 1.88542-80.4583 2.15625-80.625 2.42708-80.7917 2.72917-80.875 3.0625-80.875L59.3125-80.875C59.6458-80.875 59.9479-80.7917 60.2187-80.625 60.4896-80.4583 60.7187-80.1875 60.9062-79.8125 61.0937-79.4375 61.2292-78.9479 61.3125-78.3437 61.3958-77.7396 61.4375-77.0417 61.4375-76.25ZM161.135-1.625C161.135-1.29167 161.05-1 160.878-0.75 160.707-0.5 160.406-0.302083 159.977-0.15625 159.547-0.0104167 159 0.114583 158.335 0.21875 157.67 0.322917 156.801 0.375 155.728 0.375 154.741 0.375 153.894 0.322917 153.186 0.21875 152.478 0.114583 151.92-0.0104167 151.512-0.15625 151.104-0.302083 150.814-0.5 150.643-0.75 150.471-1 150.385-1.29167 150.385-1.625L150.385-72.0625 150.26-72.0625 121.76-1.3125C121.635-1.02083 121.458-0.770833 121.229-0.5625 121-0.354167 120.667-0.177083 120.229-0.03125 119.792 0.114583 119.271 0.21875 118.667 0.28125 118.062 0.34375 117.344 0.375 116.51 0.375 115.635 0.375 114.885 0.333333 114.26 0.25 113.635 0.166667 113.115 0.0520833 112.698-0.09375 112.281-0.239583 111.958-0.416667 111.729-0.625 111.5-0.833333 111.344-1.0625 111.26-1.3125L84.0104-72.0625 83.9479-72.0625 83.9479-1.625C83.9479-1.29167 83.8621-1 83.6906-0.75 83.519-0.5 83.2186-0.302083 82.7892-0.15625 82.3599-0.0104167 81.8019 0.114583 81.1154 0.21875 80.4289 0.322917 79.5491 0.375 78.4762 0.375 77.4463 0.375 76.5881 0.322917 75.9015 0.21875 75.215 0.114583 74.6678-0.0104167 74.2599-0.15625 73.852-0.302083 73.5731-0.5 73.423-0.75 73.2729-1 73.1979-1.29167 73.1979-1.625L73.1979-76C73.1979-77.75 73.6632-79 74.5939-79.75 75.5246-80.5 76.5612-80.875 77.7038-80.875L84.3044-80.875C85.6579-80.875 86.8424-80.75 87.8581-80.5 88.8737-80.25 89.7622-79.8542 90.5236-79.3125 91.285-78.7708 91.9196-78.0833 92.4274-77.25 92.9352-76.4167 93.3795-75.4375 93.7604-74.3125L116.885-15.75 117.198-15.75 141.26-74.125C141.726-75.375 142.234-76.4375 142.784-77.3125 143.335-78.1875 143.938-78.8854 144.594-79.4062 145.251-79.9271 145.981-80.3021 146.785-80.5312 147.589-80.7604 148.52-80.875 149.579-80.875L156.5-80.875C157.135-80.875 157.738-80.7812 158.31-80.5937 158.881-80.4062 159.368-80.1146 159.77-79.7187 160.173-79.3229 160.501-78.8229 160.755-78.2187 161.008-77.6146 161.135-76.875 161.135-76ZM224.385-1.5C224.385-1 224.219-0.625 223.885-0.375 223.552-0.125 223.094 0.0625 222.51 0.1875 221.927 0.3125 221.073 0.375 219.948 0.375 218.865 0.375 218 0.3125 217.354 0.1875 216.708 0.0625 216.24-0.125 215.948-0.375 215.656-0.625 215.51-1 215.51-1.5L215.51-7.125C213.052-4.5 210.312-2.45833 207.292-1 204.271 0.458333 201.073 1.1875 197.698 1.1875 194.74 1.1875 192.062 0.802083 189.667 0.03125 187.271-0.739583 185.229-1.85417 183.542-3.3125 181.854-4.77083 180.542-6.5625 179.604-8.6875 178.667-10.8125 178.198-13.2292 178.198-15.9375 178.198-19.1042 178.844-21.8542 180.135-24.1875 181.427-26.5208 183.281-28.4583 185.698-30 188.115-31.5417 191.073-32.6979 194.573-33.4687 198.073-34.2396 202.01-34.625 206.385-34.625L214.135-34.625 214.135-39C214.135-41.1667 213.906-43.0833 213.448-44.75 212.99-46.4167 212.25-47.8021 211.229-48.9062 210.208-50.0104 208.885-50.8437 207.26-51.4062 205.635-51.9687 203.635-52.25 201.26-52.25 198.719-52.25 196.437-51.9479 194.417-51.3437 192.396-50.7396 190.625-50.0729 189.104-49.3437 187.583-48.6146 186.312-47.9479 185.292-47.3437 184.271-46.7396 183.51-46.4375 183.01-46.4375 182.677-46.4375 182.385-46.5208 182.135-46.6875 181.885-46.8542 181.667-47.1042 181.479-47.4375 181.292-47.7708 181.156-48.1979 181.073-48.7187 180.99-49.2396 180.948-49.8125 180.948-50.4375 180.948-51.4792 181.021-52.3021 181.167-52.9062 181.312-53.5104 181.667-54.0833 182.229-54.625 182.792-55.1667 183.76-55.8021 185.135-56.5312 186.51-57.2604 188.094-57.9271 189.885-58.5312 191.677-59.1354 193.635-59.6354 195.76-60.0312 197.885-60.4271 200.031-60.625 202.198-60.625 206.24-60.625 209.677-60.1667 212.51-59.25 215.344-58.3333 217.635-56.9896 219.385-55.2187 221.135-53.4479 222.406-51.25 223.198-48.625 223.99-46 224.385-42.9375 224.385-39.4375ZM214.135-27.1875 205.323-27.1875C202.49-27.1875 200.031-26.9479 197.948-26.4687 195.865-25.9896 194.135-25.2812 192.76-24.3437 191.385-23.4062 190.375-22.2812 189.729-20.9687 189.083-19.6562 188.76-18.1458 188.76-16.4375 188.76-13.5208 189.687-11.1979 191.542-9.46875 193.396-7.73958 195.99-6.875 199.323-6.875 202.031-6.875 204.542-7.5625 206.854-8.9375 209.167-10.3125 211.594-12.4167 214.135-15.25ZM284.746-2.75C285.079-2.16667 285.246-1.67708 285.246-1.28125 285.246-0.885417 285.048-0.5625 284.652-0.3125 284.256-0.0625 283.652 0.114583 282.84 0.21875 282.027 0.322917 280.975 0.375 279.683 0.375 278.433 0.375 277.444 0.34375 276.715 0.28125 275.985 0.21875 275.402 0.114583 274.965-0.03125 274.527-0.177083 274.194-0.364583 273.965-0.59375 273.735-0.822917 273.537-1.08333 273.371-1.375L259.871-23.6875 246.433-1.375C246.267-1.08333 246.069-0.822917 245.84-0.59375 245.61-0.364583 245.277-0.177083 244.84-0.03125 244.402 0.114583 243.829 0.21875 243.121 0.28125 242.412 0.34375 241.475 0.375 240.308 0.375 239.1 0.375 238.11 0.322917 237.34 0.21875 236.569 0.114583 236.006-0.0625 235.652-0.3125 235.298-0.5625 235.131-0.885417 235.152-1.28125 235.173-1.67708 235.371-2.16667 235.746-2.75L253.246-30.1875 236.683-56.625C236.35-57.2083 236.173-57.6979 236.152-58.0937 236.131-58.4896 236.319-58.8229 236.715-59.0937 237.11-59.3646 237.715-59.5417 238.527-59.625 239.34-59.7083 240.412-59.75 241.746-59.75 242.954-59.75 243.923-59.7187 244.652-59.6562 245.381-59.5937 245.954-59.5 246.371-59.375 246.787-59.25 247.1-59.0833 247.308-58.875 247.517-58.6667 247.704-58.4167 247.871-58.125L260.683-37.1875 273.683-58.125C273.85-58.375 274.037-58.6042 274.246-58.8125 274.454-59.0208 274.735-59.1979 275.09-59.3437 275.444-59.4896 275.944-59.5937 276.59-59.6562 277.235-59.7187 278.121-59.75 279.246-59.75 280.454-59.75 281.444-59.7083 282.215-59.625 282.985-59.5417 283.558-59.3854 283.933-59.1562 284.308-58.9271 284.475-58.6042 284.433-58.1875 284.392-57.7708 284.183-57.25 283.808-56.625L267.371-30.5Z" transform="matrix(1 0 0 1 97.4793 178)"/></g></g><text font-family="Calibri,Calibri_MSFontService,sans-serif" font-weight="400" font-size="128" transform="matrix(1 0 0 1 204.757 1797)">TMax</text><g clip-path="url(#clip23)" filter="url(#fx7)" transform="translate(775 578)"><g><path d="M19.8458-19.0366 57.9191 20.655 18.2275 58.7283-19.8458 19.0366ZM95.9924 60.3466 134.066 100.038 94.374 138.111 56.3008 98.4199ZM172.139 139.73 210.212 179.421 170.521 217.495 132.447 177.803ZM261.179 153.103 315.862 329.288 142.104 267.323Z" transform="matrix(1 0 0 -1 40.2226 515.51)"/></g></g><path d="M19.8458-19.0366 57.9191 20.655 18.2275 58.7283-19.8458 19.0366ZM95.9924 60.3466 134.066 100.038 94.374 138.111 56.3008 98.4199ZM172.139 139.73 210.212 179.421 170.521 217.495 132.447 177.803ZM261.179 153.103 315.862 329.288 142.104 267.323Z" transform="matrix(1 0 0 -1 805.5 1083.79)"/><g clip-path="url(#clip24)"><g filter="url(#fx8)" transform="translate(863 476)"><g><path d="M22.2228 111.223C22.2228 62.0694 61.3979 22.2227 109.723 22.2227 158.048 22.2227 197.223 62.0694 197.223 111.223 197.223 160.376 158.048 200.223 109.723 200.223 61.3979 200.223 22.2228 160.376 22.2228 111.223Z" stroke="#000000" stroke-width="5" stroke-miterlimit="8" fill-rule="evenodd"/></g></g></g><path d="M875.5 577.5C875.5 528.347 914.675 488.5 963 488.5 1011.32 488.5 1050.5 528.347 1050.5 577.5 1050.5 626.653 1011.32 666.5 963 666.5 914.675 666.5 875.5 626.653 875.5 577.5Z" stroke="#000000" stroke-width="4.58333" stroke-miterlimit="8" fill-rule="evenodd"/><g filter="url(#fx9)" transform="translate(893 1164)"><g><path d="M47.2228 20.2228 47.2231 376.275" stroke="#000000" stroke-width="55" stroke-miterlimit="8" fill="none" fill-rule="evenodd"/></g></g><path d="M930.5 1174.5 930.5 1530.55" stroke="#000000" stroke-width="55" stroke-miterlimit="8" fill="none" fill-rule="evenodd"/><g filter="url(#fx10)" transform="translate(782 1561)"><g><path d="M47.2227 20.2229 47.2231 376.275" stroke="#000000" stroke-width="55" stroke-miterlimit="8" fill="none" fill-rule="evenodd"/></g></g><path d="M819.5 1571.5 819.5 1927.55" stroke="#000000" stroke-width="55" stroke-miterlimit="8" fill="none" fill-rule="evenodd"/><g filter="url(#fx11)" transform="translate(988 1561)"><g><path d="M47.2227 20.2229 47.223 376.275" stroke="#000000" stroke-width="55" stroke-miterlimit="8" fill="none" fill-rule="evenodd"/></g></g><path d="M1025.5 1571.5 1025.5 1927.55" stroke="#000000" stroke-width="55" stroke-miterlimit="8" fill="none" fill-rule="evenodd"/><g clip-path="url(#clip25)" filter="url(#fx12)" transform="translate(117 790)"><g><path d="M72.9375-41.625C72.9375-34.625 72.0417-28.5104 70.25-23.2812 68.4583-18.0521 65.8437-13.7187 62.4062-10.2812 58.9687-6.84375 54.75-4.27083 49.75-2.5625 44.75-0.854167 38.7917 0 31.875 0L14.75 0C13.7917 0 12.8854-0.322917 12.0312-0.96875 11.1771-1.61458 10.75-2.75 10.75-4.375L10.75-76.5C10.75-78.125 11.1771-79.2604 12.0312-79.9062 12.8854-80.5521 13.7917-80.875 14.75-80.875L33.0625-80.875C40.0625-80.875 45.9792-79.9687 50.8125-78.1562 55.6458-76.3437 59.6979-73.7396 62.9687-70.3437 66.2396-66.9479 68.7187-62.8333 70.4062-58 72.0937-53.1667 72.9375-47.7083 72.9375-41.625ZM61.625-41.1875C61.625-45.5625 61.0833-49.6354 60-53.4062 58.9167-57.1771 57.2187-60.4375 54.9062-63.1875 52.5937-65.9375 49.6667-68.0833 46.125-69.625 42.5833-71.1667 38.0208-71.9375 32.4375-71.9375L21.5-71.9375 21.5-9 32.5625-9C37.7292-9 42.0833-9.64583 45.625-10.9375 49.1667-12.2292 52.125-14.2083 54.5-16.875 56.875-19.5417 58.6562-22.8854 59.8437-26.9062 61.0312-30.9271 61.625-35.6875 61.625-41.1875ZM98.9375-1.5625C98.9375-1.22917 98.8542-0.947917 98.6875-0.71875 98.5208-0.489583 98.25-0.291667 97.875-0.125 97.5 0.0416667 96.9792 0.166667 96.3125 0.25 95.6458 0.333333 94.7917 0.375 93.75 0.375 92.75 0.375 91.9167 0.333333 91.25 0.25 90.5833 0.166667 90.0521 0.0416667 89.6562-0.125 89.2604-0.291667 88.9896-0.489583 88.8437-0.71875 88.6979-0.947917 88.625-1.22917 88.625-1.5625L88.625-57.8125C88.625-58.1042 88.6979-58.375 88.8437-58.625 88.9896-58.875 89.2604-59.0833 89.6562-59.25 90.0521-59.4167 90.5833-59.5417 91.25-59.625 91.9167-59.7083 92.75-59.75 93.75-59.75 94.7917-59.75 95.6458-59.7083 96.3125-59.625 96.9792-59.5417 97.5-59.4167 97.875-59.25 98.25-59.0833 98.5208-58.875 98.6875-58.625 98.8542-58.375 98.9375-58.1042 98.9375-57.8125ZM100.125-76.8125C100.125-74.3958 99.6667-72.75 98.75-71.875 97.8333-71 96.1458-70.5625 93.6875-70.5625 91.2708-70.5625 89.6146-70.9896 88.7187-71.8437 87.8229-72.6979 87.375-74.3125 87.375-76.6875 87.375-79.1042 87.8333-80.75 88.75-81.625 89.6667-82.5 91.3542-82.9375 93.8125-82.9375 96.2292-82.9375 97.8854-82.5104 98.7812-81.6562 99.6771-80.8021 100.125-79.1875 100.125-76.8125ZM150.719-54.125C150.719-53.2083 150.698-52.4375 150.656-51.8125 150.615-51.1875 150.531-50.6979 150.406-50.3437 150.281-49.9896 150.125-49.7187 149.937-49.5312 149.75-49.3437 149.49-49.25 149.156-49.25 148.823-49.25 148.417-49.3437 147.937-49.5312 147.458-49.7187 146.917-49.9062 146.312-50.0937 145.708-50.2812 145.031-50.4583 144.281-50.625 143.531-50.7917 142.719-50.875 141.844-50.875 140.802-50.875 139.781-50.6667 138.781-50.25 137.781-49.8333 136.729-49.1458 135.625-48.1875 134.521-47.2292 133.365-45.9583 132.156-44.375 130.948-42.7917 129.615-40.8542 128.156-38.5625L128.156-1.5625C128.156-1.22917 128.073-0.947917 127.906-0.71875 127.74-0.489583 127.469-0.291667 127.094-0.125 126.719 0.0416667 126.198 0.166667 125.531 0.25 124.865 0.333333 124.01 0.375 122.969 0.375 121.969 0.375 121.135 0.333333 120.469 0.25 119.802 0.166667 119.271 0.0416667 118.875-0.125 118.479-0.291667 118.208-0.489583 118.062-0.71875 117.917-0.947917 117.844-1.22917 117.844-1.5625L117.844-57.8125C117.844-58.1458 117.906-58.4271 118.031-58.6562 118.156-58.8854 118.406-59.0937 118.781-59.2812 119.156-59.4687 119.635-59.5937 120.219-59.6562 120.802-59.7187 121.573-59.75 122.531-59.75 123.448-59.75 124.208-59.7187 124.812-59.6562 125.417-59.5937 125.885-59.4687 126.219-59.2812 126.552-59.0937 126.792-58.8854 126.937-58.6562 127.083-58.4271 127.156-58.1458 127.156-57.8125L127.156-49.625C128.698-51.875 130.146-53.7083 131.5-55.125 132.854-56.5417 134.135-57.6562 135.344-58.4687 136.552-59.2812 137.75-59.8437 138.937-60.1562 140.125-60.4687 141.323-60.625 142.531-60.625 143.073-60.625 143.687-60.5937 144.375-60.5312 145.062-60.4687 145.781-60.3542 146.531-60.1875 147.281-60.0208 147.958-59.8333 148.562-59.625 149.167-59.4167 149.594-59.2083 149.844-59 150.094-58.7917 150.26-58.5937 150.344-58.4062 150.427-58.2187 150.5-57.9792 150.562-57.6875 150.625-57.3958 150.667-56.9687 150.687-56.4062 150.708-55.8437 150.719-55.0833 150.719-54.125ZM208.835-32.125C208.835-30.5 208.427-29.3437 207.611-28.6562 206.795-27.9687 205.864-27.625 204.817-27.625L167.773-27.625C167.773-24.5 168.087-21.6875 168.715-19.1875 169.343-16.6875 170.389-14.5417 171.855-12.75 173.32-10.9583 175.226-9.58333 177.57-8.625 179.915-7.66667 182.783-7.1875 186.174-7.1875 188.854-7.1875 191.241-7.40625 193.334-7.84375 195.427-8.28125 197.238-8.77083 198.767-9.3125 200.295-9.85417 201.551-10.3437 202.535-10.7812 203.519-11.2187 204.262-11.4375 204.765-11.4375 205.058-11.4375 205.32-11.3646 205.55-11.2187 205.78-11.0729 205.958-10.8542 206.083-10.5625 206.209-10.2708 206.303-9.86458 206.366-9.34375 206.429-8.82292 206.46-8.1875 206.46-7.4375 206.46-6.89583 206.44-6.42708 206.398-6.03125 206.356-5.63542 206.304-5.28125 206.242-4.96875 206.179-4.65625 206.075-4.375 205.929-4.125 205.783-3.875 205.596-3.63542 205.367-3.40625 205.137-3.17708 204.46-2.80208 203.335-2.28125 202.21-1.76042 200.752-1.25 198.96-0.75 197.169-0.25 195.096 0.197917 192.742 0.59375 190.387 0.989583 187.877 1.1875 185.21 1.1875 180.585 1.1875 176.533 0.541667 173.054-0.75 169.575-2.04167 166.648-3.95833 164.273-6.5 161.898-9.04167 160.106-12.2292 158.898-16.0625 157.69-19.8958 157.085-24.3542 157.085-29.4375 157.085-34.2708 157.71-38.6146 158.96-42.4687 160.21-46.3229 162.012-49.5937 164.367-52.2812 166.721-54.9687 169.565-57.0312 172.898-58.4687 176.231-59.9062 179.96-60.625 184.085-60.625 188.502-60.625 192.262-59.9167 195.367-58.5 198.471-57.0833 201.023-55.1771 203.023-52.7812 205.023-50.3854 206.492-47.5729 207.429-44.3437 208.367-41.1146 208.835-37.6667 208.835-34ZM198.46-35.1875C198.585-40.6042 197.38-44.8542 194.844-47.9375 192.308-51.0208 188.546-52.5625 183.557-52.5625 181-52.5625 178.757-52.0833 176.829-51.125 174.9-50.1667 173.286-48.8958 171.986-47.3125 170.686-45.7292 169.68-43.8854 168.968-41.7812 168.255-39.6771 167.857-37.4792 167.773-35.1875ZM264.867-10.125C264.867-9.41667 264.846-8.80208 264.804-8.28125 264.762-7.76042 264.69-7.32292 264.585-6.96875 264.481-6.61458 264.356-6.30208 264.21-6.03125 264.065-5.76042 263.731-5.36458 263.21-4.84375 262.69-4.32292 261.804-3.67708 260.554-2.90625 259.304-2.13542 257.898-1.44792 256.335-0.84375 254.773-0.239583 253.075 0.25 251.242 0.625 249.408 1 247.512 1.1875 245.554 1.1875 241.512 1.1875 237.929 0.520833 234.804-0.8125 231.679-2.14583 229.065-4.09375 226.96-6.65625 224.856-9.21875 223.252-12.3646 222.148-16.0937 221.044-19.8229 220.492-24.125 220.492-29 220.492-34.5417 221.169-39.3021 222.523-43.2812 223.877-47.2604 225.731-50.5208 228.085-53.0625 230.44-55.6042 233.21-57.4896 236.398-58.7187 239.585-59.9479 243.033-60.5625 246.742-60.5625 248.533-60.5625 250.273-60.3958 251.96-60.0625 253.648-59.7292 255.2-59.2917 256.617-58.75 258.033-58.2083 259.294-57.5833 260.398-56.875 261.502-56.1667 262.304-55.5625 262.804-55.0625 263.304-54.5625 263.648-54.1667 263.835-53.875 264.023-53.5833 264.179-53.2396 264.304-52.8437 264.429-52.4479 264.512-52 264.554-51.5 264.596-51 264.617-50.375 264.617-49.625 264.617-48 264.429-46.8646 264.054-46.2187 263.679-45.5729 263.221-45.25 262.679-45.25 262.054-45.25 261.335-45.5937 260.523-46.2812 259.71-46.9687 258.679-47.7292 257.429-48.5625 256.179-49.3958 254.669-50.1562 252.898-50.8437 251.127-51.5312 249.033-51.875 246.617-51.875 241.658-51.875 237.856-49.9687 235.21-46.1562 232.565-42.3437 231.242-36.8125 231.242-29.5625 231.242-25.9375 231.585-22.7604 232.273-20.0312 232.96-17.3021 233.971-15.0208 235.304-13.1875 236.637-11.3542 238.273-9.98958 240.21-9.09375 242.148-8.19792 244.367-7.75 246.867-7.75 249.242-7.75 251.325-8.125 253.117-8.875 254.908-9.625 256.46-10.4479 257.773-11.3437 259.085-12.2396 260.19-13.0521 261.085-13.7812 261.981-14.5104 262.679-14.875 263.179-14.875 263.471-14.875 263.721-14.7917 263.929-14.625 264.137-14.4583 264.315-14.1771 264.46-13.7812 264.606-13.3854 264.71-12.8854 264.773-12.2812 264.835-11.6771 264.867-10.9583 264.867-10.125ZM308.106-5.6875C308.106-4.47917 308.023-3.52083 307.856-2.8125 307.69-2.10417 307.44-1.58333 307.106-1.25 306.773-0.916667 306.273-0.604167 305.606-0.3125 304.94-0.0208333 304.179 0.21875 303.325 0.40625 302.471 0.59375 301.565 0.75 300.606 0.875 299.648 1 298.69 1.0625 297.731 1.0625 294.815 1.0625 292.315 0.677083 290.231-0.09375 288.148-0.864583 286.44-2.03125 285.106-3.59375 283.773-5.15625 282.804-7.13542 282.2-9.53125 281.596-11.9271 281.294-14.75 281.294-18L281.294-50.875 273.419-50.875C272.794-50.875 272.294-51.2083 271.919-51.875 271.544-52.5417 271.356-53.625 271.356-55.125 271.356-55.9167 271.408-56.5833 271.512-57.125 271.617-57.6667 271.752-58.1146 271.919-58.4687 272.085-58.8229 272.304-59.0729 272.575-59.2187 272.846-59.3646 273.148-59.4375 273.481-59.4375L281.294-59.4375 281.294-72.8125C281.294-73.1042 281.367-73.375 281.512-73.625 281.658-73.875 281.929-74.0937 282.325-74.2812 282.721-74.4687 283.252-74.6042 283.919-74.6875 284.585-74.7708 285.419-74.8125 286.419-74.8125 287.46-74.8125 288.315-74.7708 288.981-74.6875 289.648-74.6042 290.169-74.4687 290.544-74.2812 290.919-74.0937 291.19-73.875 291.356-73.625 291.523-73.375 291.606-73.1042 291.606-72.8125L291.606-59.4375 306.044-59.4375C306.377-59.4375 306.669-59.3646 306.919-59.2187 307.169-59.0729 307.387-58.8229 307.575-58.4687 307.762-58.1146 307.898-57.6667 307.981-57.125 308.065-56.5833 308.106-55.9167 308.106-55.125 308.106-53.625 307.919-52.5417 307.544-51.875 307.169-51.2083 306.669-50.875 306.044-50.875L291.606-50.875 291.606-19.5C291.606-15.625 292.179-12.6979 293.325-10.7187 294.471-8.73958 296.523-7.75 299.481-7.75 300.44-7.75 301.294-7.84375 302.044-8.03125 302.794-8.21875 303.46-8.41667 304.044-8.625 304.627-8.83333 305.127-9.03125 305.544-9.21875 305.96-9.40625 306.335-9.5 306.669-9.5 306.877-9.5 307.075-9.44792 307.262-9.34375 307.45-9.23958 307.596-9.04167 307.7-8.75 307.804-8.45833 307.898-8.0625 307.981-7.5625 308.065-7.0625 308.106-6.4375 308.106-5.6875ZM332.137-1.5625C332.137-1.22917 332.054-0.947917 331.887-0.71875 331.721-0.489583 331.45-0.291667 331.075-0.125 330.7 0.0416667 330.179 0.166667 329.512 0.25 328.846 0.333333 327.992 0.375 326.95 0.375 325.95 0.375 325.117 0.333333 324.45 0.25 323.783 0.166667 323.252 0.0416667 322.856-0.125 322.46-0.291667 322.19-0.489583 322.044-0.71875 321.898-0.947917 321.825-1.22917 321.825-1.5625L321.825-57.8125C321.825-58.1042 321.898-58.375 322.044-58.625 322.19-58.875 322.46-59.0833 322.856-59.25 323.252-59.4167 323.783-59.5417 324.45-59.625 325.117-59.7083 325.95-59.75 326.95-59.75 327.992-59.75 328.846-59.7083 329.512-59.625 330.179-59.5417 330.7-59.4167 331.075-59.25 331.45-59.0833 331.721-58.875 331.887-58.625 332.054-58.375 332.137-58.1042 332.137-57.8125ZM333.325-76.8125C333.325-74.3958 332.867-72.75 331.95-71.875 331.033-71 329.346-70.5625 326.887-70.5625 324.471-70.5625 322.815-70.9896 321.919-71.8437 321.023-72.6979 320.575-74.3125 320.575-76.6875 320.575-79.1042 321.033-80.75 321.95-81.625 322.867-82.5 324.554-82.9375 327.012-82.9375 329.429-82.9375 331.085-82.5104 331.981-81.6562 332.877-80.8021 333.325-79.1875 333.325-76.8125ZM403.356-30.3125C403.356-25.7292 402.752-21.5104 401.544-17.6562 400.335-13.8021 398.533-10.4792 396.137-7.6875 393.742-4.89583 390.742-2.71875 387.137-1.15625 383.533 0.40625 379.356 1.1875 374.606 1.1875 369.981 1.1875 365.95 0.5 362.512-0.875 359.075-2.25 356.21-4.25 353.919-6.875 351.627-9.5 349.919-12.6875 348.794-16.4375 347.669-20.1875 347.106-24.4375 347.106-29.1875 347.106-33.7708 347.7-37.9896 348.887-41.8437 350.075-45.6979 351.867-49.0208 354.262-51.8125 356.658-54.6042 359.648-56.7708 363.231-58.3125 366.815-59.8542 371.002-60.625 375.794-60.625 380.419-60.625 384.45-59.9375 387.887-58.5625 391.325-57.1875 394.19-55.1875 396.481-52.5625 398.773-49.9375 400.492-46.75 401.637-43 402.783-39.25 403.356-35.0208 403.356-30.3125ZM392.669-29.625C392.669-32.6667 392.385-35.5417 391.817-38.25 391.249-40.9583 390.314-43.3333 389.011-45.375 387.707-47.4167 385.941-49.0312 383.713-50.2187 381.485-51.4062 378.71-52 375.388-52 372.319-52 369.681-51.4583 367.474-50.375 365.267-49.2917 363.448-47.7604 362.019-45.7812 360.589-43.8021 359.528-41.4583 358.834-38.75 358.141-36.0417 357.794-33.0833 357.794-29.875 357.794-26.7917 358.078-23.8958 358.645-21.1875 359.213-18.4792 360.159-16.1146 361.483-14.0937 362.807-12.0729 364.584-10.4687 366.812-9.28125 369.04-8.09375 371.815-7.5 375.137-7.5 378.164-7.5 380.792-8.04167 383.02-9.125 385.248-10.2083 387.077-11.7292 388.506-13.6875 389.935-15.6458 390.987-17.9792 391.659-20.6875 392.332-23.3958 392.669-26.375 392.669-29.625ZM467.085-1.5625C467.085-1.22917 467.002-0.947917 466.835-0.71875 466.669-0.489583 466.398-0.291667 466.023-0.125 465.648 0.0416667 465.127 0.166667 464.46 0.25 463.794 0.333333 462.96 0.375 461.96 0.375 460.919 0.375 460.065 0.333333 459.398 0.25 458.731 0.166667 458.21 0.0416667 457.835-0.125 457.46-0.291667 457.19-0.489583 457.023-0.71875 456.856-0.947917 456.773-1.22917 456.773-1.5625L456.773-34.5C456.773-37.7083 456.523-40.2917 456.023-42.25 455.523-44.2083 454.794-45.8958 453.835-47.3125 452.877-48.7292 451.637-49.8125 450.117-50.5625 448.596-51.3125 446.835-51.6875 444.835-51.6875 442.252-51.6875 439.669-50.7708 437.085-48.9375 434.502-47.1042 431.794-44.4167 428.96-40.875L428.96-1.5625C428.96-1.22917 428.877-0.947917 428.71-0.71875 428.544-0.489583 428.273-0.291667 427.898-0.125 427.523 0.0416667 427.002 0.166667 426.335 0.25 425.669 0.333333 424.815 0.375 423.773 0.375 422.773 0.375 421.94 0.333333 421.273 0.25 420.606 0.166667 420.075 0.0416667 419.679-0.125 419.283-0.291667 419.012-0.489583 418.867-0.71875 418.721-0.947917 418.648-1.22917 418.648-1.5625L418.648-57.8125C418.648-58.1458 418.71-58.4271 418.835-58.6562 418.96-58.8854 419.21-59.0937 419.585-59.2812 419.96-59.4687 420.44-59.5937 421.023-59.6562 421.606-59.7187 422.377-59.75 423.335-59.75 424.252-59.75 425.012-59.7187 425.617-59.6562 426.221-59.5937 426.69-59.4687 427.023-59.2812 427.356-59.0937 427.596-58.8854 427.742-58.6562 427.887-58.4271 427.96-58.1458 427.96-57.8125L427.96-50.375C431.127-53.9167 434.283-56.5104 437.429-58.1562 440.575-59.8021 443.752-60.625 446.96-60.625 450.71-60.625 453.867-59.9896 456.429-58.7187 458.992-57.4479 461.065-55.75 462.648-53.625 464.231-51.5 465.367-49.0104 466.054-46.1562 466.742-43.3021 467.085-39.875 467.085-35.875Z" transform="matrix(1 0 0 1 97.4793 178)"/></g></g><text font-family="Calibri,Calibri_MSFontService,sans-serif" font-weight="400" font-size="128" transform="matrix(1 0 0 1 204.757 958)">Direction</text><g filter="url(#fx13)" transform="translate(1518 452)"><g><path d="M38.2228 20.2226 38.2231 1485.42" stroke="#000000" stroke-width="37" stroke-miterlimit="8" fill="none" fill-rule="evenodd"/></g></g><path d="M1546.5 462.5 1546.5 1927.69" stroke="#000000" stroke-width="36.6667" stroke-miterlimit="8" fill="none" fill-rule="evenodd"/><g filter="url(#fx14)" transform="translate(3460 684)"><g><path d="M44.2229 32.2226 223.794 398.656" stroke="#000000" stroke-width="55" stroke-miterlimit="8" fill="none" fill-rule="evenodd"/></g></g><path d="M3494.5 706.5 3674.07 1072.93" stroke="#000000" stroke-width="55" stroke-miterlimit="8" fill="none" fill-rule="evenodd"/><g clip-path="url(#clip26)" filter="url(#fx15)" transform="translate(1944 1417)"><g><path d="M0 0 437.678 209.683" stroke="#000000" stroke-width="55" stroke-miterlimit="8" stroke-dasharray="55 55" fill="none" fill-rule="evenodd" transform="matrix(-1 0 0 1 484.9 45.2225)"/></g></g><path d="M0 0 437.678 209.683" stroke="#000000" stroke-width="55" stroke-miterlimit="8" stroke-dasharray="55 55" fill="none" fill-rule="evenodd" transform="matrix(-1 0 0 1 2419.18 1452.5)"/><g clip-path="url(#clip27)" filter="url(#fx16)" transform="translate(2408 862)"><g><path d="M0 0 1124.75 544.5" stroke="#000000" stroke-width="55" stroke-miterlimit="8" fill="none" fill-rule="evenodd" transform="matrix(-1 0 0 1 1171.97 45.2228)"/></g></g><path d="M0 0 1124.75 544.5" stroke="#000000" stroke-width="55" stroke-miterlimit="8" fill="none" fill-rule="evenodd" transform="matrix(-1 0 0 1 3570.25 897.5)"/></g></svg>